<svg id="Groupe_275" data-name="Groupe 275" xmlns="http://www.w3.org/2000/svg" xmlns:xlink="http://www.w3.org/1999/xlink" width="160.02" height="74.518" viewBox="0 0 160.02 74.518">
  <defs>
    <linearGradient id="linear-gradient" x1="0.5" y1="-0.062" x2="0.5" y2="1.015" gradientUnits="objectBoundingBox">
      <stop offset="0.15" stop-color="#774c3b"/>
      <stop offset="0.999" stop-color="#4c3122" stop-opacity="0.8"/>
    </linearGradient>
    <linearGradient id="linear-gradient-2" x1="0.5" y1="-0.062" x2="0.5" y2="1.015" gradientUnits="objectBoundingBox">
      <stop offset="0.047" stop-color="#eaab54"/>
      <stop offset="0.209" stop-color="#e18a4b"/>
      <stop offset="0.368" stop-color="#a5504d"/>
      <stop offset="0.715" stop-color="#774c3b"/>
      <stop offset="0.994" stop-color="#4c3122"/>
    </linearGradient>
    <linearGradient id="linear-gradient-3" x1="0.5" y1="-0.062" x2="0.5" y2="1.015" gradientUnits="objectBoundingBox">
      <stop offset="0.047" stop-color="#eaab54"/>
      <stop offset="0.272" stop-color="#e18a4b"/>
      <stop offset="0.452" stop-color="#a5504d"/>
      <stop offset="0.856" stop-color="#774c3b"/>
    </linearGradient>
    <radialGradient id="radial-gradient" cx="0.5" cy="0.5" r="0.448" gradientTransform="translate(-0.141) scale(1.281 1)" gradientUnits="objectBoundingBox">
      <stop offset="0" stop-color="#4c3023"/>
      <stop offset="1" stop-color="#764b3a"/>
    </radialGradient>
    <radialGradient id="radial-gradient-2" cx="0.5" cy="0.5" r="0.427" gradientTransform="translate(-0.239) scale(1.478 1)" xlink:href="#radial-gradient"/>
    <radialGradient id="radial-gradient-3" cx="0.5" cy="0.5" r="0.427" gradientTransform="translate(-0.237) scale(1.474 1)" xlink:href="#radial-gradient"/>
    <radialGradient id="radial-gradient-4" cx="0.5" cy="0.5" r="0.426" gradientTransform="translate(-0.243) scale(1.486 1)" xlink:href="#radial-gradient"/>
    <radialGradient id="radial-gradient-5" cx="0.5" cy="0.5" r="0.461" gradientTransform="translate(-0.099) scale(1.197 1)" xlink:href="#radial-gradient"/>
  </defs>

    <path id="Tracé_325" data-name="Tracé 325" d="M98.385,184.2" transform="translate(-88.368 -152.849)" fill="#74211b"/>
    <path id="Tracé_326" data-name="Tracé 326" d="M183.086,215.569a4.936,4.936,0,0,1-.593.209l-.085.023q-.155.041-.312.069.015.074.027.146a4.092,4.092,0,0,1,.058.669c0,.023,0,.047,0,.071a2.887,2.887,0,0,1-.106.735,1.6,1.6,0,0,1-.06.183l0,.008c-.01.331-.031.864-.071,1.423-.032.452-.07.842-.115,1.166l-.005.038.006.007c.039.045.077.091.115.142a1.592,1.592,0,0,1,.123.192l.011.021c.016.03.039.074.067.131l1.192-1.483.015-.018s.042-.052.114-.128a2.18,2.18,0,0,1,.892-.636c.04-.015.08-.028.121-.04a1.842,1.842,0,0,1,.621-.073,1.541,1.541,0,0,1,.183.008c-.263-.348-.525-.7-.783-1.046q-.62-.841-1.218-1.7c-.036-.052-.072-.1-.108-.157l-.031.014Z" transform="translate(-154.543 -177.696)" fill="url(#linear-gradient)"/>
    <path id="Tracé_327" data-name="Tracé 327" d="M216.278,60.776l-.007-.09c-.086-8.18-3.416-15.792-6.194-20.737a61.946,61.946,0,0,0-4.81-7.3,61.638,61.638,0,0,1,2.276,10.044c.2,1.322.335,2.652.439,3.985l2.411-2.819-2.341,3.792c0,.061.008.122.012.184l.062,1.293c.012.216.014.431.015.647l.006.648.006.648,0,.324-.01.324-.024.812,4.149-3.3-4.185,4.2a29.554,29.554,0,0,1-.59,4.488l.149-.068c.33-.152.657-.318.981-.487.649-.341,1.285-.711,1.912-1.1s1.24-.8,1.843-1.227c.3-.211.6-.435.9-.653l.881-.678-.813.76c-.278.246-.55.5-.834.739q-.844.729-1.733,1.41c-.594.451-1.2.888-1.829,1.3-.315.2-.632.406-.958.6-.239.14-.473.273-.723.4a28.991,28.991,0,0,1-1.407,4.26l-.015.035q.668-.243,1.333-.5,1.239-.472,2.467-.979c.819-.336,1.631-.689,2.439-1.052s1.606-.749,2.4-1.148c-.752.471-1.513.93-2.287,1.37s-1.553.868-2.341,1.281-1.581.819-2.38,1.212c-.72.354-1.442.7-2.176,1.035a30.8,30.8,0,0,1-1.869,3.374l-.69,1.029c.716-.068,1.438-.16,2.152-.266,1.083-.164,2.164-.36,3.237-.595s2.142-.5,3.2-.8c.532-.143,1.055-.313,1.583-.473s1.045-.348,1.569-.522c-.511.206-1.018.425-1.534.623s-1.03.4-1.553.576c-1.04.376-2.1.7-3.16,1.012s-2.141.574-3.226.81c-.966.207-1.928.388-2.921.521l-.167.225c-.127.178-.27.343-.408.512l-.417.5c-.271.343-.575.657-.868.981l-.445.481-.468.458-.2.2c.752.09,1.512.164,2.269.223q1.677.129,3.362.158c1.123.025,2.247,0,3.37-.058s2.243-.177,3.36-.332c-1.1.225-2.218.419-3.342.544s-2.251.225-3.382.272-2.264.07-3.4.054c-1.009-.015-2.013-.054-3.028-.127l-.343.3c.008.012.018.022.027.034a2.354,2.354,0,0,1,.39.98c0,.019.007.037.01.055a5,5,0,0,1,.053.867,1.613,1.613,0,0,1,0,.176l0,.043c0,.012,0,.023,0,.031s-.03.476-.091,1.237v.011c-.021.263-.046.56-.074.882q.912.161,1.828.3c.565.089,1.132.155,1.7.228.568.057,1.136.123,1.707.156a18.664,18.664,0,0,0,3.427-.022,18.767,18.767,0,0,1-3.435.235c-.576,0-1.15-.029-1.725-.051-.573-.038-1.149-.069-1.721-.123q-.915-.077-1.828-.181c-.037.4-.08.833-.127,1.281l0,.034c-.047.447-.1.922-.16,1.4q-.137,1.116-.286,2.051c.223.033.446.069.669.1.974.134,1.95.255,2.933.314-.985.012-1.971-.038-2.954-.1-.23-.015-.46-.035-.69-.053-.077.466-.155.9-.236,1.288l0,.024c-.09.433-.184.833-.28,1.182,0,.016-.008.031-.013.046-.066.237-.135.456-.2.652l-.02.055c-.056.156-.11.294-.167.421-.008.019-.017.037-.026.055h.149l-.155.013,0,.008a2.94,2.94,0,0,1-.346.558l.01.022a3.913,3.913,0,0,1,.248.752c.011.044.02.089.028.133a4.625,4.625,0,0,1,.083.77c0,.034,0,.07,0,.106a1.555,1.555,0,0,1,0,.158v.018c0,.06,0,.118-.007.175.025.029.049.059.073.088,2.736-2.45,5.152-4.485,6.429-5.544.534-.443,1.11-.887,1.709-1.319a26.836,26.836,0,0,0,10.642-14.981A22.5,22.5,0,0,0,216.278,60.776Z" transform="translate(-166.041 -32.648)" fill="url(#linear-gradient-2)"/>
    <path id="Tracé_328" data-name="Tracé 328" d="M190.238,200.121q.679.786,1.377,1.555.5.554,1.015,1.1l.1-.09c.32-.273.612-.577.912-.871l.449-.443.426-.464c.283-.31.578-.611.84-.94l.4-.484c.131-.159.267-.314.388-.481q-1.122-1.373-2.209-2.771-.081.171-.17.343c-.017.036-.036.071-.055.106-.132.248-.265.477-.407.7-.08.125-.168.252-.268.391a1.635,1.635,0,0,1-.1.132,7.235,7.235,0,0,1-.8.906,1.58,1.58,0,0,1-.166.152,5.72,5.72,0,0,1-.69.521,1.53,1.53,0,0,1-.2.126,4.932,4.932,0,0,1-.6.293,1.567,1.567,0,0,1-.176.072l-.034.012-.1.055Z" transform="translate(-161.163 -162.391)" fill="#774c3b"/>
    <path id="Tracé_329" data-name="Tracé 329" d="M201.282,52.177c-.149.286-.286.548-.406.79a70.464,70.464,0,0,1-4.278,6.361c.024.008.048.014.072.023l2.284.917a1.551,1.551,0,0,1,.58.407,1.983,1.983,0,0,1,.475,1.391,1.552,1.552,0,0,1-.1.618,3.057,3.057,0,0,1-.206.52l-.067.208c.026.22.043.433.049.632,0,.045,0,.079,0,.113h0c0,.027,0,.054,0,.081,0,.132-.005.26-.016.384a1.5,1.5,0,0,1-.016.157c-.007.058-.014.109-.022.158-.013.073-.027.138-.043.2-.009.039-.019.077-.03.115a2.41,2.41,0,0,1-.168.438l-.036.07-.12.285.01.01c.817.864,1.65,1.714,2.489,2.555l.281-.373.708-1.044a29.946,29.946,0,0,0,1.876-3.361c-.844-.975-1.67-1.958-2.477-2.96q-.656-.812-1.283-1.649a18.665,18.665,0,0,1-1.175-1.725A18.565,18.565,0,0,0,201,59.093q.7.763,1.437,1.5c.826.834,1.669,1.654,2.521,2.459.045-.1.091-.2.134-.3a28.484,28.484,0,0,0,1.4-4c-.169-.155-.33-.309-.493-.468q-.369-.359-.726-.726c-.477-.489-.943-.987-1.4-1.49s-.908-1.013-1.354-1.526l-.663-.774-.654-.78.732.707.739.7c.5.462.994.921,1.5,1.37s1.016.893,1.535,1.323q.389.322.784.635l.216.168a31.517,31.517,0,0,0,.708-4.544l-3.685-4.593,3.742,3.7q.133-2.412.064-4.837v-.007h0l-1.92-4.024,1.87,2.735q-.088-1.784-.274-3.564a73.631,73.631,0,0,0-1.725-10.112C205.592,43.914,202.814,49.239,201.282,52.177Z" transform="translate(-166.263 -32.648)" fill="url(#linear-gradient-3)"/>
    <path id="Tracé_330" data-name="Tracé 330" d="M122.586,373.894l-.314.305c-.221.2-.447.375-.676.549-.111.088-.217.168-.324.261l-.026.022c-.011.032-.019.064-.031.1a3.432,3.432,0,0,1-.506.885l.008-.007.279-.216c.092-.071.2-.142.291-.209.189-.128.38-.26.55-.4l.255-.221c.084-.077.164-.157.241-.238a4.253,4.253,0,0,0,.758-1.111,3.023,3.023,0,0,0,.221-.637,5.609,5.609,0,0,1-.435.593C122.783,373.682,122.687,373.79,122.586,373.894Z" transform="translate(-106.075 -302.57)" fill="#846e68"/>
    <path id="Tracé_331" data-name="Tracé 331" d="M122.925,380.351c-.031.047-.062.094-.095.14l.077-.055C122.914,380.408,122.919,380.379,122.925,380.351Z" transform="translate(-107.756 -308.419)" fill="#846e68"/>
    <path id="Tracé_332" data-name="Tracé 332" d="M110.363,378.365l.279-.216c.092-.071.2-.142.291-.209.189-.128.381-.26.55-.4l.255-.221c.084-.077.164-.157.241-.238a4.274,4.274,0,0,0,.549-.727q.01-.2,0-.406c-.044.058-.086.118-.133.174-.091.108-.183.211-.28.311l-.3.293c-.212.193-.428.36-.648.528-.106.085-.208.161-.31.251l-.2.175a3.455,3.455,0,0,1-.463.743,4.389,4.389,0,0,1-.372.4c-.061.057-.121.108-.181.159l.108-.048c.03-.031.057-.065.087-.1A5.787,5.787,0,0,1,110.363,378.365Z" transform="translate(-97.294 -304.93)" fill="#846e68"/>
    <path id="Tracé_333" data-name="Tracé 333" d="M113.144,379.26a2.761,2.761,0,0,0,.141-.687c-.076.108-.156.214-.241.316-.053.064-.109.122-.163.182a2.828,2.828,0,0,1-.134.494l0,.005.01-.009.328-.257Z" transform="translate(-99.756 -307.009)" fill="#846e68"/>
    <path id="Tracé_334" data-name="Tracé 334" d="M118.517,384.338a7.008,7.008,0,0,0-.545.553c-.1.111-.188.226-.278.342l.011.01A3.489,3.489,0,0,0,118.517,384.338Z" transform="translate(-103.681 -311.581)" fill="#846e68"/>
    <path id="Tracé_335" data-name="Tracé 335" d="M132.7,377.093l.1-.088c.007-.1.008-.206.007-.31a4.544,4.544,0,0,1-.206.475C132.637,377.145,132.671,377.119,132.7,377.093Z" transform="translate(-115.507 -305.519)" fill="#846e68"/>
    <path id="Tracé_336" data-name="Tracé 336" d="M87.465,361.129c.022-.023.047-.045.068-.069a5.063,5.063,0,0,0,.9-1.327,4.977,4.977,0,0,0,.346-2.559q-.072.242-.165.478a6.723,6.723,0,0,1-1.1,1.816l-.06.068a3.906,3.906,0,0,1-.25,1.073,4.786,4.786,0,0,1-.579,1.046c0,.026,0,.052,0,.078l.047.1c.1-.072.2-.143.287-.218l.3-.265c.058-.054.112-.111.167-.167a6.985,6.985,0,0,0-.049-.7c.029.174.065.346.088.522C87.46,361.043,87.461,361.086,87.465,361.129Z" transform="translate(-79.031 -290.037)" fill="#846e68"/>
    <path id="Tracé_337" data-name="Tracé 337" d="M131.117,383.11a6.545,6.545,0,0,0-.642.862l.2-.153c.071-.054.153-.109.226-.159.052-.032.1-.067.152-.1a8.149,8.149,0,0,1,.9-.93c.046-.04.095-.078.141-.118a2.986,2.986,0,0,0,.185-.327,2.214,2.214,0,0,0,.095-.224l-.082.064c-.107.085-.208.161-.31.251l-.306.265A6.515,6.515,0,0,0,131.117,383.11Z" transform="translate(-113.819 -309.695)" fill="#846e68"/>
    <path id="Tracé_338" data-name="Tracé 338" d="M133.52,379.292a2.769,2.769,0,0,1-.08.351l.079-.062c.09-.07.188-.139.283-.206a2.83,2.83,0,0,0,.086-.454c-.03.033-.058.068-.089.1Z" transform="translate(-116.171 -307.285)" fill="#846e68"/>
    <path id="Tracé_339" data-name="Tracé 339" d="M140.043,379.994l.289-.226c.073-.057.15-.112.228-.167a2.738,2.738,0,0,0,.092-.445l-.119.116c-.125.114-.252.218-.379.319A2.815,2.815,0,0,1,140.043,379.994Z" transform="translate(-121.408 -307.471)" fill="#846e68"/>
    <path id="Tracé_340" data-name="Tracé 340" d="M137.417,379.519l.181-.129c.14-.1.278-.193.412-.293.005-.035.007-.07.011-.1l-.154.15C137.72,379.278,137.569,379.4,137.417,379.519Z" transform="translate(-119.325 -307.342)" fill="#846e68"/>
    <path id="Tracé_341" data-name="Tracé 341" d="M141.3,376.148c0-.084,0-.168,0-.253-.048.062-.094.126-.144.186-.091.108-.183.211-.28.311l-.045.044c0,.04,0,.079,0,.119.042-.032.087-.064.127-.1l.3-.265C141.273,376.179,141.287,376.163,141.3,376.148Z" transform="translate(-122.03 -304.885)" fill="#846e68"/>
    <path id="Tracé_342" data-name="Tracé 342" d="M51.795,185.185a.873.873,0,0,1,.265.44,31.724,31.724,0,0,0,2.568,6.841l1.445,2.4.772,1.616a2.461,2.461,0,0,1,.1.262c.061-.13.123-.26.176-.393a5.576,5.576,0,0,0,.14-1.2c-.007-.3.013-.6-.006-.9s-.047-.6-.07-.9c.037.3.083.593.113.892s.029.6.05.9a5.489,5.489,0,0,1-.006.569c.01-.032.02-.064.029-.1a7.235,7.235,0,0,0,.272-1.947c-.006-.332.013-.664-.007-.993s-.047-.661-.069-.992c.036.33.082.658.112.989.015.165.026.331.031.5s.012.33.019.5a7.355,7.355,0,0,1-.191,1.992,7.614,7.614,0,0,1-.358,1.111c-.014.057-.028.115-.044.172-.024.084-.049.167-.077.25.021.111.047.236.078.374a6.081,6.081,0,0,0,.616-.989,4.752,4.752,0,0,0,.477-1.916c0-.167-.006-.334,0-.5a4.713,4.713,0,0,0-.01-.5c-.024-.334-.075-.667-.112-1,.051.332.117.662.156,1a4.749,4.749,0,0,1,.031.505c.006.166.021.334.026.5a4.876,4.876,0,0,1-.4,1.963,6.8,6.8,0,0,0,.512-.926,5.533,5.533,0,0,0,.482-2.125c0-.184-.008-.368-.006-.555a5.233,5.233,0,0,0-.012-.552c-.025-.368-.08-.735-.119-1.1.053.366.122.73.162,1.1a5.317,5.317,0,0,1,.034.556c0,.183.021.368.027.554a5.658,5.658,0,0,1-.409,2.194,7.1,7.1,0,0,1-1.169,1.918c-.065.076-.134.148-.2.221a3.623,3.623,0,0,0,.407,1c.224-.157.446-.317.65-.486l.386-.342c.126-.118.247-.242.363-.368l.053-.06a7.885,7.885,0,0,0-.069-1.6c.038.246.087.491.116.739a3.555,3.555,0,0,1,.026.375l.022.373v.009A6.5,6.5,0,0,0,60.174,196a4.547,4.547,0,0,0,.285-.807q-.014-.123-.03-.245.017.111.036.221a8.724,8.724,0,0,0,.04-3.268c.051.346.116.69.154,1.039a5.082,5.082,0,0,1,.032.526c0,.173.02.347.026.524a5.263,5.263,0,0,1-.2,1.521c.013.083.025.166.034.25a3.916,3.916,0,0,1,.028.412l.023.41a4.2,4.2,0,0,1-.293,1.632,5.28,5.28,0,0,1-.861,1.432c-.077.091-.155.177-.236.262l0,.035a2.65,2.65,0,0,1-.046.59l.135-.118c.09-.083.177-.17.259-.258a4.62,4.62,0,0,0,.711-1c-.008-.09-.017-.179-.027-.268.013.079.028.159.043.238.03-.059.063-.116.091-.176a5.194,5.194,0,0,0,.259-2.909c.038.246.087.491.116.739a3.555,3.555,0,0,1,.026.375l.022.373a3.834,3.834,0,0,1-.263,1.489,4.744,4.744,0,0,1-.2.434c.007.057.011.115.014.173a4.5,4.5,0,0,0,.391-.674c.007-.014.011-.028.017-.042s0-.014,0-.02l0,.018a5.258,5.258,0,0,0,.241-2.865c.038.246.087.491.116.739a3.607,3.607,0,0,1,.026.375l.022.373a3.83,3.83,0,0,1-.264,1.489c-.027.068-.057.135-.087.2v.008a5.057,5.057,0,0,0,.685-1.085,5.711,5.711,0,0,0,.276-3.2c.041.271.094.54.126.813a4.028,4.028,0,0,1,.028.412l.023.41a4.2,4.2,0,0,1-.293,1.632,5.269,5.269,0,0,1-.8,1.357c0,.036.008.073.009.109l.019.263a2.667,2.667,0,0,1-.075.723l.015-.011.275-.24c.09-.083.177-.17.259-.258a4.622,4.622,0,0,0,.569-.751c-.008-.173-.024-.345-.044-.515.026.153.056.306.079.461.077-.13.15-.262.213-.4a5.2,5.2,0,0,0,.259-2.909c.038.246.087.491.116.739a3.613,3.613,0,0,1,.026.375l.022.373a3.834,3.834,0,0,1-.263,1.489c-.012.031-.027.061-.04.092q.022.123.04.247l.017-.013c.11-.085.235-.175.356-.261.022-.044.044-.088.065-.133a5.194,5.194,0,0,0,.259-2.909c.038.246.087.491.116.739a3.555,3.555,0,0,1,.026.375l.022.373a3.809,3.809,0,0,1-.219,1.365c.22-.155.437-.313.638-.479l.386-.342c.126-.118.247-.242.363-.368a6.533,6.533,0,0,0,.63-.8c-.012-.266-.038-.532-.071-.794a2.3,2.3,0,0,0-.411.9h0a8.3,8.3,0,0,0-.919-1.453.811.811,0,0,1-.177-.578,2.633,2.633,0,0,0-.67-1.668l0-.012-.01,0,0,0,.011.007.92-.018.583-.011a16.162,16.162,0,0,1,1.618.275c.035.007.07.009.105.014a12.933,12.933,0,0,0-.134-1.661c.051.346.116.69.154,1.039a5.083,5.083,0,0,1,.033.526c0,.034,0,.069,0,.1a1.315,1.315,0,0,0,.255,0l-.014.02v.465a.607.607,0,0,1-.174.427l-.067.069a5.447,5.447,0,0,1-.364,1.514,6.65,6.65,0,0,1-.6,1.144l.019.324a3.834,3.834,0,0,1-.263,1.489c-.015.038-.032.076-.048.114l.142-.1c.286-.2.573-.4.832-.615l.386-.342c.126-.118.247-.242.363-.368l.016-.018c-.009-.3-.037-.6-.074-.89.036.228.081.455.109.685.006.049.011.1.015.15.091-.1.179-.2.264-.312a7.181,7.181,0,0,0,0-2.377c.041.271.094.54.125.813a3.911,3.911,0,0,1,.028.412l.023.41a4.017,4.017,0,0,1-.024.535A6.447,6.447,0,0,0,67.64,196a7.313,7.313,0,0,0,.331-4.1c.051.346.116.69.154,1.039a5.022,5.022,0,0,1,.033.526c0,.173.02.347.026.524a5.353,5.353,0,0,1-.385,2.077,6.689,6.689,0,0,1-.9,1.561,4.393,4.393,0,0,1-.183.587c-.039.1-.082.192-.126.287a3.616,3.616,0,0,1-.235,1.06,4.378,4.378,0,0,1-.287.588c0,.072-.009.143-.018.215l.021-.015c.234-.16.469-.324.679-.5l.315-.277c.1-.1.2-.2.3-.3a5.315,5.315,0,0,0,.713-.964,7.229,7.229,0,0,0-.059-1.513c.036.228.082.455.109.685a3.367,3.367,0,0,1,.025.348l.019.309.025-.046c0-.076,0-.152,0-.228,0-.112,0-.224,0-.337-.012-.225-.039-.451-.058-.677.033.224.075.447.1.673.013.113.023.227.025.341,0,.028,0,.055,0,.083l.03-.061a5.957,5.957,0,0,0,.285-3.337c.043.282.1.562.13.847a4.134,4.134,0,0,1,.029.43l.023.427a4.38,4.38,0,0,1-.307,1.7q-.078.2-.172.383a3.8,3.8,0,0,1-.182,1.15c.006.063.014.125.015.188l.013.185.121-.106c.083-.077.163-.159.24-.24-.006-.21-.023-.42-.047-.626.029.174.065.346.088.522,0,.019,0,.039,0,.058a5.067,5.067,0,0,0,.895-1.326c.016-.034.03-.069.046-.1a6.145,6.145,0,0,0,.113-2.691c.04.261.091.52.122.783a3.752,3.752,0,0,1,.027.4l.023.395c0,.018,0,.037,0,.056a7.954,7.954,0,0,0-.054-2.036c.041.271.094.54.126.813a3.971,3.971,0,0,1,.028.412l.023.41a4.207,4.207,0,0,1-.293,1.632c-.013.033-.028.066-.042.1q-.032.1-.069.19a5.1,5.1,0,0,1-.829,1.383c-.026.031-.053.058-.079.088a2.6,2.6,0,0,1-.028.456c.191-.131.381-.265.552-.406l.3-.265c.027-.025.051-.052.078-.078a6.651,6.651,0,0,0-.051-.789c.029.174.065.346.088.522.009.07.014.141.017.212.051-.051.1-.1.152-.152.111-.119.215-.245.314-.374-.007-.069-.013-.139-.021-.207.011.064.022.127.034.19a5.041,5.041,0,0,0,.569-.936,5.711,5.711,0,0,0,.276-3.2c.041.271.094.54.126.813a3.967,3.967,0,0,1,.028.412l.023.41a4.2,4.2,0,0,1-.293,1.632,5.249,5.249,0,0,1-.675,1.193v.007c.011.079.017.16.02.241.061-.06.123-.12.181-.181a5.065,5.065,0,0,0,.9-1.327,5.711,5.711,0,0,0,.276-3.2c.041.271.094.54.126.813a3.978,3.978,0,0,1,.028.412l.023.41a4.2,4.2,0,0,1-.293,1.632,5.28,5.28,0,0,1-.861,1.432c-.091.108-.183.211-.28.311l-.077.075a2.632,2.632,0,0,1-.031.43c.207-.142.414-.287.6-.439l.3-.265c.1-.092.194-.188.285-.285a5.067,5.067,0,0,0,.357-.433c0-.05-.01-.1-.015-.149.007.046.016.091.024.137.021-.028.04-.057.061-.086l.233-.352a4.745,4.745,0,0,0,.236-.444,5.711,5.711,0,0,0,.276-3.2c.041.271.094.54.126.813a3.971,3.971,0,0,1,.028.412l.023.41a4.126,4.126,0,0,1-.154,1.21l.4-.583h0l.342-.494a8.649,8.649,0,0,0-.08-1.768c.041.271.094.54.126.813a3.969,3.969,0,0,1,.028.412l.023.4.345-.5c0-.041.007-.083.009-.124,0-.156,0-.313,0-.473a4.368,4.368,0,0,0-.008-.472c-.023-.314-.077-.626-.115-.94.052.312.12.62.158.936a4.363,4.363,0,0,1,.03.475c.007.152.022.305.025.461l2.061-2.975h0l.3-.362a2.149,2.149,0,0,0,.516-.314c.546.131.925.232.925.232,1.568.491,1.756-.838,1.756-.838a5.732,5.732,0,0,1,.809-1.734c1.1-1.471.444-2.422-.015-2.843a.818.818,0,0,1-.257-.7c.207-1.727-.681-2.286-.681-2.286l-.029-.5.009,0a1.4,1.4,0,0,0,.876-.777c1.1-2.5,1.63-10.84,1.63-10.84.087-2.11-.867-.954-.867-.954l-2.486,3.093a7.473,7.473,0,0,1-.645.765l-.1-.242a5.324,5.324,0,0,0-.61-2.518.785.785,0,0,0-.6-.355l-.032-.079c.347-.52.4-3.642.4-3.642.433-.607-.145-1.966-.145-1.966a.809.809,0,0,1,.752-.983,3.042,3.042,0,0,0,1.908-.491c1.914-.572,2.93-2.917,3.177-3.563a2.923,2.923,0,0,1,.127-.27,3.018,3.018,0,0,0,.078-1.475,1.474,1.474,0,0,1,.181-.917c.353-.621.108-.892.108-.892l-2.284-.917A2.493,2.493,0,0,0,77.8,158.13a4.127,4.127,0,0,1-1.23,1.56,6.262,6.262,0,0,0-1.277,1.27,1.837,1.837,0,0,1-.948.606.814.814,0,0,1-.942-.709,8.39,8.39,0,0,0-2.4-4.971,8.976,8.976,0,0,1-.779-.818c-.821-.979-2.882-2.971-4.243-.254h0a4.241,4.241,0,0,0-2.371.2.455.455,0,0,0-.218.693l.008.01a1.138,1.138,0,0,1,.253.625c.006.094.01.2.013.314l-.222.243h0c-.554.607-2.016,2.2-2.84,3.087a5.094,5.094,0,0,1-1.179.935,17.125,17.125,0,0,0-5.552,4.84s-2.168,2.572-1.965,8.209a7.9,7.9,0,0,1-.061,2.276,4.038,4.038,0,0,0-.172.67,12.442,12.442,0,0,0,.046,3.884,1.111,1.111,0,0,1-.013.463,3.887,3.887,0,0,1-.49,1.212,1.291,1.291,0,0,0-.233.568A2.334,2.334,0,0,0,51.795,185.185Zm11.875-28.531c0,.034,0,.069,0,.1l-.014.009Z" transform="translate(-50.754 -128.453)" fill="#846e68"/>
    <path id="Tracé_343" data-name="Tracé 343" d="M94.813,376.456c0-.056,0-.112,0-.168a4.865,4.865,0,0,1-.335.53l.061-.048.107-.094Q94.732,376.569,94.813,376.456Z" transform="translate(-85.267 -305.196)" fill="#846e68"/>
    <path id="Tracé_344" data-name="Tracé 344" d="M84.118,374.252c.027.044.055.087.081.132l.053.1c-.005-.1-.012-.209-.022-.313Z" transform="translate(-77.052 -303.513)" fill="#846e68"/>
    <path id="Tracé_345" data-name="Tracé 345" d="M122.593,383.413c.071-.054.153-.109.226-.159l.053-.035a7.074,7.074,0,0,1,.681-.811,6.9,6.9,0,0,1,.607-.553c.013-.026.028-.051.041-.077a2.22,2.22,0,0,0,.128-.33c-.152.129-.305.251-.461.37-.1.082-.2.155-.3.241l-.294.256a6.259,6.259,0,0,0-.542.549,6.139,6.139,0,0,0-.661.908l.037.034c.087-.081.176-.16.269-.23Z" transform="translate(-107.154 -309.289)" fill="#846e68"/>
    <path id="Tracé_346" data-name="Tracé 346" d="M88.127,378.515l-.255.248c-.114.1-.229.2-.345.292.059.131.112.258.156.375.1-.074.208-.15.305-.227A2.779,2.779,0,0,0,88.127,378.515Z" transform="translate(-79.756 -306.963)" fill="#846e68"/>
    <path id="Tracé_347" data-name="Tracé 347" d="M85.264,369.9c-.177.159-.358.3-.54.446.02.107.039.214.053.323,0,.032,0,.066.008.1.057.105.12.223.185.348.023-.029.047-.056.069-.085a6.338,6.338,0,0,0-.048-.883c.029.174.065.346.088.522a2.544,2.544,0,0,1,.022.266v.01a4.56,4.56,0,0,0,.435-.736,3.359,3.359,0,0,0,.27-.847c-.052.057-.1.113-.158.168Z" transform="translate(-77.533 -299.699)" fill="#846e68"/>
    <path id="Tracé_348" data-name="Tracé 348" d="M126.493,368.589l0,.066c.02-.045.04-.09.058-.136Z" transform="translate(-110.661 -299.034)" fill="#846e68"/>
    <path id="Tracé_349" data-name="Tracé 349" d="M119.082,354.181a4.813,4.813,0,0,0,.386-1.3,2.553,2.553,0,0,0-.347.462,4.042,4.042,0,0,1-.334.548c-.088.118-.187.257-.282.4.036.224.078.447.105.674,0,.019,0,.039.006.058A6.4,6.4,0,0,0,119.082,354.181Z" transform="translate(-104.325 -286.633)" fill="#846e68"/>
    <path id="Tracé_350" data-name="Tracé 350" d="M134.038,371.7c.008-.046.014-.093.02-.139l-.008.013C134.047,371.614,134.043,371.656,134.038,371.7Z" transform="translate(-116.645 -301.446)" fill="#846e68"/>
    <path id="Tracé_351" data-name="Tracé 351" d="M117.745,369.255c-.058.064-.117.127-.178.189l-.385.371c-.27.243-.547.455-.829.667-.138.109-.266.2-.4.322-.118.1-.233.193-.343.29v.019a2.656,2.656,0,0,1-.053.625l.1-.07c.224-.153.45-.31.652-.475l.3-.265c.1-.092.194-.188.285-.285.107-.115.207-.236.3-.361-.007-.074-.014-.147-.023-.22.011.067.024.135.036.2a5.067,5.067,0,0,0,.526-.842Q117.742,369.338,117.745,369.255Z" transform="translate(-101.985 -299.618)" fill="#846e68"/>
    <path id="Tracé_352" data-name="Tracé 352" d="M104.18,375.02c-.1.082-.2.157-.305.24a4.879,4.879,0,0,1-.3.47,2.737,2.737,0,0,1-.175.983,3.426,3.426,0,0,1-.513.894c.131-.125.263-.247.4-.356l.3-.233c.061-.048.127-.094.193-.14,0-.011,0-.021,0-.032a2.175,2.175,0,0,0,0-.22c-.007-.146-.032-.293-.048-.44.031.145.069.287.091.435a1.969,1.969,0,0,1,.018.2c.048-.061.1-.12.148-.179a3.218,3.218,0,0,0,.24-1.665Z" transform="translate(-91.94 -304.157)" fill="#846e68"/>
    <path id="Tracé_353" data-name="Tracé 353" d="M111.021,366.03c-.116.137-.234.268-.358.394l-.384.371c-.243.219-.493.412-.745.6.009.055.019.109.026.165a2.487,2.487,0,0,1,.022.266l.019.263a2.659,2.659,0,0,1-.066.682c.068-.074.134-.15.2-.222.178-.183.363-.355.553-.524a6,6,0,0,0-.044-.988c.029.174.065.346.088.522a2.543,2.543,0,0,1,.022.266l.009.133c.053-.046.1-.094.158-.139.075-.062.151-.121.226-.179-.007-.2-.024-.4-.047-.6.029.174.066.346.089.522,0,.016,0,.031,0,.047l.088-.067a4.508,4.508,0,0,0,.236-.439,3.916,3.916,0,0,0,.344-1.656A6.835,6.835,0,0,1,111.021,366.03Z" transform="translate(-97.209 -296.598)" fill="#846e68"/>
    <path id="Tracé_354" data-name="Tracé 354" d="M107.125,383.331c.135-.166.275-.326.424-.479.062-.063.127-.124.191-.185a3.014,3.014,0,0,0,.263-.445,2.181,2.181,0,0,0,.091-.214l-.161.158c-.082.075-.165.145-.248.213a7.7,7.7,0,0,0-.72,1.08Q107.047,383.4,107.125,383.331Z" transform="translate(-95.173 -309.733)" fill="#846e68"/>
    <path id="Tracé_355" data-name="Tracé 355" d="M123.836,373.757c.049-.087.1-.175.138-.265a3.046,3.046,0,0,0,.228-.668,5.378,5.378,0,0,1-.392.592,2.611,2.611,0,0,1,.022.264Z" transform="translate(-108.532 -302.449)" fill="#846e68"/>
    <path id="Tracé_356" data-name="Tracé 356" d="M90.151,380.2c-.194.177-.39.33-.59.483l-.077.062.281.482a5.492,5.492,0,0,1,.413-.366l.087-.067a3.066,3.066,0,0,0,.332-.538,2.429,2.429,0,0,0,.22-.726l-.039.038c-.042.038-.084.074-.126.111-.074.087-.149.172-.228.253Z" transform="translate(-81.308 -307.77)" fill="#846e68"/>
    <path id="Tracé_357" data-name="Tracé 357" d="M95.714,377.07l-.148.145a2.748,2.748,0,0,1-.174.9c-.019.051-.042.1-.064.149l.1-.07c.123-.083.245-.169.364-.256a2.969,2.969,0,0,0,.21-1.193l-.007.009C95.9,376.866,95.811,376.97,95.714,377.07Z" transform="translate(-85.943 -305.562)" fill="#846e68"/>
    <path id="Tracé_358" data-name="Tracé 358" d="M97.666,382.757c-.086.069-.168.132-.25.2q-.135.2-.257.4a1.183,1.183,0,0,1-.006.136l-.013.168a3.482,3.482,0,0,0,1.17-1.336c.03-.061.055-.123.079-.186l-.133.13C98.062,382.451,97.866,382.6,97.666,382.757Z" transform="translate(-87.38 -309.841)" fill="#846e68"/>
    <path id="Tracé_359" data-name="Tracé 359" d="M104.958,374.371c-.06.14-.125.277-.2.41l.216-.166C104.97,374.534,104.965,374.452,104.958,374.371Z" transform="translate(-93.423 -303.676)" fill="#846e68"/>
    <path id="Tracé_360" data-name="Tracé 360" d="M101.47,380.152a3.434,3.434,0,0,1-.547.94,3.268,3.268,0,0,0,.76-1.007,2.456,2.456,0,0,0,.225-.772c-.042.054-.08.111-.123.163-.06.072-.123.14-.186.207A2.819,2.819,0,0,1,101.47,380.152Z" transform="translate(-90.381 -307.595)" fill="#846e68"/>
    <path id="Tracé_361" data-name="Tracé 361" d="M112.406,168.291a7.952,7.952,0,0,1,1.138-1.085,3.162,3.162,0,0,0,1.206-2.258,17.571,17.571,0,0,0-.607-5.155c-.113-1.233,1.038-.652,1.038-.652l1.638,1.654,1.195,1.638.771,1.58.259,1.255.129.349.46.343,1.581,1.61-.244.526.022.006,2-4.8.445-.757.407-.667.472-.451.762-.359.838-.083.443.083,1.317.529.826.332.083.427-.191.465-.186.582,0,.335.051.689-.061.6-.3.709-.309.652-.5.809-1.6,1.1-2.977.781L121.7,170.1l.26,3.107-.231,3,.414.038.164.781.487,2.715.8-.786,2.868-3.565c.416-.507.668-.068.668-.068l-.082.605-.347,2.688-1.233,6.947-1.561,2.775,1.118,1.638.26,1.426.781.79-.019,1.253-.762,1.522-.339.968-.256.7-.685.4-.52-.016-.847-.213-.363-.089-1.6-.167-2.378-.436c-.519-.358-.312-1.621-.072-2.55a2.087,2.087,0,0,0-1.935-2.621l-.095,0a1.337,1.337,0,0,1-1.092-.588l-1.525-2.228c-2.332-2.293.561-3.642.561-3.642a2.763,2.763,0,0,0,1.138-2.869,2.258,2.258,0,0,0-1.3-1.761,2.9,2.9,0,0,0-3.429,1.049,6.072,6.072,0,0,1-.541-1.235l-1.506-8.634Z" transform="translate(-96.393 -132.864)" fill="#8e7f7b"/>
    <path id="Tracé_362" data-name="Tracé 362" d="M111.236,168.168l-1.384-1.511-.235-1.369.1-1.208.309-.937.171-1.279-.075-.872-.266-.48v-.383l.283-.184.731-.2.953-.076a4.573,4.573,0,0,1,.121,2.168,5.416,5.416,0,0,1-.52,1.606s-1.249,2.332-.558,3.581a2.877,2.877,0,0,1,.338.925Z" transform="translate(-97.275 -133.389)" fill="#8e7f7b"/>
    <path id="Tracé_363" data-name="Tracé 363" d="M169.093,248.763l.17.086c.493-.853,5.234-9.143,4.987-11.692l.156-.129.234-.014.133.26-1.685,10.214-.977,1.287-.752.781s-.2-.009-.495-.054a1.288,1.288,0,0,0,.495.054l-.3.848a12.65,12.65,0,0,1-2.337-.883.275.275,0,0,1-.09-.394,1.625,1.625,0,0,0,.145-.251A.229.229,0,0,1,169.093,248.763Z" transform="translate(-144.045 -194.736)" fill="#846e68"/>
    <path id="Tracé_364" data-name="Tracé 364" d="M163.631,322.909a11.51,11.51,0,0,1-5.136-1.021.532.532,0,0,0-.755.312,1.279,1.279,0,0,0,.175,1.1s.607,1.1.2,1.387c0,0-.419.493-.364.573l2.186.3,1.707.383.847.213.52.016s.589-.644.388-1.135a1.117,1.117,0,0,1-.082-.651,1,1,0,0,1,.365-.668.7.7,0,0,0,.2-.156l.034-.042A.371.371,0,0,0,163.631,322.909Z" transform="translate(-135.399 -262.001)" fill="#846e68"/>
    <path id="Tracé_365" data-name="Tracé 365" d="M167.378,312.123a30.367,30.367,0,0,1-4.793-.915.06.06,0,0,0-.075.082,1.462,1.462,0,0,0,1,.837s2.457.374,3.611.5a.313.313,0,0,0,.324-.426l-.016-.04A.059.059,0,0,0,167.378,312.123Z" transform="translate(-139.222 -253.577)" fill="#846e68"/>
    <path id="Tracé_366" data-name="Tracé 366" d="M160.057,242.449l.14,2.357-1.093,1.415-1.619.636-.283-.028a2.6,2.6,0,0,1-1.336-.753s2.378-.434,3.1-2.1a15.535,15.535,0,0,0,.574-1.806l.169.029Z" transform="translate(-133.958 -198.828)" fill="#846e68"/>
    <path id="Tracé_367" data-name="Tracé 367" d="M56.36,309.3" transform="translate(-55.037 -252.065)" fill="#8a5b49"/>
    <path id="Tracé_368" data-name="Tracé 368" d="M152.695,173.207l-.195-.33C152.564,172.907,152.629,173.027,152.695,173.207Z" transform="translate(-131.287 -143.867)" fill="#846e68"/>
    <path id="Tracé_369" data-name="Tracé 369" d="M138.466,179.46a5.421,5.421,0,0,0-5.419-.275s1.566-2.3,4.982-.644a1.443,1.443,0,0,1-.048-.224,26.721,26.721,0,0,0-.715-3.847l.577.976.406.833.259,1.255.129.349.312.679a9.292,9.292,0,0,1,2.258,4.319l.165,3.258-.508,2.251-1.478,1.33-1.763,1.156s4.048-4.393,2.775-7.6Z" transform="translate(-115.859 -145.13)" fill="#846e68"/>
    <path id="Tracé_370" data-name="Tracé 370" d="M107.411,196.787l4.7-2.534a8.887,8.887,0,0,0-2.678,5.232,22.412,22.412,0,0,0-.043,4.2,7.455,7.455,0,0,0,1.069,3.131,3.955,3.955,0,0,0,1.509,1.224l-1.186.407-.126-.224L109.3,209l-1.5.791-2.051-7.771-.294-3.965Z" transform="translate(-93.974 -160.82)" fill="#846e68"/>
    <path id="Tracé_371" data-name="Tracé 371" d="M122.373,279.026s-1.232,1.3-.712,2.188l2.331,3.6s2.429.951,2.158,2.745l-.767,2.145-4.128-2.145-2.857-6.31.138-2.659Z" transform="translate(-104.24 -227.713)" fill="#846e68"/>
    <path id="Tracé_372" data-name="Tracé 372" d="M50.994,210.036l.149-.437.29-.5.248-.741.064-.308-.13-1.094-.062-1.3.041-.963.089-.783.172-.67.1-.628.011-.766-.062-1.127v-.939l.039-.853.075-.812.127-.875.214-1.021.268-.933.288-.783.263-.587.451-.811.624-.893.343-.433.517-.575.808-.779.891-.745,1.086-.8.733-.491.737-.419.275-.2.422-.288s-5.938,5.507-6.555,9.172a27.188,27.188,0,0,0-.171,5.321,1.287,1.287,0,0,1-.035.542,12.7,12.7,0,0,0-.642,4.508s-.027,1.119.723,1.257v0a9.672,9.672,0,0,1,5.116,2.682c-5.222-2.129-7.422.155-7.422.155l-.116-.646Z" transform="translate(-50.759 -155.449)" fill="#8e7f7b"/>
    <path id="Tracé_373" data-name="Tracé 373" d="M94.775,207.962s-.066-5.226.781-7.2c0,0-2.043,3.769-1.619,7.045a7,7,0,0,1,.127,2.329,7.352,7.352,0,0,0-.2,1.726,11.754,11.754,0,0,0,.884,4.9,6.458,6.458,0,0,1,.583,1.249,8.48,8.48,0,0,1,.347,1.321,13.479,13.479,0,0,0-.166-2.519,14.829,14.829,0,0,1-.288-2.011c-.1-1.422-.224-3.484-.2-4.025" transform="translate(-84.784 -165.984)" fill="#8e7f7b"/>
    <path id="Tracé_374" data-name="Tracé 374" d="M165.828,245.493v-.91l-.333-1.315-.282-.636-.409-.318s.381,3.715-2.51,4.625a5.259,5.259,0,0,0,1.95-.335l.853-.491Z" transform="translate(-139.055 -198.938)" fill="#4c3122"/>
    <path id="Tracé_375" data-name="Tracé 375" d="M183.719,237.082s-1.775,11.5-3.493,12.353a.244.244,0,0,0-.128.27.858.858,0,0,1-.019.572.147.147,0,0,0,.044.206c.523.337,1.828,1.312,1.579,2.527a.3.3,0,0,0,.024.2,2.737,2.737,0,0,0,.549.731.6.6,0,0,1,.188.37,3.1,3.1,0,0,1-.4,2.13.569.569,0,0,0-.111.22l-.509,1.891.177-.335.078-.363.169-.465.335-.643.319-.511.334-.554.162-.435.061-.6-.16-.6-.365-.513-.295-.39-.055-.309.036-.549-.063-.685-.234-.645-.289-.385-.13-.165-.025-.442.26-.107.332-.245.287-.416.142-.36.185-.594.264-1.114.133-.69.182-1.1.23-1.688.16-1.4.146-1.484.1-1.206.095-1.3-.036-.692S183.888,237.082,183.719,237.082Z" transform="translate(-153.141 -194.789)" fill="#4c3123"/>
    <path id="Tracé_376" data-name="Tracé 376" d="M102.636,248.183" transform="translate(-91.739 -203.593)" fill="#4c3023"/>
    <path id="Tracé_377" data-name="Tracé 377" d="M102.636,248.183a30.681,30.681,0,0,1,.6,4.754,3.405,3.405,0,0,0,.008.641,12.674,12.674,0,0,0,.606,3.132s1.046,3.132,1.655,3.666l-.779-1.837-.1-.516-.079-.664-.231-1.008-.384-1.563-.082-.6-.079-.76-.057-.647-.074-.731-.014-.664-.117-.693-.23-.923-.329-1.038-.231-.464Z" transform="translate(-91.739 -203.594)" fill="#4c3023"/>
    <path id="Tracé_378" data-name="Tracé 378" d="M147.979,337.877l-.685-.158-1.2-.243-.865-.133-.6-.044-.915-.025-1.272-.074-1.066-.119-.428-.078a1.682,1.682,0,0,0,1.068.8,6.336,6.336,0,0,0,1.073.211l.867.091,1.317.2.564.1a6.094,6.094,0,0,0,1.267-.077l.469-.185.435-.25" transform="translate(-122.132 -274.039)" fill="#4c3023"/>
    <path id="Tracé_379" data-name="Tracé 379" d="M118.194,168.673a12.853,12.853,0,0,1,.894-2.454,4.712,4.712,0,0,0,.5-1.707c.1-1.07-.031-2.462-1.391-2.6a7.317,7.317,0,0,1-.708,3.547,4.236,4.236,0,0,0-.674,1.8,3.058,3.058,0,0,0,.56,2.237S117.6,168.644,118.194,168.673Z" transform="translate(-102.964 -135.168)" fill="#4c3122"/>
    <path id="Tracé_380" data-name="Tracé 380" d="M155.169,200.688s3.362-2.264,3.324-4.133l.135-2.119a4.61,4.61,0,0,0-.263-1.939,1.058,1.058,0,0,1,.035-1.05,1.74,1.74,0,0,1,1.558-.729s3.425.094,5.306-3.874l-.183.584-.469,1.037-.623,1-.736.828-.644.486-.564.275-.2.067-.482.257-.454.161-.488.088-.443-.008s-.564.059-.673.354l-.121.393.046.341.081.234.143.579.038.444-.055.379-.106.219-.077,1.685-.106,1.078-.05.317-.107.425-.1.214-.358.09-.294.163-.324.254-.386.372-.633.519-.413.275-.638.352Z" transform="translate(-133.404 -154.943)" fill="#4c3122"/>
    <path id="Tracé_381" data-name="Tracé 381" d="M89.392,194.253s-2.324,2.59-2.661,9.352a1.1,1.1,0,0,0,.025.292,2.076,2.076,0,0,1,.02,1.021,1.311,1.311,0,0,0-.084.27c-.143.848-.649,4.629,1.207,7a6.888,6.888,0,0,1,.978,1.924,1.783,1.783,0,0,0,.059.3c.222.718,1.137,3.282,2.937,3.514h0a3.912,3.912,0,0,1-.756-.411h0a.759.759,0,0,1-.124-.108l-.381-.41-.418-.664-.278-.6-.179-.486-.113-.36-.155-.588-.114-.531-.187-.756-.238-.591-.585-1.135-.462-1.092-.2-.6-.21-.785-.113-.583-.078-.627-.024-.382-.006-.5.038-.5.082-.523.085-.339.109-.263.083-.231a.993.993,0,0,0,.052-.217l.029-.242a1.95,1.95,0,0,0,.013-.289l0-.066a1.525,1.525,0,0,0-.028-.255l-.067-.338-.085-.669-.032-.615,0-.622.045-.7.043-.411.122-.831.087-.467.234-1.03.285-1.025.227-.712.4-1.106.29-.715Z" transform="translate(-78.957 -160.82)" fill="#4c3122"/>
    <path id="Tracé_382" data-name="Tracé 382" d="M175.673,178.857a2,2,0,0,1,.3-1.259,3.419,3.419,0,0,0,.442-.793,2.889,2.889,0,0,0,.23-1.344s-.173-2.847,2.124-3.353a4.722,4.722,0,0,0-.376,2.862A3.343,3.343,0,0,1,175.673,178.857Z" transform="translate(-149.66 -143.257)" fill="#4c3123"/>
    <path id="Tracé_383" data-name="Tracé 383" d="M118.948,309.149s-.722.843-1.27,1.578a.509.509,0,0,1-.886-.125,34.642,34.642,0,0,1-1.879-6.166V304.3l.292.5.247.375.768.928,1.3,1.449.991,1.107Z" transform="translate(-101.476 -248.102)" fill="#4c3122"/>
    <path id="Tracé_384" data-name="Tracé 384" d="M106.4,344.387l-.408-.468,1.575.427Z" transform="translate(-94.399 -279.524)" fill="#4c3023"/>
    <path id="Tracé_385" data-name="Tracé 385" d="M100.971,172.877a14.458,14.458,0,0,1-2.228,3.084,2.243,2.243,0,0,0-.6.806c-.185.432-.245.959.411,1.155a1.412,1.412,0,0,0,.655.027l1.884-.341-.441-.656-.154-.577-.081-.61.014-.591.115-.773.188-.451.186-.694Z" transform="translate(-88.081 -143.867)" fill="#4c3122"/>
    <path id="Tracé_386" data-name="Tracé 386" d="M160.43,180.338l.218.174.323.1.225-.023.757-.371.328-.428,0,0v-.071l.558-.517.495-.39.253-.236.52-.548.383-.581a25.385,25.385,0,0,0-.339,2.7,1.242,1.242,0,0,1-.019.234l0,0-.008.029c-.006.029-.009.059-.017.088a2.164,2.164,0,0,1-.124.346,3.408,3.408,0,0,1-1.262,1.752h0l-.01.005-.011.006-.552.311a1.558,1.558,0,0,1-.514-.529A6.387,6.387,0,0,1,160.43,180.338Z" transform="translate(-137.577 -147.485)" fill="#4c3023"/>
    <path id="Tracé_387" data-name="Tracé 387" d="M126.2,154.005a3.92,3.92,0,0,1,3.175,1.307,6.523,6.523,0,0,0,.669.738,10.827,10.827,0,0,1,2.955,4.3l-.219-.918-.366-1.028-.571-1.1-.851-1.109-.606-.595-.973-1.063-.715-.6-.633-.348-.668-.144-.526.09-.36.194Z" transform="translate(-110.427 -128.455)" fill="#4c3023"/>
    <path id="Tracé_388" data-name="Tracé 388" d="M110.405,167.626l-1.156-1.272a4.086,4.086,0,0,1-.515-3.22,1.331,1.331,0,0,1,.124-.352,4.85,4.85,0,0,0,.319-2.3.924.924,0,0,0-.21-.511.648.648,0,0,1-.111-.584.676.676,0,0,1,.413-.44,4.153,4.153,0,0,1,3.042-.031,2.146,2.146,0,0,1,1.365,1.223c.626,1.5-.4,3.624-.447,3.714a.694.694,0,0,0-.107.618.765.765,0,0,0,.508.331l-.074.407a1.188,1.188,0,0,1-.807-.559,1.056,1.056,0,0,1,.114-.988c.005-.011.985-2.034.431-3.364a1.73,1.73,0,0,0-1.125-.993l-.023-.01a3.793,3.793,0,0,0-2.733.04.26.26,0,0,0-.159.17.228.228,0,0,0,.035.205,1.357,1.357,0,0,1,.3.747,5.239,5.239,0,0,1-.367,2.523.922.922,0,0,0-.084.244,3.68,3.68,0,0,0,.427,2.869l1.145,1.259Z" transform="translate(-96.482 -132.58)" fill="#4c3122"/>
    <path id="Tracé_389" data-name="Tracé 389" d="M133.337,171.036l-.344-.229a13.988,13.988,0,0,0,.37-3.531v-.064l.037-.052c.3-.418-.028-1.439-.167-1.764l-.016-.062a1.115,1.115,0,0,1,.238-.872,1.076,1.076,0,0,1,.712-.336h.019l.018,0a2.855,2.855,0,0,0,1.761-.457l.058-.028c1.809-.541,2.787-2.769,3.043-3.439a2.616,2.616,0,0,1,.117-.253l.019-.037a2.721,2.721,0,0,0,.057-1.355,1.69,1.69,0,0,1,.206-1.046.775.775,0,0,0,.143-.625l-2.192-.88a2.293,2.293,0,0,0-2.542,1.418,4.36,4.36,0,0,1-1.292,1.638,5.92,5.92,0,0,0-1.234,1.226,2.039,2.039,0,0,1-1.08.691.989.989,0,0,1-.767-.178,1.046,1.046,0,0,1-.417-.709,8.189,8.189,0,0,0-2.333-4.846,9.232,9.232,0,0,1-.8-.837c-.524-.625-1.546-1.656-2.517-1.543-.534.062-1,.483-1.382,1.249l-.37-.185a2.316,2.316,0,0,1,1.7-1.475c1.162-.134,2.3,1,2.882,1.688a8.79,8.79,0,0,0,.761.8,8.611,8.611,0,0,1,2.463,5.1.628.628,0,0,0,.251.427.575.575,0,0,0,.448.1,1.637,1.637,0,0,0,.824-.532,6.305,6.305,0,0,1,1.312-1.3,3.939,3.939,0,0,0,1.168-1.482,2.712,2.712,0,0,1,3-1.653l.051.013,2.328.935.032.035c.035.039.334.4-.081,1.133a1.277,1.277,0,0,0-.156.789,2.965,2.965,0,0,1-.1,1.6l-.019.038a2.18,2.18,0,0,0-.1.212c-.272.711-1.31,3.069-3.281,3.678a3.217,3.217,0,0,1-2,.51.652.652,0,0,0-.4.2.705.705,0,0,0-.137.528c.1.245.545,1.418.147,2.078C133.762,167.989,133.687,170.51,133.337,171.036Z" transform="translate(-107.643 -127.661)" fill="#4c3122"/>
    <path id="Tracé_390" data-name="Tracé 390" d="M159.545,244.56l-.007-.289a5.13,5.13,0,0,0-.575-2.465.585.585,0,0,0-.427-.261,1.653,1.653,0,0,0-1.1.637,6.949,6.949,0,0,1-1.848,1.328c-.395.2-.727.407-.73.41l-.222-.35c.014-.009.353-.223.767-.43a6.536,6.536,0,0,0,1.739-1.249,1.98,1.98,0,0,1,1.426-.759.993.993,0,0,1,.738.437l.015.023a5.447,5.447,0,0,1,.633,2.687l.008.27Z" transform="translate(-132.979 -198)" fill="#4c3023"/>
    <path id="Tracé_391" data-name="Tracé 391" d="M144.43,258.328a2.359,2.359,0,0,1-.7-.119,28.086,28.086,0,0,0-4.117-.8c-.674,0-4.1-.059-4.625-.647a1.955,1.955,0,0,1-.23-2.23l.364.2a1.55,1.55,0,0,0,.171,1.755c.272.3,2.415.5,4.33.512a27.776,27.776,0,0,1,4.222.816,1.3,1.3,0,0,0,1.087-.028,1,1,0,0,0,.41-.64,5.621,5.621,0,0,1,.841-1.818c.951-1.274.534-2.1.018-2.577a1.026,1.026,0,0,1-.323-.876c.187-1.559-.556-2.067-.588-2.087l-.087-.057-.046-.77.156-.047a1.2,1.2,0,0,0,.755-.665c1.074-2.438,1.608-10.686,1.613-10.769.039-.948-.15-1.047-.152-1.048-.057-.022-.235.1-.349.24l-2.484,3.091c-2.071,2.811-4.381,2.4-4.478,2.386l.078-.407c.021,0,2.159.365,4.073-2.232l2.491-3.1c.072-.087.444-.507.817-.364.321.123.453.585.418,1.456-.022.347-.544,8.41-1.647,10.915a1.607,1.607,0,0,1-.859.839l.015.253a2.6,2.6,0,0,1,.685,2.417.611.611,0,0,0,.192.522c.423.388,1.273,1.468.041,3.119a5.286,5.286,0,0,0-.768,1.621,1.415,1.415,0,0,1-.6.947A1.332,1.332,0,0,1,144.43,258.328Z" transform="translate(-117.018 -193.941)" fill="#4c3122"/>
    <path id="Tracé_392" data-name="Tracé 392" d="M109.28,265.027l-3.067-3.5a7.067,7.067,0,0,1-1.28-1.985,6.227,6.227,0,0,1-.358-1.131,3.938,3.938,0,0,1-.081-.592,4.885,4.885,0,0,0-.073-.565c-.163-.752-.357-1.5-.53-2.265a10.8,10.8,0,0,1-.147-1.162c-.036-.387-.068-.774-.093-1.162s-.021-.779-.054-1.162a7.46,7.46,0,0,0-.2-1.141c-.088-.378-.182-.754-.294-1.125-.056-.185-.116-.37-.186-.55a1.464,1.464,0,0,0-.285-.5,1.468,1.468,0,0,1,.3.5c.074.179.138.363.2.548.12.37.223.744.319,1.12a7.552,7.552,0,0,1,.223,1.146c.022.193.032.39.04.583s.024.386.04.579c.033.386.074.771.118,1.156a10.7,10.7,0,0,0,.17,1.143c.186.746.4,1.5.581,2.257a5.113,5.113,0,0,1,.09.587,3.69,3.69,0,0,0,.089.559,5.968,5.968,0,0,0,.367,1.078,6.775,6.775,0,0,0,1.274,1.881l3.144,3.435Z" transform="translate(-91.739 -203.594)" fill="#4c3122"/>
    <path id="Tracé_393" data-name="Tracé 393" d="M108.014,200.839c.169.6.033-1.313.094-1.771a2.817,2.817,0,0,1,.183-.658,2.192,2.192,0,0,0,.1-.549,26.307,26.307,0,0,1,.64-3.467l-.458-.584a31.61,31.61,0,0,0-.567,3.936s-.048.4-.117.718a3.274,3.274,0,0,0-.075.7A6.5,6.5,0,0,0,108.014,200.839Z" transform="translate(-95.845 -160.47)" fill="#4c3122"/>
    <path id="Tracé_394" data-name="Tracé 394" d="M113.969,246.925c.084.372.15.736.216,1.1s.139.719.217,1.071a7.41,7.41,0,0,0,.3,1.031,2.793,2.793,0,0,0,.542.932,1.739,1.739,0,0,1-.833-.792,3.713,3.713,0,0,1-.409-1.08,5.568,5.568,0,0,1-.134-1.131A4.6,4.6,0,0,1,113.969,246.925Z" transform="translate(-100.644 -202.596)" fill="#4c3122"/>
    <path id="Tracé_395" data-name="Tracé 395" d="M145.567,338.38a3.39,3.39,0,0,1-.5-.038c-.025,0-1.8-.332-2.839-.393a3.327,3.327,0,0,1-.84-.152c-.531-.174-1.2-.486-1.374-.987l.391-.136c.091.262.5.528,1.112.73a2.931,2.931,0,0,0,.735.132c1.068.062,2.81.384,2.883.4a2.479,2.479,0,0,0,1.957-.471l.279.306A2.793,2.793,0,0,1,145.567,338.38Z" transform="translate(-121.383 -273.778)" fill="#4c3122"/>
    <path id="Tracé_396" data-name="Tracé 396" d="M144.529,318.684c-.054-.262-.108-.552-.134-.794a.869.869,0,0,0-.283-.557,1.7,1.7,0,0,0-.7-.393.711.711,0,0,0-.832.9l.006.022a.683.683,0,0,0,.341.414c.294.153.809.428,1.211.683A.262.262,0,0,0,144.529,318.684Z" transform="translate(-123.392 -258.111)" fill="#4c3122"/>
    <path id="Tracé_397" data-name="Tracé 397" d="M128.659,267.876a5.5,5.5,0,0,1-.522-.236.643.643,0,0,0-.254-.084c-.193-.017-.479.034-.517.47,0,0,0,.75.538.719a.629.629,0,0,0,.412-.2,3.739,3.739,0,0,1,.385-.354A.183.183,0,0,0,128.659,267.876Z" transform="translate(-111.353 -218.957)" fill="#4c3122"/>
    <path id="Tracé_398" data-name="Tracé 398" d="M62.678,285.067a8.574,8.574,0,0,1,3.323.95,7.648,7.648,0,0,1,2.659,2.267l.245.365c.084.127.151.228.239.344.167.225.345.444.53.657a11.513,11.513,0,0,0,1.193,1.2,7.565,7.565,0,0,0,2.946,1.646,5.942,5.942,0,0,1-1.665-.479,7.664,7.664,0,0,1-1.486-.917,10.087,10.087,0,0,1-1.282-1.189c-.2-.214-.382-.442-.561-.674-.087-.112-.18-.249-.256-.36l-.238-.348a3.35,3.35,0,0,0-.256-.331c-.089-.107-.175-.218-.267-.322l-.295-.3-.147-.149-.158-.137-.317-.276-.338-.251-.17-.125-.178-.113c-.119-.075-.234-.156-.356-.227a10.824,10.824,0,0,0-1.528-.737A9.866,9.866,0,0,0,62.678,285.067Z" transform="translate(-60.048 -232.847)" fill="#4c3023"/>
    <path id="Tracé_399" data-name="Tracé 399" d="M53.013,300.4c.082-.042.144-.07.215-.1s.137-.057.206-.085c.137-.052.275-.1.414-.145a7.444,7.444,0,0,1,.845-.211,6.781,6.781,0,0,1,1.731-.1,5.963,5.963,0,0,1,1.688.373,6.207,6.207,0,0,1,2.707,2.02c.176.222.326.463.477.688s.309.453.471.674a12.519,12.519,0,0,0,1.047,1.267,4.617,4.617,0,0,0,1.3,1,4.665,4.665,0,0,1-1.366-.929,12.708,12.708,0,0,1-1.136-1.215c-.177-.214-.35-.431-.517-.652s-.326-.442-.505-.642a5.806,5.806,0,0,0-2.638-1.734,5.41,5.41,0,0,0-1.549-.244,6.141,6.141,0,0,0-1.555.186,6.708,6.708,0,0,0-.746.236c-.122.045-.241.1-.358.15-.058.027-.116.054-.172.083s-.116.061-.155.084l-.276.216-.291-.3-.315-.421Z" transform="translate(-51.998 -244.483)" fill="#4c3023"/>
    <path id="Tracé_400" data-name="Tracé 400" d="M90.791,378.471c.035-.033.068-.068.1-.1l-.171-.432-.023.025,0,.035a2.65,2.65,0,0,1-.046.59Z" transform="translate(-82.238 -306.505)" fill="#8e7f7b"/>
    <path id="Tracé_401" data-name="Tracé 401" d="M86.6,374.918c0,.055,0,.111-.007.166l.016.034c.111-.08.22-.161.321-.244l.3-.265c.054-.05.1-.1.156-.156l-.22-.556A4.793,4.793,0,0,1,86.6,374.918Z" transform="translate(-79.016 -303.301)" fill="#8e7f7b"/>
    <path id="Tracé_402" data-name="Tracé 402" d="M81.714,352.389c.065-.232.115-.469.157-.707l-.223-.579c.025.272.024.543.043.814a5.5,5.5,0,0,1-.006.569C81.694,352.454,81.7,352.422,81.714,352.389Z" transform="translate(-75.093 -285.221)" fill="#8e7f7b"/>
    <path id="Tracé_403" data-name="Tracé 403" d="M80.549,356.985c-.023.082-.048.162-.074.243l.081.374a6.08,6.08,0,0,0,.611-.983,4.926,4.926,0,0,0,.215-.522l-.336-.872c-.027.16-.058.319-.095.477a7.612,7.612,0,0,1-.358,1.111C80.579,356.871,80.565,356.929,80.549,356.985Z" transform="translate(-74.163 -288.492)" fill="#8e7f7b"/>
    <path id="Tracé_404" data-name="Tracé 404" d="M87.995,378.515l-.255.248c-.125.114-.252.218-.38.319l.17.362c.112-.079.222-.159.325-.241A2.779,2.779,0,0,0,87.995,378.515Z" transform="translate(-79.623 -306.963)" fill="#8e7f7b"/>
    <path id="Tracé_405" data-name="Tracé 405" d="M81.283,363.556l.146.488.265.512c.22-.155.439-.312.639-.479l.242-.215a11.964,11.964,0,0,1-.369-1.555,7.187,7.187,0,0,1-.729,1.034C81.415,363.416,81.348,363.485,81.283,363.556Z" transform="translate(-74.804 -294.109)" fill="#8e7f7b"/>
    <path id="Tracé_406" data-name="Tracé 406" d="M84.632,360.854c.057-.087.109-.178.162-.268l-.031-.08C84.723,360.623,84.68,360.74,84.632,360.854Z" transform="translate(-77.46 -292.679)" fill="#8e7f7b"/>
    <path id="Tracé_407" data-name="Tracé 407" d="M84.724,371.843c.02.107.039.214.053.322.006.044.007.089.011.133l.16.339c.03-.037.062-.073.091-.112a6.339,6.339,0,0,0-.048-.883c.029.174.065.346.088.522a2.544,2.544,0,0,1,.022.266v.01a4.562,4.562,0,0,0,.435-.736c.021-.044.04-.09.059-.135a1.4,1.4,0,0,1-.179-.321l-.152.147C85.087,371.556,84.906,371.7,84.724,371.843Z" transform="translate(-77.533 -301.201)" fill="#8e7f7b"/>
    <path id="Tracé_408" data-name="Tracé 408" d="M57.193,309.491l.992,2.556.4.879.483.948,1.073,1.782.444.794.666,1.387.072.222c.063-.133.126-.267.181-.4a5.575,5.575,0,0,0,.14-1.2c-.007-.3.013-.6-.006-.9,0-.021,0-.041,0-.061l-.517-1.344c-1.387-2.219-2.257-7.746-2.257-7.746a3.167,3.167,0,0,0-2.377.706l.2.761Z" transform="translate(-55.135 -249.757)" fill="#8e7f7b"/>
    <path id="Tracé_409" data-name="Tracé 409" d="M84.076,374.258l.143.246c0-.113-.012-.226-.022-.339Z" transform="translate(-77.019 -303.513)" fill="#8e7f7b"/>
    <path id="Tracé_410" data-name="Tracé 410" d="M90.265,383.265c.036-.047.067-.1.1-.146l-.188-.475-.027.027c-.194.177-.39.33-.59.483l-.077.063.281.482a5.4,5.4,0,0,1,.414-.366Z" transform="translate(-81.307 -310.237)" fill="#8e7f7b"/>
    <path id="Tracé_411" data-name="Tracé 411" d="M86.541,376.891v.01l.007-.011-.009-.017C86.54,376.879,86.541,376.885,86.541,376.891Z" transform="translate(-78.973 -305.66)" fill="#4c3122"/>
    <path id="Tracé_412" data-name="Tracé 412" d="M86.583,378.434c.076-.055.148-.111.221-.167-.034-.069-.068-.138-.1-.206-.036.053-.071.107-.109.159C86.592,378.292,86.589,378.363,86.583,378.434Z" transform="translate(-79.007 -306.603)" fill="#4c3122"/>
    <path id="Tracé_413" data-name="Tracé 413" d="M85.855,379.672c.008-.041.017-.081.024-.123l-.052.067Z" transform="translate(-78.408 -307.783)" fill="#4c3122"/>
    <path id="Tracé_414" data-name="Tracé 414" d="M84.777,374.317a2.549,2.549,0,0,1,.022.266l.019.263c0,.023,0,.047,0,.07l.011.021c.073-.084.144-.17.212-.259,0-.078,0-.157,0-.235-.062-.116-.122-.227-.175-.321-.03-.054-.064-.107-.1-.159l-.039.031C84.744,374.1,84.763,374.208,84.777,374.317Z" transform="translate(-77.533 -303.352)" fill="#4c3122"/>
    <path id="Tracé_415" data-name="Tracé 415" d="M87.045,380.466c-.11.092-.22.182-.332.268.06.136.111.26.149.366q.178-.122.348-.25C87.163,380.729,87.105,380.6,87.045,380.466Z" transform="translate(-79.11 -308.51)" fill="#4c3122"/>
    <path id="Tracé_416" data-name="Tracé 416" d="M50.864,197.109a.663.663,0,0,1,.2.335,32.118,32.118,0,0,0,2.592,6.9l1.436,2.382.772,1.616a2.281,2.281,0,0,1,.155.45q.139-.266.256-.543c-.012-.028-.024-.057-.037-.085l-.781-1.633-1.439-2.388a31.653,31.653,0,0,1-2.551-6.794,1.077,1.077,0,0,0-.326-.545,2.12,2.12,0,0,1-.741-1.961,1.09,1.09,0,0,1,.2-.477,4,4,0,0,0,.523-1.284,1.313,1.313,0,0,0,.016-.549,12.223,12.223,0,0,1-.045-3.817,3.86,3.86,0,0,1,.163-.636,7.879,7.879,0,0,0,.071-2.348,15.6,15.6,0,0,1,.884-6.113,7.431,7.431,0,0,1,1.033-1.955l.016-.022a17.017,17.017,0,0,1,5.481-4.772,5.3,5.3,0,0,0,1.227-.973c1.02-1.095,3.044-3.31,3.064-3.333l-.306-.279c-.02.022-2.042,2.236-3.061,3.329a4.882,4.882,0,0,1-1.131.9,17.45,17.45,0,0,0-5.616,4.9c-.178.217-2.2,2.817-2,8.352a7.768,7.768,0,0,1-.052,2.189,4.237,4.237,0,0,0-.18.7,12.649,12.649,0,0,0,.047,3.95.9.9,0,0,1-.01.377,3.712,3.712,0,0,1-.456,1.14,1.51,1.51,0,0,0-.271.659A2.549,2.549,0,0,0,50.864,197.109Z" transform="translate(-49.964 -140.224)" fill="#4c3122"/>
    <path id="Tracé_417" data-name="Tracé 417" d="M83.322,374.378c.022.035.044.07.064.106.084.152.161.3.235.435a5.455,5.455,0,0,0-.023-.753c-.091.071-.182.142-.275.211Z" transform="translate(-76.421 -303.513)" fill="#4c3122"/>
    <path id="Tracé_418" data-name="Tracé 418" d="M79.862,363.948l.007-.007c.112-.136.217-.278.318-.424q-.028-.132-.053-.271a2.7,2.7,0,0,0-.07-.288c-.013.053-.026.107-.041.16a6.218,6.218,0,0,1-.212.62C79.827,363.806,79.844,363.876,79.862,363.948Z" transform="translate(-73.637 -294.624)" fill="#4c3122"/>
    <path id="Tracé_419" data-name="Tracé 419" d="M80.862,368.8c.113-.078.226-.158.338-.239a3.735,3.735,0,0,1-.41-1.063c-.107.124-.216.246-.33.362A3.55,3.55,0,0,0,80.862,368.8Z" transform="translate(-74.151 -298.223)" fill="#4c3122"/>
    <path id="Tracé_420" data-name="Tracé 420" d="M118.215,374.945a1.42,1.42,0,0,0,.063.251l.1.291.036-.027.3-.264-.048-.136a.982.982,0,0,1-.056-.365c0-.02,0-.039,0-.059l-.148.114Z" transform="translate(-104.095 -303.885)" fill="#4c3122"/>
    <path id="Tracé_421" data-name="Tracé 421" d="M118.124,369.434l.061-.043q.171-.118.339-.239a4.586,4.586,0,0,0-.179-.919,3.869,3.869,0,0,1-.224,1.055C118.124,369.336,118.123,369.385,118.124,369.434Z" transform="translate(-104.021 -298.807)" fill="#4c3122"/>
    <path id="Tracé_422" data-name="Tracé 422" d="M119.534,379.069l.138.4c.052-.05.1-.1.153-.151s.11-.13.164-.195l-.125-.356-.2.2C119.62,379,119.577,379.032,119.534,379.069Z" transform="translate(-105.141 -307.159)" fill="#4c3122"/>
    <path id="Tracé_423" data-name="Tracé 423" d="M106.692,345.079a2.371,2.371,0,0,1,.586,1.467,1.013,1.013,0,0,0,.221.726,7.8,7.8,0,0,1,1.084,1.844q.153-.178.293-.367a8.367,8.367,0,0,0-1.053-1.734.6.6,0,0,1-.134-.429,2.738,2.738,0,0,0-.659-1.744l-.156-.279-.361.2.163.291Z" transform="translate(-94.815 -280.034)" fill="#4c3122"/>
    <path id="Tracé_424" data-name="Tracé 424" d="M117.2,367.182a3.981,3.981,0,0,0,.179-.96c-.023-.066-.047-.131-.072-.2q-.142.2-.3.389A4.534,4.534,0,0,1,117.2,367.182Z" transform="translate(-103.142 -297.058)" fill="#4c3122"/>
    <path id="Tracé_425" data-name="Tracé 425" d="M122.438,343.973a5.442,5.442,0,0,1-.363,1.515l.065,0a1.231,1.231,0,0,1,.692.346l.041.036a.55.55,0,0,0,.452.108,9.084,9.084,0,0,0-.089-1.609c.041.271.094.54.125.813a3.911,3.911,0,0,1,.028.412l.02.362a.635.635,0,0,0,.244-.148,3.651,3.651,0,0,0,.479-.6,6.97,6.97,0,0,0,.3-3.373,11.114,11.114,0,0,1-.865.791,3.278,3.278,0,0,1-.894.384,2.362,2.362,0,0,1-.092.788Z" transform="translate(-107.157 -277.877)" fill="#4c3122"/>
    <path id="Tracé_426" data-name="Tracé 426" d="M133.64,337.45a5.016,5.016,0,0,1,.033.526c0,.173.02.347.026.524a5.214,5.214,0,0,1-.121,1.21,12.883,12.883,0,0,0,1.007-3.939l-.193-.127-.662,1.033a.769.769,0,0,1-.166.233C133.594,337.089,133.621,337.269,133.64,337.45Z" transform="translate(-116.27 -272.961)" fill="#4c3122"/>
    <path id="Tracé_427" data-name="Tracé 427" d="M118.417,359.731l-.019.027.022-.006C118.419,359.745,118.418,359.738,118.417,359.731Z" transform="translate(-104.24 -292.065)" fill="#4c3122"/>
    <path id="Tracé_428" data-name="Tracé 428" d="M118.509,354.325a1.852,1.852,0,0,1,.545-.083c.009-.019.019-.037.028-.055a4.81,4.81,0,0,0,.386-1.3l-.084.094-.263.366-.258.44-.359.511Z" transform="translate(-104.325 -286.638)" fill="#4c3122"/>
    <path id="Tracé_429" data-name="Tracé 429" d="M123.6,348.841c.076-.088.16-.181.26-.283a.809.809,0,0,0,.234-.572v-.465h-.414v.465a.4.4,0,0,1-.015.1A5.206,5.206,0,0,1,123.6,348.841Z" transform="translate(-108.368 -282.38)" fill="#4c3023"/>
    <path id="Tracé_430" data-name="Tracé 430" d="M116.16,353.291c-.013-.134-.028-.268-.045-.4.019.124.041.248.062.372.1-.174.237-.371.4-.585a4.28,4.28,0,0,0,.352-.576,1.2,1.2,0,0,1,.076-.122,5.674,5.674,0,0,0,.132-.784,3.6,3.6,0,0,0-.575.715,3.921,3.921,0,0,1-.317.52,3.252,3.252,0,0,0-.737,1.412l.413.028A1.576,1.576,0,0,1,116.16,353.291Z" transform="translate(-101.946 -285.295)" fill="#4c3023"/>
    <path id="Tracé_431" data-name="Tracé 431" d="M133.421,336.8a7.554,7.554,0,0,0,.976-1.425l-.369-.187a7.5,7.5,0,0,1-.69,1.062C133.368,336.438,133.395,336.621,133.421,336.8Z" transform="translate(-116.09 -272.603)" fill="#4c3122"/>
    <path id="Tracé_432" data-name="Tracé 432" d="M109.422,345.4c.363.021,1.232.2,1.588.271.049.01.1.018.147.023,0-.139,0-.279,0-.419l-.06-.009a15.508,15.508,0,0,0-1.665-.279l-1.5.029.008.414Z" transform="translate(-95.936 -280.368)" fill="#4c3122"/>
    <path id="Tracé_433" data-name="Tracé 433" d="M123.785,341.714c0,.1.009.208.015.313.039,0,.077.006.115.006a1.415,1.415,0,0,0,.335-.039,3.282,3.282,0,0,0,1.566-1.067c-.017-.191-.039-.381-.063-.57a3.263,3.263,0,0,1-1.6,1.235,1.049,1.049,0,0,1-.372.019C123.782,341.645,123.784,341.68,123.785,341.714Z" transform="translate(-108.51 -276.699)" fill="#4c3122"/>
    <path id="Tracé_434" data-name="Tracé 434" d="M158.811,358.547c0,.122,0,.244-.01.366l.295-.431a3.844,3.844,0,0,0,.069-.563c0-.089,0-.178,0-.267l-.373.542Z" transform="translate(-136.277 -290.416)" fill="#4c3122"/>
    <path id="Tracé_435" data-name="Tracé 435" d="M153.108,362.589a5.1,5.1,0,0,1-.281.578c.325-.491.7-1.05,1.106-1.642a5.355,5.355,0,0,0,.069-.835c-.218.317-.435.635-.646.947A4.316,4.316,0,0,1,153.108,362.589Z" transform="translate(-131.547 -292.825)" fill="#4c3122"/>
    <path id="Tracé_436" data-name="Tracé 436" d="M160.944,345.744c0,.121-.007.242-.018.362l.31-.45c-.007-.056-.012-.112-.019-.167.008.053.017.105.026.158.743-1.077,1.511-2.176,2.167-3.107l-.338-.238c-.216.306-1.133,1.608-2.147,3.077C160.933,345.5,160.942,345.621,160.944,345.744Z" transform="translate(-137.969 -278.24)" fill="#4c3122"/>
  
  
</svg>
