<svg id="Groupe_275" data-name="Groupe 275" xmlns="http://www.w3.org/2000/svg" xmlns:xlink="http://www.w3.org/1999/xlink" width="160.02" height="74.518" viewBox="0 0 160.02 74.518">
  <defs>
    <linearGradient id="linear-gradient" x1="0.5" y1="-0.062" x2="0.5" y2="1.015" gradientUnits="objectBoundingBox">
      <stop offset="0.15" stop-color="#774c3b"/>
      <stop offset="0.999" stop-color="#4c3122" stop-opacity="0.8"/>
    </linearGradient>
    <linearGradient id="linear-gradient-2" x1="0.5" y1="-0.062" x2="0.5" y2="1.015" gradientUnits="objectBoundingBox">
      <stop offset="0.047" stop-color="#eaab54"/>
      <stop offset="0.209" stop-color="#e18a4b"/>
      <stop offset="0.368" stop-color="#a5504d"/>
      <stop offset="0.715" stop-color="#774c3b"/>
      <stop offset="0.994" stop-color="#4c3122"/>
    </linearGradient>
    <linearGradient id="linear-gradient-3" x1="0.5" y1="-0.062" x2="0.5" y2="1.015" gradientUnits="objectBoundingBox">
      <stop offset="0.047" stop-color="#eaab54"/>
      <stop offset="0.272" stop-color="#e18a4b"/>
      <stop offset="0.452" stop-color="#a5504d"/>
      <stop offset="0.856" stop-color="#774c3b"/>
    </linearGradient>
    <radialGradient id="radial-gradient" cx="0.5" cy="0.5" r="0.448" gradientTransform="translate(-0.141) scale(1.281 1)" gradientUnits="objectBoundingBox">
      <stop offset="0" stop-color="#4c3023"/>
      <stop offset="1" stop-color="#764b3a"/>
    </radialGradient>
    <radialGradient id="radial-gradient-2" cx="0.5" cy="0.5" r="0.427" gradientTransform="translate(-0.239) scale(1.478 1)" xlink:href="#radial-gradient"/>
    <radialGradient id="radial-gradient-3" cx="0.5" cy="0.5" r="0.427" gradientTransform="translate(-0.237) scale(1.474 1)" xlink:href="#radial-gradient"/>
    <radialGradient id="radial-gradient-4" cx="0.5" cy="0.5" r="0.426" gradientTransform="translate(-0.243) scale(1.486 1)" xlink:href="#radial-gradient"/>
    <radialGradient id="radial-gradient-5" cx="0.5" cy="0.5" r="0.461" gradientTransform="translate(-0.099) scale(1.197 1)" xlink:href="#radial-gradient"/>
  </defs>
  <g id="Groupe_243" data-name="Groupe 243" transform="translate(0 0)">
    <path id="Tracé_325" data-name="Tracé 325" d="M98.385,184.2" transform="translate(-88.368 -152.849)" fill="#74211b"/>
    <path id="Tracé_326" data-name="Tracé 326" d="M183.086,215.569a4.936,4.936,0,0,1-.593.209l-.085.023q-.155.041-.312.069.015.074.027.146a4.092,4.092,0,0,1,.058.669c0,.023,0,.047,0,.071a2.887,2.887,0,0,1-.106.735,1.6,1.6,0,0,1-.06.183l0,.008c-.01.331-.031.864-.071,1.423-.032.452-.07.842-.115,1.166l-.005.038.006.007c.039.045.077.091.115.142a1.592,1.592,0,0,1,.123.192l.011.021c.016.03.039.074.067.131l1.192-1.483.015-.018s.042-.052.114-.128a2.18,2.18,0,0,1,.892-.636c.04-.015.08-.028.121-.04a1.842,1.842,0,0,1,.621-.073,1.541,1.541,0,0,1,.183.008c-.263-.348-.525-.7-.783-1.046q-.62-.841-1.218-1.7c-.036-.052-.072-.1-.108-.157l-.031.014Z" transform="translate(-154.543 -177.696)" fill="url(#linear-gradient)"/>
    <path id="Tracé_327" data-name="Tracé 327" d="M216.278,60.776l-.007-.09c-.086-8.18-3.416-15.792-6.194-20.737a61.946,61.946,0,0,0-4.81-7.3,61.638,61.638,0,0,1,2.276,10.044c.2,1.322.335,2.652.439,3.985l2.411-2.819-2.341,3.792c0,.061.008.122.012.184l.062,1.293c.012.216.014.431.015.647l.006.648.006.648,0,.324-.01.324-.024.812,4.149-3.3-4.185,4.2a29.554,29.554,0,0,1-.59,4.488l.149-.068c.33-.152.657-.318.981-.487.649-.341,1.285-.711,1.912-1.1s1.24-.8,1.843-1.227c.3-.211.6-.435.9-.653l.881-.678-.813.76c-.278.246-.55.5-.834.739q-.844.729-1.733,1.41c-.594.451-1.2.888-1.829,1.3-.315.2-.632.406-.958.6-.239.14-.473.273-.723.4a28.991,28.991,0,0,1-1.407,4.26l-.015.035q.668-.243,1.333-.5,1.239-.472,2.467-.979c.819-.336,1.631-.689,2.439-1.052s1.606-.749,2.4-1.148c-.752.471-1.513.93-2.287,1.37s-1.553.868-2.341,1.281-1.581.819-2.38,1.212c-.72.354-1.442.7-2.176,1.035a30.8,30.8,0,0,1-1.869,3.374l-.69,1.029c.716-.068,1.438-.16,2.152-.266,1.083-.164,2.164-.36,3.237-.595s2.142-.5,3.2-.8c.532-.143,1.055-.313,1.583-.473s1.045-.348,1.569-.522c-.511.206-1.018.425-1.534.623s-1.03.4-1.553.576c-1.04.376-2.1.7-3.16,1.012s-2.141.574-3.226.81c-.966.207-1.928.388-2.921.521l-.167.225c-.127.178-.27.343-.408.512l-.417.5c-.271.343-.575.657-.868.981l-.445.481-.468.458-.2.2c.752.09,1.512.164,2.269.223q1.677.129,3.362.158c1.123.025,2.247,0,3.37-.058s2.243-.177,3.36-.332c-1.1.225-2.218.419-3.342.544s-2.251.225-3.382.272-2.264.07-3.4.054c-1.009-.015-2.013-.054-3.028-.127l-.343.3c.008.012.018.022.027.034a2.354,2.354,0,0,1,.39.98c0,.019.007.037.01.055a5,5,0,0,1,.053.867,1.613,1.613,0,0,1,0,.176l0,.043c0,.012,0,.023,0,.031s-.03.476-.091,1.237v.011c-.021.263-.046.56-.074.882q.912.161,1.828.3c.565.089,1.132.155,1.7.228.568.057,1.136.123,1.707.156a18.664,18.664,0,0,0,3.427-.022,18.767,18.767,0,0,1-3.435.235c-.576,0-1.15-.029-1.725-.051-.573-.038-1.149-.069-1.721-.123q-.915-.077-1.828-.181c-.037.4-.08.833-.127,1.281l0,.034c-.047.447-.1.922-.16,1.4q-.137,1.116-.286,2.051c.223.033.446.069.669.1.974.134,1.95.255,2.933.314-.985.012-1.971-.038-2.954-.1-.23-.015-.46-.035-.69-.053-.077.466-.155.9-.236,1.288l0,.024c-.09.433-.184.833-.28,1.182,0,.016-.008.031-.013.046-.066.237-.135.456-.2.652l-.02.055c-.056.156-.11.294-.167.421-.008.019-.017.037-.026.055h.149l-.155.013,0,.008a2.94,2.94,0,0,1-.346.558l.01.022a3.913,3.913,0,0,1,.248.752c.011.044.02.089.028.133a4.625,4.625,0,0,1,.083.77c0,.034,0,.07,0,.106a1.555,1.555,0,0,1,0,.158v.018c0,.06,0,.118-.007.175.025.029.049.059.073.088,2.736-2.45,5.152-4.485,6.429-5.544.534-.443,1.11-.887,1.709-1.319a26.836,26.836,0,0,0,10.642-14.981A22.5,22.5,0,0,0,216.278,60.776Z" transform="translate(-166.041 -32.648)" fill="url(#linear-gradient-2)"/>
    <path id="Tracé_328" data-name="Tracé 328" d="M190.238,200.121q.679.786,1.377,1.555.5.554,1.015,1.1l.1-.09c.32-.273.612-.577.912-.871l.449-.443.426-.464c.283-.31.578-.611.84-.94l.4-.484c.131-.159.267-.314.388-.481q-1.122-1.373-2.209-2.771-.081.171-.17.343c-.017.036-.036.071-.055.106-.132.248-.265.477-.407.7-.08.125-.168.252-.268.391a1.635,1.635,0,0,1-.1.132,7.235,7.235,0,0,1-.8.906,1.58,1.58,0,0,1-.166.152,5.72,5.72,0,0,1-.69.521,1.53,1.53,0,0,1-.2.126,4.932,4.932,0,0,1-.6.293,1.567,1.567,0,0,1-.176.072l-.034.012-.1.055Z" transform="translate(-161.163 -162.391)" fill="#774c3b"/>
    <path id="Tracé_329" data-name="Tracé 329" d="M201.282,52.177c-.149.286-.286.548-.406.79a70.464,70.464,0,0,1-4.278,6.361c.024.008.048.014.072.023l2.284.917a1.551,1.551,0,0,1,.58.407,1.983,1.983,0,0,1,.475,1.391,1.552,1.552,0,0,1-.1.618,3.057,3.057,0,0,1-.206.52l-.067.208c.026.22.043.433.049.632,0,.045,0,.079,0,.113h0c0,.027,0,.054,0,.081,0,.132-.005.26-.016.384a1.5,1.5,0,0,1-.016.157c-.007.058-.014.109-.022.158-.013.073-.027.138-.043.2-.009.039-.019.077-.03.115a2.41,2.41,0,0,1-.168.438l-.036.07-.12.285.01.01c.817.864,1.65,1.714,2.489,2.555l.281-.373.708-1.044a29.946,29.946,0,0,0,1.876-3.361c-.844-.975-1.67-1.958-2.477-2.96q-.656-.812-1.283-1.649a18.665,18.665,0,0,1-1.175-1.725A18.565,18.565,0,0,0,201,59.093q.7.763,1.437,1.5c.826.834,1.669,1.654,2.521,2.459.045-.1.091-.2.134-.3a28.484,28.484,0,0,0,1.4-4c-.169-.155-.33-.309-.493-.468q-.369-.359-.726-.726c-.477-.489-.943-.987-1.4-1.49s-.908-1.013-1.354-1.526l-.663-.774-.654-.78.732.707.739.7c.5.462.994.921,1.5,1.37s1.016.893,1.535,1.323q.389.322.784.635l.216.168a31.517,31.517,0,0,0,.708-4.544l-3.685-4.593,3.742,3.7q.133-2.412.064-4.837v-.007h0l-1.92-4.024,1.87,2.735q-.088-1.784-.274-3.564a73.631,73.631,0,0,0-1.725-10.112C205.592,43.914,202.814,49.239,201.282,52.177Z" transform="translate(-166.263 -32.648)" fill="url(#linear-gradient-3)"/>
    <path id="Tracé_330" data-name="Tracé 330" d="M122.586,373.894l-.314.305c-.221.2-.447.375-.676.549-.111.088-.217.168-.324.261l-.026.022c-.011.032-.019.064-.031.1a3.432,3.432,0,0,1-.506.885l.008-.007.279-.216c.092-.071.2-.142.291-.209.189-.128.38-.26.55-.4l.255-.221c.084-.077.164-.157.241-.238a4.253,4.253,0,0,0,.758-1.111,3.023,3.023,0,0,0,.221-.637,5.609,5.609,0,0,1-.435.593C122.783,373.682,122.687,373.79,122.586,373.894Z" transform="translate(-106.075 -302.57)" fill="#846e68"/>
    <path id="Tracé_331" data-name="Tracé 331" d="M122.925,380.351c-.031.047-.062.094-.095.14l.077-.055C122.914,380.408,122.919,380.379,122.925,380.351Z" transform="translate(-107.756 -308.419)" fill="#846e68"/>
    <path id="Tracé_332" data-name="Tracé 332" d="M110.363,378.365l.279-.216c.092-.071.2-.142.291-.209.189-.128.381-.26.55-.4l.255-.221c.084-.077.164-.157.241-.238a4.274,4.274,0,0,0,.549-.727q.01-.2,0-.406c-.044.058-.086.118-.133.174-.091.108-.183.211-.28.311l-.3.293c-.212.193-.428.36-.648.528-.106.085-.208.161-.31.251l-.2.175a3.455,3.455,0,0,1-.463.743,4.389,4.389,0,0,1-.372.4c-.061.057-.121.108-.181.159l.108-.048c.03-.031.057-.065.087-.1A5.787,5.787,0,0,1,110.363,378.365Z" transform="translate(-97.294 -304.93)" fill="#846e68"/>
    <path id="Tracé_333" data-name="Tracé 333" d="M113.144,379.26a2.761,2.761,0,0,0,.141-.687c-.076.108-.156.214-.241.316-.053.064-.109.122-.163.182a2.828,2.828,0,0,1-.134.494l0,.005.01-.009.328-.257Z" transform="translate(-99.756 -307.009)" fill="#846e68"/>
    <path id="Tracé_334" data-name="Tracé 334" d="M118.517,384.338a7.008,7.008,0,0,0-.545.553c-.1.111-.188.226-.278.342l.011.01A3.489,3.489,0,0,0,118.517,384.338Z" transform="translate(-103.681 -311.581)" fill="#846e68"/>
    <path id="Tracé_335" data-name="Tracé 335" d="M132.7,377.093l.1-.088c.007-.1.008-.206.007-.31a4.544,4.544,0,0,1-.206.475C132.637,377.145,132.671,377.119,132.7,377.093Z" transform="translate(-115.507 -305.519)" fill="#846e68"/>
    <path id="Tracé_336" data-name="Tracé 336" d="M87.465,361.129c.022-.023.047-.045.068-.069a5.063,5.063,0,0,0,.9-1.327,4.977,4.977,0,0,0,.346-2.559q-.072.242-.165.478a6.723,6.723,0,0,1-1.1,1.816l-.06.068a3.906,3.906,0,0,1-.25,1.073,4.786,4.786,0,0,1-.579,1.046c0,.026,0,.052,0,.078l.047.1c.1-.072.2-.143.287-.218l.3-.265c.058-.054.112-.111.167-.167a6.985,6.985,0,0,0-.049-.7c.029.174.065.346.088.522C87.46,361.043,87.461,361.086,87.465,361.129Z" transform="translate(-79.031 -290.037)" fill="#846e68"/>
    <path id="Tracé_337" data-name="Tracé 337" d="M131.117,383.11a6.545,6.545,0,0,0-.642.862l.2-.153c.071-.054.153-.109.226-.159.052-.032.1-.067.152-.1a8.149,8.149,0,0,1,.9-.93c.046-.04.095-.078.141-.118a2.986,2.986,0,0,0,.185-.327,2.214,2.214,0,0,0,.095-.224l-.082.064c-.107.085-.208.161-.31.251l-.306.265A6.515,6.515,0,0,0,131.117,383.11Z" transform="translate(-113.819 -309.695)" fill="#846e68"/>
    <path id="Tracé_338" data-name="Tracé 338" d="M133.52,379.292a2.769,2.769,0,0,1-.08.351l.079-.062c.09-.07.188-.139.283-.206a2.83,2.83,0,0,0,.086-.454c-.03.033-.058.068-.089.1Z" transform="translate(-116.171 -307.285)" fill="#846e68"/>
    <path id="Tracé_339" data-name="Tracé 339" d="M140.043,379.994l.289-.226c.073-.057.15-.112.228-.167a2.738,2.738,0,0,0,.092-.445l-.119.116c-.125.114-.252.218-.379.319A2.815,2.815,0,0,1,140.043,379.994Z" transform="translate(-121.408 -307.471)" fill="#846e68"/>
    <path id="Tracé_340" data-name="Tracé 340" d="M137.417,379.519l.181-.129c.14-.1.278-.193.412-.293.005-.035.007-.07.011-.1l-.154.15C137.72,379.278,137.569,379.4,137.417,379.519Z" transform="translate(-119.325 -307.342)" fill="#846e68"/>
    <path id="Tracé_341" data-name="Tracé 341" d="M141.3,376.148c0-.084,0-.168,0-.253-.048.062-.094.126-.144.186-.091.108-.183.211-.28.311l-.045.044c0,.04,0,.079,0,.119.042-.032.087-.064.127-.1l.3-.265C141.273,376.179,141.287,376.163,141.3,376.148Z" transform="translate(-122.03 -304.885)" fill="#846e68"/>
    <path id="Tracé_342" data-name="Tracé 342" d="M51.795,185.185a.873.873,0,0,1,.265.44,31.724,31.724,0,0,0,2.568,6.841l1.445,2.4.772,1.616a2.461,2.461,0,0,1,.1.262c.061-.13.123-.26.176-.393a5.576,5.576,0,0,0,.14-1.2c-.007-.3.013-.6-.006-.9s-.047-.6-.07-.9c.037.3.083.593.113.892s.029.6.05.9a5.489,5.489,0,0,1-.006.569c.01-.032.02-.064.029-.1a7.235,7.235,0,0,0,.272-1.947c-.006-.332.013-.664-.007-.993s-.047-.661-.069-.992c.036.33.082.658.112.989.015.165.026.331.031.5s.012.33.019.5a7.355,7.355,0,0,1-.191,1.992,7.614,7.614,0,0,1-.358,1.111c-.014.057-.028.115-.044.172-.024.084-.049.167-.077.25.021.111.047.236.078.374a6.081,6.081,0,0,0,.616-.989,4.752,4.752,0,0,0,.477-1.916c0-.167-.006-.334,0-.5a4.713,4.713,0,0,0-.01-.5c-.024-.334-.075-.667-.112-1,.051.332.117.662.156,1a4.749,4.749,0,0,1,.031.505c.006.166.021.334.026.5a4.876,4.876,0,0,1-.4,1.963,6.8,6.8,0,0,0,.512-.926,5.533,5.533,0,0,0,.482-2.125c0-.184-.008-.368-.006-.555a5.233,5.233,0,0,0-.012-.552c-.025-.368-.08-.735-.119-1.1.053.366.122.73.162,1.1a5.317,5.317,0,0,1,.034.556c0,.183.021.368.027.554a5.658,5.658,0,0,1-.409,2.194,7.1,7.1,0,0,1-1.169,1.918c-.065.076-.134.148-.2.221a3.623,3.623,0,0,0,.407,1c.224-.157.446-.317.65-.486l.386-.342c.126-.118.247-.242.363-.368l.053-.06a7.885,7.885,0,0,0-.069-1.6c.038.246.087.491.116.739a3.555,3.555,0,0,1,.026.375l.022.373v.009A6.5,6.5,0,0,0,60.174,196a4.547,4.547,0,0,0,.285-.807q-.014-.123-.03-.245.017.111.036.221a8.724,8.724,0,0,0,.04-3.268c.051.346.116.69.154,1.039a5.082,5.082,0,0,1,.032.526c0,.173.02.347.026.524a5.263,5.263,0,0,1-.2,1.521c.013.083.025.166.034.25a3.916,3.916,0,0,1,.028.412l.023.41a4.2,4.2,0,0,1-.293,1.632,5.28,5.28,0,0,1-.861,1.432c-.077.091-.155.177-.236.262l0,.035a2.65,2.65,0,0,1-.046.59l.135-.118c.09-.083.177-.17.259-.258a4.62,4.62,0,0,0,.711-1c-.008-.09-.017-.179-.027-.268.013.079.028.159.043.238.03-.059.063-.116.091-.176a5.194,5.194,0,0,0,.259-2.909c.038.246.087.491.116.739a3.555,3.555,0,0,1,.026.375l.022.373a3.834,3.834,0,0,1-.263,1.489,4.744,4.744,0,0,1-.2.434c.007.057.011.115.014.173a4.5,4.5,0,0,0,.391-.674c.007-.014.011-.028.017-.042s0-.014,0-.02l0,.018a5.258,5.258,0,0,0,.241-2.865c.038.246.087.491.116.739a3.607,3.607,0,0,1,.026.375l.022.373a3.83,3.83,0,0,1-.264,1.489c-.027.068-.057.135-.087.2v.008a5.057,5.057,0,0,0,.685-1.085,5.711,5.711,0,0,0,.276-3.2c.041.271.094.54.126.813a4.028,4.028,0,0,1,.028.412l.023.41a4.2,4.2,0,0,1-.293,1.632,5.269,5.269,0,0,1-.8,1.357c0,.036.008.073.009.109l.019.263a2.667,2.667,0,0,1-.075.723l.015-.011.275-.24c.09-.083.177-.17.259-.258a4.622,4.622,0,0,0,.569-.751c-.008-.173-.024-.345-.044-.515.026.153.056.306.079.461.077-.13.15-.262.213-.4a5.2,5.2,0,0,0,.259-2.909c.038.246.087.491.116.739a3.613,3.613,0,0,1,.026.375l.022.373a3.834,3.834,0,0,1-.263,1.489c-.012.031-.027.061-.04.092q.022.123.04.247l.017-.013c.11-.085.235-.175.356-.261.022-.044.044-.088.065-.133a5.194,5.194,0,0,0,.259-2.909c.038.246.087.491.116.739a3.555,3.555,0,0,1,.026.375l.022.373a3.809,3.809,0,0,1-.219,1.365c.22-.155.437-.313.638-.479l.386-.342c.126-.118.247-.242.363-.368a6.533,6.533,0,0,0,.63-.8c-.012-.266-.038-.532-.071-.794a2.3,2.3,0,0,0-.411.9h0a8.3,8.3,0,0,0-.919-1.453.811.811,0,0,1-.177-.578,2.633,2.633,0,0,0-.67-1.668l0-.012-.01,0,0,0,.011.007.92-.018.583-.011a16.162,16.162,0,0,1,1.618.275c.035.007.07.009.105.014a12.933,12.933,0,0,0-.134-1.661c.051.346.116.69.154,1.039a5.083,5.083,0,0,1,.033.526c0,.034,0,.069,0,.1a1.315,1.315,0,0,0,.255,0l-.014.02v.465a.607.607,0,0,1-.174.427l-.067.069a5.447,5.447,0,0,1-.364,1.514,6.65,6.65,0,0,1-.6,1.144l.019.324a3.834,3.834,0,0,1-.263,1.489c-.015.038-.032.076-.048.114l.142-.1c.286-.2.573-.4.832-.615l.386-.342c.126-.118.247-.242.363-.368l.016-.018c-.009-.3-.037-.6-.074-.89.036.228.081.455.109.685.006.049.011.1.015.15.091-.1.179-.2.264-.312a7.181,7.181,0,0,0,0-2.377c.041.271.094.54.125.813a3.911,3.911,0,0,1,.028.412l.023.41a4.017,4.017,0,0,1-.024.535A6.447,6.447,0,0,0,67.64,196a7.313,7.313,0,0,0,.331-4.1c.051.346.116.69.154,1.039a5.022,5.022,0,0,1,.033.526c0,.173.02.347.026.524a5.353,5.353,0,0,1-.385,2.077,6.689,6.689,0,0,1-.9,1.561,4.393,4.393,0,0,1-.183.587c-.039.1-.082.192-.126.287a3.616,3.616,0,0,1-.235,1.06,4.378,4.378,0,0,1-.287.588c0,.072-.009.143-.018.215l.021-.015c.234-.16.469-.324.679-.5l.315-.277c.1-.1.2-.2.3-.3a5.315,5.315,0,0,0,.713-.964,7.229,7.229,0,0,0-.059-1.513c.036.228.082.455.109.685a3.367,3.367,0,0,1,.025.348l.019.309.025-.046c0-.076,0-.152,0-.228,0-.112,0-.224,0-.337-.012-.225-.039-.451-.058-.677.033.224.075.447.1.673.013.113.023.227.025.341,0,.028,0,.055,0,.083l.03-.061a5.957,5.957,0,0,0,.285-3.337c.043.282.1.562.13.847a4.134,4.134,0,0,1,.029.43l.023.427a4.38,4.38,0,0,1-.307,1.7q-.078.2-.172.383a3.8,3.8,0,0,1-.182,1.15c.006.063.014.125.015.188l.013.185.121-.106c.083-.077.163-.159.24-.24-.006-.21-.023-.42-.047-.626.029.174.065.346.088.522,0,.019,0,.039,0,.058a5.067,5.067,0,0,0,.895-1.326c.016-.034.03-.069.046-.1a6.145,6.145,0,0,0,.113-2.691c.04.261.091.52.122.783a3.752,3.752,0,0,1,.027.4l.023.395c0,.018,0,.037,0,.056a7.954,7.954,0,0,0-.054-2.036c.041.271.094.54.126.813a3.971,3.971,0,0,1,.028.412l.023.41a4.207,4.207,0,0,1-.293,1.632c-.013.033-.028.066-.042.1q-.032.1-.069.19a5.1,5.1,0,0,1-.829,1.383c-.026.031-.053.058-.079.088a2.6,2.6,0,0,1-.028.456c.191-.131.381-.265.552-.406l.3-.265c.027-.025.051-.052.078-.078a6.651,6.651,0,0,0-.051-.789c.029.174.065.346.088.522.009.07.014.141.017.212.051-.051.1-.1.152-.152.111-.119.215-.245.314-.374-.007-.069-.013-.139-.021-.207.011.064.022.127.034.19a5.041,5.041,0,0,0,.569-.936,5.711,5.711,0,0,0,.276-3.2c.041.271.094.54.126.813a3.967,3.967,0,0,1,.028.412l.023.41a4.2,4.2,0,0,1-.293,1.632,5.249,5.249,0,0,1-.675,1.193v.007c.011.079.017.16.02.241.061-.06.123-.12.181-.181a5.065,5.065,0,0,0,.9-1.327,5.711,5.711,0,0,0,.276-3.2c.041.271.094.54.126.813a3.978,3.978,0,0,1,.028.412l.023.41a4.2,4.2,0,0,1-.293,1.632,5.28,5.28,0,0,1-.861,1.432c-.091.108-.183.211-.28.311l-.077.075a2.632,2.632,0,0,1-.031.43c.207-.142.414-.287.6-.439l.3-.265c.1-.092.194-.188.285-.285a5.067,5.067,0,0,0,.357-.433c0-.05-.01-.1-.015-.149.007.046.016.091.024.137.021-.028.04-.057.061-.086l.233-.352a4.745,4.745,0,0,0,.236-.444,5.711,5.711,0,0,0,.276-3.2c.041.271.094.54.126.813a3.971,3.971,0,0,1,.028.412l.023.41a4.126,4.126,0,0,1-.154,1.21l.4-.583h0l.342-.494a8.649,8.649,0,0,0-.08-1.768c.041.271.094.54.126.813a3.969,3.969,0,0,1,.028.412l.023.4.345-.5c0-.041.007-.083.009-.124,0-.156,0-.313,0-.473a4.368,4.368,0,0,0-.008-.472c-.023-.314-.077-.626-.115-.94.052.312.12.62.158.936a4.363,4.363,0,0,1,.03.475c.007.152.022.305.025.461l2.061-2.975h0l.3-.362a2.149,2.149,0,0,0,.516-.314c.546.131.925.232.925.232,1.568.491,1.756-.838,1.756-.838a5.732,5.732,0,0,1,.809-1.734c1.1-1.471.444-2.422-.015-2.843a.818.818,0,0,1-.257-.7c.207-1.727-.681-2.286-.681-2.286l-.029-.5.009,0a1.4,1.4,0,0,0,.876-.777c1.1-2.5,1.63-10.84,1.63-10.84.087-2.11-.867-.954-.867-.954l-2.486,3.093a7.473,7.473,0,0,1-.645.765l-.1-.242a5.324,5.324,0,0,0-.61-2.518.785.785,0,0,0-.6-.355l-.032-.079c.347-.52.4-3.642.4-3.642.433-.607-.145-1.966-.145-1.966a.809.809,0,0,1,.752-.983,3.042,3.042,0,0,0,1.908-.491c1.914-.572,2.93-2.917,3.177-3.563a2.923,2.923,0,0,1,.127-.27,3.018,3.018,0,0,0,.078-1.475,1.474,1.474,0,0,1,.181-.917c.353-.621.108-.892.108-.892l-2.284-.917A2.493,2.493,0,0,0,77.8,158.13a4.127,4.127,0,0,1-1.23,1.56,6.262,6.262,0,0,0-1.277,1.27,1.837,1.837,0,0,1-.948.606.814.814,0,0,1-.942-.709,8.39,8.39,0,0,0-2.4-4.971,8.976,8.976,0,0,1-.779-.818c-.821-.979-2.882-2.971-4.243-.254h0a4.241,4.241,0,0,0-2.371.2.455.455,0,0,0-.218.693l.008.01a1.138,1.138,0,0,1,.253.625c.006.094.01.2.013.314l-.222.243h0c-.554.607-2.016,2.2-2.84,3.087a5.094,5.094,0,0,1-1.179.935,17.125,17.125,0,0,0-5.552,4.84s-2.168,2.572-1.965,8.209a7.9,7.9,0,0,1-.061,2.276,4.038,4.038,0,0,0-.172.67,12.442,12.442,0,0,0,.046,3.884,1.111,1.111,0,0,1-.013.463,3.887,3.887,0,0,1-.49,1.212,1.291,1.291,0,0,0-.233.568A2.334,2.334,0,0,0,51.795,185.185Zm11.875-28.531c0,.034,0,.069,0,.1l-.014.009Z" transform="translate(-50.754 -128.453)" fill="#846e68"/>
    <path id="Tracé_343" data-name="Tracé 343" d="M94.813,376.456c0-.056,0-.112,0-.168a4.865,4.865,0,0,1-.335.53l.061-.048.107-.094Q94.732,376.569,94.813,376.456Z" transform="translate(-85.267 -305.196)" fill="#846e68"/>
    <path id="Tracé_344" data-name="Tracé 344" d="M84.118,374.252c.027.044.055.087.081.132l.053.1c-.005-.1-.012-.209-.022-.313Z" transform="translate(-77.052 -303.513)" fill="#846e68"/>
    <path id="Tracé_345" data-name="Tracé 345" d="M122.593,383.413c.071-.054.153-.109.226-.159l.053-.035a7.074,7.074,0,0,1,.681-.811,6.9,6.9,0,0,1,.607-.553c.013-.026.028-.051.041-.077a2.22,2.22,0,0,0,.128-.33c-.152.129-.305.251-.461.37-.1.082-.2.155-.3.241l-.294.256a6.259,6.259,0,0,0-.542.549,6.139,6.139,0,0,0-.661.908l.037.034c.087-.081.176-.16.269-.23Z" transform="translate(-107.154 -309.289)" fill="#846e68"/>
    <path id="Tracé_346" data-name="Tracé 346" d="M88.127,378.515l-.255.248c-.114.1-.229.2-.345.292.059.131.112.258.156.375.1-.074.208-.15.305-.227A2.779,2.779,0,0,0,88.127,378.515Z" transform="translate(-79.756 -306.963)" fill="#846e68"/>
    <path id="Tracé_347" data-name="Tracé 347" d="M85.264,369.9c-.177.159-.358.3-.54.446.02.107.039.214.053.323,0,.032,0,.066.008.1.057.105.12.223.185.348.023-.029.047-.056.069-.085a6.338,6.338,0,0,0-.048-.883c.029.174.065.346.088.522a2.544,2.544,0,0,1,.022.266v.01a4.56,4.56,0,0,0,.435-.736,3.359,3.359,0,0,0,.27-.847c-.052.057-.1.113-.158.168Z" transform="translate(-77.533 -299.699)" fill="#846e68"/>
    <path id="Tracé_348" data-name="Tracé 348" d="M126.493,368.589l0,.066c.02-.045.04-.09.058-.136Z" transform="translate(-110.661 -299.034)" fill="#846e68"/>
    <path id="Tracé_349" data-name="Tracé 349" d="M119.082,354.181a4.813,4.813,0,0,0,.386-1.3,2.553,2.553,0,0,0-.347.462,4.042,4.042,0,0,1-.334.548c-.088.118-.187.257-.282.4.036.224.078.447.105.674,0,.019,0,.039.006.058A6.4,6.4,0,0,0,119.082,354.181Z" transform="translate(-104.325 -286.633)" fill="#846e68"/>
    <path id="Tracé_350" data-name="Tracé 350" d="M134.038,371.7c.008-.046.014-.093.02-.139l-.008.013C134.047,371.614,134.043,371.656,134.038,371.7Z" transform="translate(-116.645 -301.446)" fill="#846e68"/>
    <path id="Tracé_351" data-name="Tracé 351" d="M117.745,369.255c-.058.064-.117.127-.178.189l-.385.371c-.27.243-.547.455-.829.667-.138.109-.266.2-.4.322-.118.1-.233.193-.343.29v.019a2.656,2.656,0,0,1-.053.625l.1-.07c.224-.153.45-.31.652-.475l.3-.265c.1-.092.194-.188.285-.285.107-.115.207-.236.3-.361-.007-.074-.014-.147-.023-.22.011.067.024.135.036.2a5.067,5.067,0,0,0,.526-.842Q117.742,369.338,117.745,369.255Z" transform="translate(-101.985 -299.618)" fill="#846e68"/>
    <path id="Tracé_352" data-name="Tracé 352" d="M104.18,375.02c-.1.082-.2.157-.305.24a4.879,4.879,0,0,1-.3.47,2.737,2.737,0,0,1-.175.983,3.426,3.426,0,0,1-.513.894c.131-.125.263-.247.4-.356l.3-.233c.061-.048.127-.094.193-.14,0-.011,0-.021,0-.032a2.175,2.175,0,0,0,0-.22c-.007-.146-.032-.293-.048-.44.031.145.069.287.091.435a1.969,1.969,0,0,1,.018.2c.048-.061.1-.12.148-.179a3.218,3.218,0,0,0,.24-1.665Z" transform="translate(-91.94 -304.157)" fill="#846e68"/>
    <path id="Tracé_353" data-name="Tracé 353" d="M111.021,366.03c-.116.137-.234.268-.358.394l-.384.371c-.243.219-.493.412-.745.6.009.055.019.109.026.165a2.487,2.487,0,0,1,.022.266l.019.263a2.659,2.659,0,0,1-.066.682c.068-.074.134-.15.2-.222.178-.183.363-.355.553-.524a6,6,0,0,0-.044-.988c.029.174.065.346.088.522a2.543,2.543,0,0,1,.022.266l.009.133c.053-.046.1-.094.158-.139.075-.062.151-.121.226-.179-.007-.2-.024-.4-.047-.6.029.174.066.346.089.522,0,.016,0,.031,0,.047l.088-.067a4.508,4.508,0,0,0,.236-.439,3.916,3.916,0,0,0,.344-1.656A6.835,6.835,0,0,1,111.021,366.03Z" transform="translate(-97.209 -296.598)" fill="#846e68"/>
    <path id="Tracé_354" data-name="Tracé 354" d="M107.125,383.331c.135-.166.275-.326.424-.479.062-.063.127-.124.191-.185a3.014,3.014,0,0,0,.263-.445,2.181,2.181,0,0,0,.091-.214l-.161.158c-.082.075-.165.145-.248.213a7.7,7.7,0,0,0-.72,1.08Q107.047,383.4,107.125,383.331Z" transform="translate(-95.173 -309.733)" fill="#846e68"/>
    <path id="Tracé_355" data-name="Tracé 355" d="M123.836,373.757c.049-.087.1-.175.138-.265a3.046,3.046,0,0,0,.228-.668,5.378,5.378,0,0,1-.392.592,2.611,2.611,0,0,1,.022.264Z" transform="translate(-108.532 -302.449)" fill="#846e68"/>
    <path id="Tracé_356" data-name="Tracé 356" d="M90.151,380.2c-.194.177-.39.33-.59.483l-.077.062.281.482a5.492,5.492,0,0,1,.413-.366l.087-.067a3.066,3.066,0,0,0,.332-.538,2.429,2.429,0,0,0,.22-.726l-.039.038c-.042.038-.084.074-.126.111-.074.087-.149.172-.228.253Z" transform="translate(-81.308 -307.77)" fill="#846e68"/>
    <path id="Tracé_357" data-name="Tracé 357" d="M95.714,377.07l-.148.145a2.748,2.748,0,0,1-.174.9c-.019.051-.042.1-.064.149l.1-.07c.123-.083.245-.169.364-.256a2.969,2.969,0,0,0,.21-1.193l-.007.009C95.9,376.866,95.811,376.97,95.714,377.07Z" transform="translate(-85.943 -305.562)" fill="#846e68"/>
    <path id="Tracé_358" data-name="Tracé 358" d="M97.666,382.757c-.086.069-.168.132-.25.2q-.135.2-.257.4a1.183,1.183,0,0,1-.006.136l-.013.168a3.482,3.482,0,0,0,1.17-1.336c.03-.061.055-.123.079-.186l-.133.13C98.062,382.451,97.866,382.6,97.666,382.757Z" transform="translate(-87.38 -309.841)" fill="#846e68"/>
    <path id="Tracé_359" data-name="Tracé 359" d="M104.958,374.371c-.06.14-.125.277-.2.41l.216-.166C104.97,374.534,104.965,374.452,104.958,374.371Z" transform="translate(-93.423 -303.676)" fill="#846e68"/>
    <path id="Tracé_360" data-name="Tracé 360" d="M101.47,380.152a3.434,3.434,0,0,1-.547.94,3.268,3.268,0,0,0,.76-1.007,2.456,2.456,0,0,0,.225-.772c-.042.054-.08.111-.123.163-.06.072-.123.14-.186.207A2.819,2.819,0,0,1,101.47,380.152Z" transform="translate(-90.381 -307.595)" fill="#846e68"/>
    <path id="Tracé_361" data-name="Tracé 361" d="M112.406,168.291a7.952,7.952,0,0,1,1.138-1.085,3.162,3.162,0,0,0,1.206-2.258,17.571,17.571,0,0,0-.607-5.155c-.113-1.233,1.038-.652,1.038-.652l1.638,1.654,1.195,1.638.771,1.58.259,1.255.129.349.46.343,1.581,1.61-.244.526.022.006,2-4.8.445-.757.407-.667.472-.451.762-.359.838-.083.443.083,1.317.529.826.332.083.427-.191.465-.186.582,0,.335.051.689-.061.6-.3.709-.309.652-.5.809-1.6,1.1-2.977.781L121.7,170.1l.26,3.107-.231,3,.414.038.164.781.487,2.715.8-.786,2.868-3.565c.416-.507.668-.068.668-.068l-.082.605-.347,2.688-1.233,6.947-1.561,2.775,1.118,1.638.26,1.426.781.79-.019,1.253-.762,1.522-.339.968-.256.7-.685.4-.52-.016-.847-.213-.363-.089-1.6-.167-2.378-.436c-.519-.358-.312-1.621-.072-2.55a2.087,2.087,0,0,0-1.935-2.621l-.095,0a1.337,1.337,0,0,1-1.092-.588l-1.525-2.228c-2.332-2.293.561-3.642.561-3.642a2.763,2.763,0,0,0,1.138-2.869,2.258,2.258,0,0,0-1.3-1.761,2.9,2.9,0,0,0-3.429,1.049,6.072,6.072,0,0,1-.541-1.235l-1.506-8.634Z" transform="translate(-96.393 -132.864)" fill="#8e7f7b"/>
    <path id="Tracé_362" data-name="Tracé 362" d="M111.236,168.168l-1.384-1.511-.235-1.369.1-1.208.309-.937.171-1.279-.075-.872-.266-.48v-.383l.283-.184.731-.2.953-.076a4.573,4.573,0,0,1,.121,2.168,5.416,5.416,0,0,1-.52,1.606s-1.249,2.332-.558,3.581a2.877,2.877,0,0,1,.338.925Z" transform="translate(-97.275 -133.389)" fill="#8e7f7b"/>
    <path id="Tracé_363" data-name="Tracé 363" d="M169.093,248.763l.17.086c.493-.853,5.234-9.143,4.987-11.692l.156-.129.234-.014.133.26-1.685,10.214-.977,1.287-.752.781s-.2-.009-.495-.054a1.288,1.288,0,0,0,.495.054l-.3.848a12.65,12.65,0,0,1-2.337-.883.275.275,0,0,1-.09-.394,1.625,1.625,0,0,0,.145-.251A.229.229,0,0,1,169.093,248.763Z" transform="translate(-144.045 -194.736)" fill="#846e68"/>
    <path id="Tracé_364" data-name="Tracé 364" d="M163.631,322.909a11.51,11.51,0,0,1-5.136-1.021.532.532,0,0,0-.755.312,1.279,1.279,0,0,0,.175,1.1s.607,1.1.2,1.387c0,0-.419.493-.364.573l2.186.3,1.707.383.847.213.52.016s.589-.644.388-1.135a1.117,1.117,0,0,1-.082-.651,1,1,0,0,1,.365-.668.7.7,0,0,0,.2-.156l.034-.042A.371.371,0,0,0,163.631,322.909Z" transform="translate(-135.399 -262.001)" fill="#846e68"/>
    <path id="Tracé_365" data-name="Tracé 365" d="M167.378,312.123a30.367,30.367,0,0,1-4.793-.915.06.06,0,0,0-.075.082,1.462,1.462,0,0,0,1,.837s2.457.374,3.611.5a.313.313,0,0,0,.324-.426l-.016-.04A.059.059,0,0,0,167.378,312.123Z" transform="translate(-139.222 -253.577)" fill="#846e68"/>
    <path id="Tracé_366" data-name="Tracé 366" d="M160.057,242.449l.14,2.357-1.093,1.415-1.619.636-.283-.028a2.6,2.6,0,0,1-1.336-.753s2.378-.434,3.1-2.1a15.535,15.535,0,0,0,.574-1.806l.169.029Z" transform="translate(-133.958 -198.828)" fill="#846e68"/>
    <path id="Tracé_367" data-name="Tracé 367" d="M56.36,309.3" transform="translate(-55.037 -252.065)" fill="#8a5b49"/>
    <path id="Tracé_368" data-name="Tracé 368" d="M152.695,173.207l-.195-.33C152.564,172.907,152.629,173.027,152.695,173.207Z" transform="translate(-131.287 -143.867)" fill="#846e68"/>
    <path id="Tracé_369" data-name="Tracé 369" d="M138.466,179.46a5.421,5.421,0,0,0-5.419-.275s1.566-2.3,4.982-.644a1.443,1.443,0,0,1-.048-.224,26.721,26.721,0,0,0-.715-3.847l.577.976.406.833.259,1.255.129.349.312.679a9.292,9.292,0,0,1,2.258,4.319l.165,3.258-.508,2.251-1.478,1.33-1.763,1.156s4.048-4.393,2.775-7.6Z" transform="translate(-115.859 -145.13)" fill="#846e68"/>
    <path id="Tracé_370" data-name="Tracé 370" d="M107.411,196.787l4.7-2.534a8.887,8.887,0,0,0-2.678,5.232,22.412,22.412,0,0,0-.043,4.2,7.455,7.455,0,0,0,1.069,3.131,3.955,3.955,0,0,0,1.509,1.224l-1.186.407-.126-.224L109.3,209l-1.5.791-2.051-7.771-.294-3.965Z" transform="translate(-93.974 -160.82)" fill="#846e68"/>
    <path id="Tracé_371" data-name="Tracé 371" d="M122.373,279.026s-1.232,1.3-.712,2.188l2.331,3.6s2.429.951,2.158,2.745l-.767,2.145-4.128-2.145-2.857-6.31.138-2.659Z" transform="translate(-104.24 -227.713)" fill="#846e68"/>
    <path id="Tracé_372" data-name="Tracé 372" d="M50.994,210.036l.149-.437.29-.5.248-.741.064-.308-.13-1.094-.062-1.3.041-.963.089-.783.172-.67.1-.628.011-.766-.062-1.127v-.939l.039-.853.075-.812.127-.875.214-1.021.268-.933.288-.783.263-.587.451-.811.624-.893.343-.433.517-.575.808-.779.891-.745,1.086-.8.733-.491.737-.419.275-.2.422-.288s-5.938,5.507-6.555,9.172a27.188,27.188,0,0,0-.171,5.321,1.287,1.287,0,0,1-.035.542,12.7,12.7,0,0,0-.642,4.508s-.027,1.119.723,1.257v0a9.672,9.672,0,0,1,5.116,2.682c-5.222-2.129-7.422.155-7.422.155l-.116-.646Z" transform="translate(-50.759 -155.449)" fill="#8e7f7b"/>
    <path id="Tracé_373" data-name="Tracé 373" d="M94.775,207.962s-.066-5.226.781-7.2c0,0-2.043,3.769-1.619,7.045a7,7,0,0,1,.127,2.329,7.352,7.352,0,0,0-.2,1.726,11.754,11.754,0,0,0,.884,4.9,6.458,6.458,0,0,1,.583,1.249,8.48,8.48,0,0,1,.347,1.321,13.479,13.479,0,0,0-.166-2.519,14.829,14.829,0,0,1-.288-2.011c-.1-1.422-.224-3.484-.2-4.025" transform="translate(-84.784 -165.984)" fill="#8e7f7b"/>
    <path id="Tracé_374" data-name="Tracé 374" d="M165.828,245.493v-.91l-.333-1.315-.282-.636-.409-.318s.381,3.715-2.51,4.625a5.259,5.259,0,0,0,1.95-.335l.853-.491Z" transform="translate(-139.055 -198.938)" fill="#4c3122"/>
    <path id="Tracé_375" data-name="Tracé 375" d="M183.719,237.082s-1.775,11.5-3.493,12.353a.244.244,0,0,0-.128.27.858.858,0,0,1-.019.572.147.147,0,0,0,.044.206c.523.337,1.828,1.312,1.579,2.527a.3.3,0,0,0,.024.2,2.737,2.737,0,0,0,.549.731.6.6,0,0,1,.188.37,3.1,3.1,0,0,1-.4,2.13.569.569,0,0,0-.111.22l-.509,1.891.177-.335.078-.363.169-.465.335-.643.319-.511.334-.554.162-.435.061-.6-.16-.6-.365-.513-.295-.39-.055-.309.036-.549-.063-.685-.234-.645-.289-.385-.13-.165-.025-.442.26-.107.332-.245.287-.416.142-.36.185-.594.264-1.114.133-.69.182-1.1.23-1.688.16-1.4.146-1.484.1-1.206.095-1.3-.036-.692S183.888,237.082,183.719,237.082Z" transform="translate(-153.141 -194.789)" fill="#4c3123"/>
    <path id="Tracé_376" data-name="Tracé 376" d="M102.636,248.183" transform="translate(-91.739 -203.593)" fill="#4c3023"/>
    <path id="Tracé_377" data-name="Tracé 377" d="M102.636,248.183a30.681,30.681,0,0,1,.6,4.754,3.405,3.405,0,0,0,.008.641,12.674,12.674,0,0,0,.606,3.132s1.046,3.132,1.655,3.666l-.779-1.837-.1-.516-.079-.664-.231-1.008-.384-1.563-.082-.6-.079-.76-.057-.647-.074-.731-.014-.664-.117-.693-.23-.923-.329-1.038-.231-.464Z" transform="translate(-91.739 -203.594)" fill="#4c3023"/>
    <path id="Tracé_378" data-name="Tracé 378" d="M147.979,337.877l-.685-.158-1.2-.243-.865-.133-.6-.044-.915-.025-1.272-.074-1.066-.119-.428-.078a1.682,1.682,0,0,0,1.068.8,6.336,6.336,0,0,0,1.073.211l.867.091,1.317.2.564.1a6.094,6.094,0,0,0,1.267-.077l.469-.185.435-.25" transform="translate(-122.132 -274.039)" fill="#4c3023"/>
    <path id="Tracé_379" data-name="Tracé 379" d="M118.194,168.673a12.853,12.853,0,0,1,.894-2.454,4.712,4.712,0,0,0,.5-1.707c.1-1.07-.031-2.462-1.391-2.6a7.317,7.317,0,0,1-.708,3.547,4.236,4.236,0,0,0-.674,1.8,3.058,3.058,0,0,0,.56,2.237S117.6,168.644,118.194,168.673Z" transform="translate(-102.964 -135.168)" fill="#4c3122"/>
    <path id="Tracé_380" data-name="Tracé 380" d="M155.169,200.688s3.362-2.264,3.324-4.133l.135-2.119a4.61,4.61,0,0,0-.263-1.939,1.058,1.058,0,0,1,.035-1.05,1.74,1.74,0,0,1,1.558-.729s3.425.094,5.306-3.874l-.183.584-.469,1.037-.623,1-.736.828-.644.486-.564.275-.2.067-.482.257-.454.161-.488.088-.443-.008s-.564.059-.673.354l-.121.393.046.341.081.234.143.579.038.444-.055.379-.106.219-.077,1.685-.106,1.078-.05.317-.107.425-.1.214-.358.09-.294.163-.324.254-.386.372-.633.519-.413.275-.638.352Z" transform="translate(-133.404 -154.943)" fill="#4c3122"/>
    <path id="Tracé_381" data-name="Tracé 381" d="M89.392,194.253s-2.324,2.59-2.661,9.352a1.1,1.1,0,0,0,.025.292,2.076,2.076,0,0,1,.02,1.021,1.311,1.311,0,0,0-.084.27c-.143.848-.649,4.629,1.207,7a6.888,6.888,0,0,1,.978,1.924,1.783,1.783,0,0,0,.059.3c.222.718,1.137,3.282,2.937,3.514h0a3.912,3.912,0,0,1-.756-.411h0a.759.759,0,0,1-.124-.108l-.381-.41-.418-.664-.278-.6-.179-.486-.113-.36-.155-.588-.114-.531-.187-.756-.238-.591-.585-1.135-.462-1.092-.2-.6-.21-.785-.113-.583-.078-.627-.024-.382-.006-.5.038-.5.082-.523.085-.339.109-.263.083-.231a.993.993,0,0,0,.052-.217l.029-.242a1.95,1.95,0,0,0,.013-.289l0-.066a1.525,1.525,0,0,0-.028-.255l-.067-.338-.085-.669-.032-.615,0-.622.045-.7.043-.411.122-.831.087-.467.234-1.03.285-1.025.227-.712.4-1.106.29-.715Z" transform="translate(-78.957 -160.82)" fill="#4c3122"/>
    <path id="Tracé_382" data-name="Tracé 382" d="M175.673,178.857a2,2,0,0,1,.3-1.259,3.419,3.419,0,0,0,.442-.793,2.889,2.889,0,0,0,.23-1.344s-.173-2.847,2.124-3.353a4.722,4.722,0,0,0-.376,2.862A3.343,3.343,0,0,1,175.673,178.857Z" transform="translate(-149.66 -143.257)" fill="#4c3123"/>
    <path id="Tracé_383" data-name="Tracé 383" d="M118.948,309.149s-.722.843-1.27,1.578a.509.509,0,0,1-.886-.125,34.642,34.642,0,0,1-1.879-6.166V304.3l.292.5.247.375.768.928,1.3,1.449.991,1.107Z" transform="translate(-101.476 -248.102)" fill="#4c3122"/>
    <path id="Tracé_384" data-name="Tracé 384" d="M106.4,344.387l-.408-.468,1.575.427Z" transform="translate(-94.399 -279.524)" fill="#4c3023"/>
    <path id="Tracé_385" data-name="Tracé 385" d="M100.971,172.877a14.458,14.458,0,0,1-2.228,3.084,2.243,2.243,0,0,0-.6.806c-.185.432-.245.959.411,1.155a1.412,1.412,0,0,0,.655.027l1.884-.341-.441-.656-.154-.577-.081-.61.014-.591.115-.773.188-.451.186-.694Z" transform="translate(-88.081 -143.867)" fill="#4c3122"/>
    <path id="Tracé_386" data-name="Tracé 386" d="M160.43,180.338l.218.174.323.1.225-.023.757-.371.328-.428,0,0v-.071l.558-.517.495-.39.253-.236.52-.548.383-.581a25.385,25.385,0,0,0-.339,2.7,1.242,1.242,0,0,1-.019.234l0,0-.008.029c-.006.029-.009.059-.017.088a2.164,2.164,0,0,1-.124.346,3.408,3.408,0,0,1-1.262,1.752h0l-.01.005-.011.006-.552.311a1.558,1.558,0,0,1-.514-.529A6.387,6.387,0,0,1,160.43,180.338Z" transform="translate(-137.577 -147.485)" fill="#4c3023"/>
    <path id="Tracé_387" data-name="Tracé 387" d="M126.2,154.005a3.92,3.92,0,0,1,3.175,1.307,6.523,6.523,0,0,0,.669.738,10.827,10.827,0,0,1,2.955,4.3l-.219-.918-.366-1.028-.571-1.1-.851-1.109-.606-.595-.973-1.063-.715-.6-.633-.348-.668-.144-.526.09-.36.194Z" transform="translate(-110.427 -128.455)" fill="#4c3023"/>
    <path id="Tracé_388" data-name="Tracé 388" d="M110.405,167.626l-1.156-1.272a4.086,4.086,0,0,1-.515-3.22,1.331,1.331,0,0,1,.124-.352,4.85,4.85,0,0,0,.319-2.3.924.924,0,0,0-.21-.511.648.648,0,0,1-.111-.584.676.676,0,0,1,.413-.44,4.153,4.153,0,0,1,3.042-.031,2.146,2.146,0,0,1,1.365,1.223c.626,1.5-.4,3.624-.447,3.714a.694.694,0,0,0-.107.618.765.765,0,0,0,.508.331l-.074.407a1.188,1.188,0,0,1-.807-.559,1.056,1.056,0,0,1,.114-.988c.005-.011.985-2.034.431-3.364a1.73,1.73,0,0,0-1.125-.993l-.023-.01a3.793,3.793,0,0,0-2.733.04.26.26,0,0,0-.159.17.228.228,0,0,0,.035.205,1.357,1.357,0,0,1,.3.747,5.239,5.239,0,0,1-.367,2.523.922.922,0,0,0-.084.244,3.68,3.68,0,0,0,.427,2.869l1.145,1.259Z" transform="translate(-96.482 -132.58)" fill="#4c3122"/>
    <path id="Tracé_389" data-name="Tracé 389" d="M133.337,171.036l-.344-.229a13.988,13.988,0,0,0,.37-3.531v-.064l.037-.052c.3-.418-.028-1.439-.167-1.764l-.016-.062a1.115,1.115,0,0,1,.238-.872,1.076,1.076,0,0,1,.712-.336h.019l.018,0a2.855,2.855,0,0,0,1.761-.457l.058-.028c1.809-.541,2.787-2.769,3.043-3.439a2.616,2.616,0,0,1,.117-.253l.019-.037a2.721,2.721,0,0,0,.057-1.355,1.69,1.69,0,0,1,.206-1.046.775.775,0,0,0,.143-.625l-2.192-.88a2.293,2.293,0,0,0-2.542,1.418,4.36,4.36,0,0,1-1.292,1.638,5.92,5.92,0,0,0-1.234,1.226,2.039,2.039,0,0,1-1.08.691.989.989,0,0,1-.767-.178,1.046,1.046,0,0,1-.417-.709,8.189,8.189,0,0,0-2.333-4.846,9.232,9.232,0,0,1-.8-.837c-.524-.625-1.546-1.656-2.517-1.543-.534.062-1,.483-1.382,1.249l-.37-.185a2.316,2.316,0,0,1,1.7-1.475c1.162-.134,2.3,1,2.882,1.688a8.79,8.79,0,0,0,.761.8,8.611,8.611,0,0,1,2.463,5.1.628.628,0,0,0,.251.427.575.575,0,0,0,.448.1,1.637,1.637,0,0,0,.824-.532,6.305,6.305,0,0,1,1.312-1.3,3.939,3.939,0,0,0,1.168-1.482,2.712,2.712,0,0,1,3-1.653l.051.013,2.328.935.032.035c.035.039.334.4-.081,1.133a1.277,1.277,0,0,0-.156.789,2.965,2.965,0,0,1-.1,1.6l-.019.038a2.18,2.18,0,0,0-.1.212c-.272.711-1.31,3.069-3.281,3.678a3.217,3.217,0,0,1-2,.51.652.652,0,0,0-.4.2.705.705,0,0,0-.137.528c.1.245.545,1.418.147,2.078C133.762,167.989,133.687,170.51,133.337,171.036Z" transform="translate(-107.643 -127.661)" fill="#4c3122"/>
    <path id="Tracé_390" data-name="Tracé 390" d="M159.545,244.56l-.007-.289a5.13,5.13,0,0,0-.575-2.465.585.585,0,0,0-.427-.261,1.653,1.653,0,0,0-1.1.637,6.949,6.949,0,0,1-1.848,1.328c-.395.2-.727.407-.73.41l-.222-.35c.014-.009.353-.223.767-.43a6.536,6.536,0,0,0,1.739-1.249,1.98,1.98,0,0,1,1.426-.759.993.993,0,0,1,.738.437l.015.023a5.447,5.447,0,0,1,.633,2.687l.008.27Z" transform="translate(-132.979 -198)" fill="#4c3023"/>
    <path id="Tracé_391" data-name="Tracé 391" d="M144.43,258.328a2.359,2.359,0,0,1-.7-.119,28.086,28.086,0,0,0-4.117-.8c-.674,0-4.1-.059-4.625-.647a1.955,1.955,0,0,1-.23-2.23l.364.2a1.55,1.55,0,0,0,.171,1.755c.272.3,2.415.5,4.33.512a27.776,27.776,0,0,1,4.222.816,1.3,1.3,0,0,0,1.087-.028,1,1,0,0,0,.41-.64,5.621,5.621,0,0,1,.841-1.818c.951-1.274.534-2.1.018-2.577a1.026,1.026,0,0,1-.323-.876c.187-1.559-.556-2.067-.588-2.087l-.087-.057-.046-.77.156-.047a1.2,1.2,0,0,0,.755-.665c1.074-2.438,1.608-10.686,1.613-10.769.039-.948-.15-1.047-.152-1.048-.057-.022-.235.1-.349.24l-2.484,3.091c-2.071,2.811-4.381,2.4-4.478,2.386l.078-.407c.021,0,2.159.365,4.073-2.232l2.491-3.1c.072-.087.444-.507.817-.364.321.123.453.585.418,1.456-.022.347-.544,8.41-1.647,10.915a1.607,1.607,0,0,1-.859.839l.015.253a2.6,2.6,0,0,1,.685,2.417.611.611,0,0,0,.192.522c.423.388,1.273,1.468.041,3.119a5.286,5.286,0,0,0-.768,1.621,1.415,1.415,0,0,1-.6.947A1.332,1.332,0,0,1,144.43,258.328Z" transform="translate(-117.018 -193.941)" fill="#4c3122"/>
    <path id="Tracé_392" data-name="Tracé 392" d="M109.28,265.027l-3.067-3.5a7.067,7.067,0,0,1-1.28-1.985,6.227,6.227,0,0,1-.358-1.131,3.938,3.938,0,0,1-.081-.592,4.885,4.885,0,0,0-.073-.565c-.163-.752-.357-1.5-.53-2.265a10.8,10.8,0,0,1-.147-1.162c-.036-.387-.068-.774-.093-1.162s-.021-.779-.054-1.162a7.46,7.46,0,0,0-.2-1.141c-.088-.378-.182-.754-.294-1.125-.056-.185-.116-.37-.186-.55a1.464,1.464,0,0,0-.285-.5,1.468,1.468,0,0,1,.3.5c.074.179.138.363.2.548.12.37.223.744.319,1.12a7.552,7.552,0,0,1,.223,1.146c.022.193.032.39.04.583s.024.386.04.579c.033.386.074.771.118,1.156a10.7,10.7,0,0,0,.17,1.143c.186.746.4,1.5.581,2.257a5.113,5.113,0,0,1,.09.587,3.69,3.69,0,0,0,.089.559,5.968,5.968,0,0,0,.367,1.078,6.775,6.775,0,0,0,1.274,1.881l3.144,3.435Z" transform="translate(-91.739 -203.594)" fill="#4c3122"/>
    <path id="Tracé_393" data-name="Tracé 393" d="M108.014,200.839c.169.6.033-1.313.094-1.771a2.817,2.817,0,0,1,.183-.658,2.192,2.192,0,0,0,.1-.549,26.307,26.307,0,0,1,.64-3.467l-.458-.584a31.61,31.61,0,0,0-.567,3.936s-.048.4-.117.718a3.274,3.274,0,0,0-.075.7A6.5,6.5,0,0,0,108.014,200.839Z" transform="translate(-95.845 -160.47)" fill="#4c3122"/>
    <path id="Tracé_394" data-name="Tracé 394" d="M113.969,246.925c.084.372.15.736.216,1.1s.139.719.217,1.071a7.41,7.41,0,0,0,.3,1.031,2.793,2.793,0,0,0,.542.932,1.739,1.739,0,0,1-.833-.792,3.713,3.713,0,0,1-.409-1.08,5.568,5.568,0,0,1-.134-1.131A4.6,4.6,0,0,1,113.969,246.925Z" transform="translate(-100.644 -202.596)" fill="#4c3122"/>
    <path id="Tracé_395" data-name="Tracé 395" d="M145.567,338.38a3.39,3.39,0,0,1-.5-.038c-.025,0-1.8-.332-2.839-.393a3.327,3.327,0,0,1-.84-.152c-.531-.174-1.2-.486-1.374-.987l.391-.136c.091.262.5.528,1.112.73a2.931,2.931,0,0,0,.735.132c1.068.062,2.81.384,2.883.4a2.479,2.479,0,0,0,1.957-.471l.279.306A2.793,2.793,0,0,1,145.567,338.38Z" transform="translate(-121.383 -273.778)" fill="#4c3122"/>
    <path id="Tracé_396" data-name="Tracé 396" d="M144.529,318.684c-.054-.262-.108-.552-.134-.794a.869.869,0,0,0-.283-.557,1.7,1.7,0,0,0-.7-.393.711.711,0,0,0-.832.9l.006.022a.683.683,0,0,0,.341.414c.294.153.809.428,1.211.683A.262.262,0,0,0,144.529,318.684Z" transform="translate(-123.392 -258.111)" fill="#4c3122"/>
    <path id="Tracé_397" data-name="Tracé 397" d="M128.659,267.876a5.5,5.5,0,0,1-.522-.236.643.643,0,0,0-.254-.084c-.193-.017-.479.034-.517.47,0,0,0,.75.538.719a.629.629,0,0,0,.412-.2,3.739,3.739,0,0,1,.385-.354A.183.183,0,0,0,128.659,267.876Z" transform="translate(-111.353 -218.957)" fill="#4c3122"/>
    <path id="Tracé_398" data-name="Tracé 398" d="M62.678,285.067a8.574,8.574,0,0,1,3.323.95,7.648,7.648,0,0,1,2.659,2.267l.245.365c.084.127.151.228.239.344.167.225.345.444.53.657a11.513,11.513,0,0,0,1.193,1.2,7.565,7.565,0,0,0,2.946,1.646,5.942,5.942,0,0,1-1.665-.479,7.664,7.664,0,0,1-1.486-.917,10.087,10.087,0,0,1-1.282-1.189c-.2-.214-.382-.442-.561-.674-.087-.112-.18-.249-.256-.36l-.238-.348a3.35,3.35,0,0,0-.256-.331c-.089-.107-.175-.218-.267-.322l-.295-.3-.147-.149-.158-.137-.317-.276-.338-.251-.17-.125-.178-.113c-.119-.075-.234-.156-.356-.227a10.824,10.824,0,0,0-1.528-.737A9.866,9.866,0,0,0,62.678,285.067Z" transform="translate(-60.048 -232.847)" fill="#4c3023"/>
    <path id="Tracé_399" data-name="Tracé 399" d="M53.013,300.4c.082-.042.144-.07.215-.1s.137-.057.206-.085c.137-.052.275-.1.414-.145a7.444,7.444,0,0,1,.845-.211,6.781,6.781,0,0,1,1.731-.1,5.963,5.963,0,0,1,1.688.373,6.207,6.207,0,0,1,2.707,2.02c.176.222.326.463.477.688s.309.453.471.674a12.519,12.519,0,0,0,1.047,1.267,4.617,4.617,0,0,0,1.3,1,4.665,4.665,0,0,1-1.366-.929,12.708,12.708,0,0,1-1.136-1.215c-.177-.214-.35-.431-.517-.652s-.326-.442-.505-.642a5.806,5.806,0,0,0-2.638-1.734,5.41,5.41,0,0,0-1.549-.244,6.141,6.141,0,0,0-1.555.186,6.708,6.708,0,0,0-.746.236c-.122.045-.241.1-.358.15-.058.027-.116.054-.172.083s-.116.061-.155.084l-.276.216-.291-.3-.315-.421Z" transform="translate(-51.998 -244.483)" fill="#4c3023"/>
    <path id="Tracé_400" data-name="Tracé 400" d="M90.791,378.471c.035-.033.068-.068.1-.1l-.171-.432-.023.025,0,.035a2.65,2.65,0,0,1-.046.59Z" transform="translate(-82.238 -306.505)" fill="#8e7f7b"/>
    <path id="Tracé_401" data-name="Tracé 401" d="M86.6,374.918c0,.055,0,.111-.007.166l.016.034c.111-.08.22-.161.321-.244l.3-.265c.054-.05.1-.1.156-.156l-.22-.556A4.793,4.793,0,0,1,86.6,374.918Z" transform="translate(-79.016 -303.301)" fill="#8e7f7b"/>
    <path id="Tracé_402" data-name="Tracé 402" d="M81.714,352.389c.065-.232.115-.469.157-.707l-.223-.579c.025.272.024.543.043.814a5.5,5.5,0,0,1-.006.569C81.694,352.454,81.7,352.422,81.714,352.389Z" transform="translate(-75.093 -285.221)" fill="#8e7f7b"/>
    <path id="Tracé_403" data-name="Tracé 403" d="M80.549,356.985c-.023.082-.048.162-.074.243l.081.374a6.08,6.08,0,0,0,.611-.983,4.926,4.926,0,0,0,.215-.522l-.336-.872c-.027.16-.058.319-.095.477a7.612,7.612,0,0,1-.358,1.111C80.579,356.871,80.565,356.929,80.549,356.985Z" transform="translate(-74.163 -288.492)" fill="#8e7f7b"/>
    <path id="Tracé_404" data-name="Tracé 404" d="M87.995,378.515l-.255.248c-.125.114-.252.218-.38.319l.17.362c.112-.079.222-.159.325-.241A2.779,2.779,0,0,0,87.995,378.515Z" transform="translate(-79.623 -306.963)" fill="#8e7f7b"/>
    <path id="Tracé_405" data-name="Tracé 405" d="M81.283,363.556l.146.488.265.512c.22-.155.439-.312.639-.479l.242-.215a11.964,11.964,0,0,1-.369-1.555,7.187,7.187,0,0,1-.729,1.034C81.415,363.416,81.348,363.485,81.283,363.556Z" transform="translate(-74.804 -294.109)" fill="#8e7f7b"/>
    <path id="Tracé_406" data-name="Tracé 406" d="M84.632,360.854c.057-.087.109-.178.162-.268l-.031-.08C84.723,360.623,84.68,360.74,84.632,360.854Z" transform="translate(-77.46 -292.679)" fill="#8e7f7b"/>
    <path id="Tracé_407" data-name="Tracé 407" d="M84.724,371.843c.02.107.039.214.053.322.006.044.007.089.011.133l.16.339c.03-.037.062-.073.091-.112a6.339,6.339,0,0,0-.048-.883c.029.174.065.346.088.522a2.544,2.544,0,0,1,.022.266v.01a4.562,4.562,0,0,0,.435-.736c.021-.044.04-.09.059-.135a1.4,1.4,0,0,1-.179-.321l-.152.147C85.087,371.556,84.906,371.7,84.724,371.843Z" transform="translate(-77.533 -301.201)" fill="#8e7f7b"/>
    <path id="Tracé_408" data-name="Tracé 408" d="M57.193,309.491l.992,2.556.4.879.483.948,1.073,1.782.444.794.666,1.387.072.222c.063-.133.126-.267.181-.4a5.575,5.575,0,0,0,.14-1.2c-.007-.3.013-.6-.006-.9,0-.021,0-.041,0-.061l-.517-1.344c-1.387-2.219-2.257-7.746-2.257-7.746a3.167,3.167,0,0,0-2.377.706l.2.761Z" transform="translate(-55.135 -249.757)" fill="#8e7f7b"/>
    <path id="Tracé_409" data-name="Tracé 409" d="M84.076,374.258l.143.246c0-.113-.012-.226-.022-.339Z" transform="translate(-77.019 -303.513)" fill="#8e7f7b"/>
    <path id="Tracé_410" data-name="Tracé 410" d="M90.265,383.265c.036-.047.067-.1.1-.146l-.188-.475-.027.027c-.194.177-.39.33-.59.483l-.077.063.281.482a5.4,5.4,0,0,1,.414-.366Z" transform="translate(-81.307 -310.237)" fill="#8e7f7b"/>
    <path id="Tracé_411" data-name="Tracé 411" d="M86.541,376.891v.01l.007-.011-.009-.017C86.54,376.879,86.541,376.885,86.541,376.891Z" transform="translate(-78.973 -305.66)" fill="#4c3122"/>
    <path id="Tracé_412" data-name="Tracé 412" d="M86.583,378.434c.076-.055.148-.111.221-.167-.034-.069-.068-.138-.1-.206-.036.053-.071.107-.109.159C86.592,378.292,86.589,378.363,86.583,378.434Z" transform="translate(-79.007 -306.603)" fill="#4c3122"/>
    <path id="Tracé_413" data-name="Tracé 413" d="M85.855,379.672c.008-.041.017-.081.024-.123l-.052.067Z" transform="translate(-78.408 -307.783)" fill="#4c3122"/>
    <path id="Tracé_414" data-name="Tracé 414" d="M84.777,374.317a2.549,2.549,0,0,1,.022.266l.019.263c0,.023,0,.047,0,.07l.011.021c.073-.084.144-.17.212-.259,0-.078,0-.157,0-.235-.062-.116-.122-.227-.175-.321-.03-.054-.064-.107-.1-.159l-.039.031C84.744,374.1,84.763,374.208,84.777,374.317Z" transform="translate(-77.533 -303.352)" fill="#4c3122"/>
    <path id="Tracé_415" data-name="Tracé 415" d="M87.045,380.466c-.11.092-.22.182-.332.268.06.136.111.26.149.366q.178-.122.348-.25C87.163,380.729,87.105,380.6,87.045,380.466Z" transform="translate(-79.11 -308.51)" fill="#4c3122"/>
    <path id="Tracé_416" data-name="Tracé 416" d="M50.864,197.109a.663.663,0,0,1,.2.335,32.118,32.118,0,0,0,2.592,6.9l1.436,2.382.772,1.616a2.281,2.281,0,0,1,.155.45q.139-.266.256-.543c-.012-.028-.024-.057-.037-.085l-.781-1.633-1.439-2.388a31.653,31.653,0,0,1-2.551-6.794,1.077,1.077,0,0,0-.326-.545,2.12,2.12,0,0,1-.741-1.961,1.09,1.09,0,0,1,.2-.477,4,4,0,0,0,.523-1.284,1.313,1.313,0,0,0,.016-.549,12.223,12.223,0,0,1-.045-3.817,3.86,3.86,0,0,1,.163-.636,7.879,7.879,0,0,0,.071-2.348,15.6,15.6,0,0,1,.884-6.113,7.431,7.431,0,0,1,1.033-1.955l.016-.022a17.017,17.017,0,0,1,5.481-4.772,5.3,5.3,0,0,0,1.227-.973c1.02-1.095,3.044-3.31,3.064-3.333l-.306-.279c-.02.022-2.042,2.236-3.061,3.329a4.882,4.882,0,0,1-1.131.9,17.45,17.45,0,0,0-5.616,4.9c-.178.217-2.2,2.817-2,8.352a7.768,7.768,0,0,1-.052,2.189,4.237,4.237,0,0,0-.18.7,12.649,12.649,0,0,0,.047,3.95.9.9,0,0,1-.01.377,3.712,3.712,0,0,1-.456,1.14,1.51,1.51,0,0,0-.271.659A2.549,2.549,0,0,0,50.864,197.109Z" transform="translate(-49.964 -140.224)" fill="#4c3122"/>
    <path id="Tracé_417" data-name="Tracé 417" d="M83.322,374.378c.022.035.044.07.064.106.084.152.161.3.235.435a5.455,5.455,0,0,0-.023-.753c-.091.071-.182.142-.275.211Z" transform="translate(-76.421 -303.513)" fill="#4c3122"/>
    <path id="Tracé_418" data-name="Tracé 418" d="M79.862,363.948l.007-.007c.112-.136.217-.278.318-.424q-.028-.132-.053-.271a2.7,2.7,0,0,0-.07-.288c-.013.053-.026.107-.041.16a6.218,6.218,0,0,1-.212.62C79.827,363.806,79.844,363.876,79.862,363.948Z" transform="translate(-73.637 -294.624)" fill="#4c3122"/>
    <path id="Tracé_419" data-name="Tracé 419" d="M80.862,368.8c.113-.078.226-.158.338-.239a3.735,3.735,0,0,1-.41-1.063c-.107.124-.216.246-.33.362A3.55,3.55,0,0,0,80.862,368.8Z" transform="translate(-74.151 -298.223)" fill="#4c3122"/>
    <path id="Tracé_420" data-name="Tracé 420" d="M118.215,374.945a1.42,1.42,0,0,0,.063.251l.1.291.036-.027.3-.264-.048-.136a.982.982,0,0,1-.056-.365c0-.02,0-.039,0-.059l-.148.114Z" transform="translate(-104.095 -303.885)" fill="#4c3122"/>
    <path id="Tracé_421" data-name="Tracé 421" d="M118.124,369.434l.061-.043q.171-.118.339-.239a4.586,4.586,0,0,0-.179-.919,3.869,3.869,0,0,1-.224,1.055C118.124,369.336,118.123,369.385,118.124,369.434Z" transform="translate(-104.021 -298.807)" fill="#4c3122"/>
    <path id="Tracé_422" data-name="Tracé 422" d="M119.534,379.069l.138.4c.052-.05.1-.1.153-.151s.11-.13.164-.195l-.125-.356-.2.2C119.62,379,119.577,379.032,119.534,379.069Z" transform="translate(-105.141 -307.159)" fill="#4c3122"/>
    <path id="Tracé_423" data-name="Tracé 423" d="M106.692,345.079a2.371,2.371,0,0,1,.586,1.467,1.013,1.013,0,0,0,.221.726,7.8,7.8,0,0,1,1.084,1.844q.153-.178.293-.367a8.367,8.367,0,0,0-1.053-1.734.6.6,0,0,1-.134-.429,2.738,2.738,0,0,0-.659-1.744l-.156-.279-.361.2.163.291Z" transform="translate(-94.815 -280.034)" fill="#4c3122"/>
    <path id="Tracé_424" data-name="Tracé 424" d="M117.2,367.182a3.981,3.981,0,0,0,.179-.96c-.023-.066-.047-.131-.072-.2q-.142.2-.3.389A4.534,4.534,0,0,1,117.2,367.182Z" transform="translate(-103.142 -297.058)" fill="#4c3122"/>
    <path id="Tracé_425" data-name="Tracé 425" d="M122.438,343.973a5.442,5.442,0,0,1-.363,1.515l.065,0a1.231,1.231,0,0,1,.692.346l.041.036a.55.55,0,0,0,.452.108,9.084,9.084,0,0,0-.089-1.609c.041.271.094.54.125.813a3.911,3.911,0,0,1,.028.412l.02.362a.635.635,0,0,0,.244-.148,3.651,3.651,0,0,0,.479-.6,6.97,6.97,0,0,0,.3-3.373,11.114,11.114,0,0,1-.865.791,3.278,3.278,0,0,1-.894.384,2.362,2.362,0,0,1-.092.788Z" transform="translate(-107.157 -277.877)" fill="#4c3122"/>
    <path id="Tracé_426" data-name="Tracé 426" d="M133.64,337.45a5.016,5.016,0,0,1,.033.526c0,.173.02.347.026.524a5.214,5.214,0,0,1-.121,1.21,12.883,12.883,0,0,0,1.007-3.939l-.193-.127-.662,1.033a.769.769,0,0,1-.166.233C133.594,337.089,133.621,337.269,133.64,337.45Z" transform="translate(-116.27 -272.961)" fill="#4c3122"/>
    <path id="Tracé_427" data-name="Tracé 427" d="M118.417,359.731l-.019.027.022-.006C118.419,359.745,118.418,359.738,118.417,359.731Z" transform="translate(-104.24 -292.065)" fill="#4c3122"/>
    <path id="Tracé_428" data-name="Tracé 428" d="M118.509,354.325a1.852,1.852,0,0,1,.545-.083c.009-.019.019-.037.028-.055a4.81,4.81,0,0,0,.386-1.3l-.084.094-.263.366-.258.44-.359.511Z" transform="translate(-104.325 -286.638)" fill="#4c3122"/>
    <path id="Tracé_429" data-name="Tracé 429" d="M123.6,348.841c.076-.088.16-.181.26-.283a.809.809,0,0,0,.234-.572v-.465h-.414v.465a.4.4,0,0,1-.015.1A5.206,5.206,0,0,1,123.6,348.841Z" transform="translate(-108.368 -282.38)" fill="#4c3023"/>
    <path id="Tracé_430" data-name="Tracé 430" d="M116.16,353.291c-.013-.134-.028-.268-.045-.4.019.124.041.248.062.372.1-.174.237-.371.4-.585a4.28,4.28,0,0,0,.352-.576,1.2,1.2,0,0,1,.076-.122,5.674,5.674,0,0,0,.132-.784,3.6,3.6,0,0,0-.575.715,3.921,3.921,0,0,1-.317.52,3.252,3.252,0,0,0-.737,1.412l.413.028A1.576,1.576,0,0,1,116.16,353.291Z" transform="translate(-101.946 -285.295)" fill="#4c3023"/>
    <path id="Tracé_431" data-name="Tracé 431" d="M133.421,336.8a7.554,7.554,0,0,0,.976-1.425l-.369-.187a7.5,7.5,0,0,1-.69,1.062C133.368,336.438,133.395,336.621,133.421,336.8Z" transform="translate(-116.09 -272.603)" fill="#4c3122"/>
    <path id="Tracé_432" data-name="Tracé 432" d="M109.422,345.4c.363.021,1.232.2,1.588.271.049.01.1.018.147.023,0-.139,0-.279,0-.419l-.06-.009a15.508,15.508,0,0,0-1.665-.279l-1.5.029.008.414Z" transform="translate(-95.936 -280.368)" fill="#4c3122"/>
    <path id="Tracé_433" data-name="Tracé 433" d="M123.785,341.714c0,.1.009.208.015.313.039,0,.077.006.115.006a1.415,1.415,0,0,0,.335-.039,3.282,3.282,0,0,0,1.566-1.067c-.017-.191-.039-.381-.063-.57a3.263,3.263,0,0,1-1.6,1.235,1.049,1.049,0,0,1-.372.019C123.782,341.645,123.784,341.68,123.785,341.714Z" transform="translate(-108.51 -276.699)" fill="#4c3122"/>
    <path id="Tracé_434" data-name="Tracé 434" d="M158.811,358.547c0,.122,0,.244-.01.366l.295-.431a3.844,3.844,0,0,0,.069-.563c0-.089,0-.178,0-.267l-.373.542Z" transform="translate(-136.277 -290.416)" fill="#4c3122"/>
    <path id="Tracé_435" data-name="Tracé 435" d="M153.108,362.589a5.1,5.1,0,0,1-.281.578c.325-.491.7-1.05,1.106-1.642a5.355,5.355,0,0,0,.069-.835c-.218.317-.435.635-.646.947A4.316,4.316,0,0,1,153.108,362.589Z" transform="translate(-131.547 -292.825)" fill="#4c3122"/>
    <path id="Tracé_436" data-name="Tracé 436" d="M160.944,345.744c0,.121-.007.242-.018.362l.31-.45c-.007-.056-.012-.112-.019-.167.008.053.017.105.026.158.743-1.077,1.511-2.176,2.167-3.107l-.338-.238c-.216.306-1.133,1.608-2.147,3.077C160.933,345.5,160.942,345.621,160.944,345.744Z" transform="translate(-137.969 -278.24)" fill="#4c3122"/>
  </g>
  <g id="Groupe_245" data-name="Groupe 245" transform="translate(68.555 21.193)">
    <path id="Tracé_437" data-name="Tracé 437" d="M362.288,140.9q-.266.031-.514.046c-.166.011-.337.015-.514.015q-.764,0-1.658-.031t-2.056-.031q-.3-.4-.614-.765a3.541,3.541,0,0,0-.729-.643,3.651,3.651,0,0,0-.979-.444,4.536,4.536,0,0,0-1.293-.168,2.141,2.141,0,0,0-.879.184,3.934,3.934,0,0,0-.8.475,5.884,5.884,0,0,0-.713.643,7.175,7.175,0,0,0-.6.719,3.259,3.259,0,0,0-.431.842.958.958,0,0,1-.63.628,7.434,7.434,0,0,1-.216,1.791,8.7,8.7,0,0,0-.216,2.067,7.465,7.465,0,0,0,.249,1.9,8.815,8.815,0,0,0,.68,1.791,6.877,6.877,0,0,0,1.028,1.5,5.293,5.293,0,0,0,1.294,1.056,3.556,3.556,0,0,0,1.078.4,10.243,10.243,0,0,0,1.476.214c.066,0,.1-.041.1-.123s-.033-.123-.1-.123a4.708,4.708,0,0,0,1.111-.628,7.2,7.2,0,0,0,.912-.872c.11.02.166.1.166.245a.683.683,0,0,1-.033.2.671.671,0,0,0-.033.2c0,.041.005.066.017.076a.061.061,0,0,1,.017.046,1.1,1.1,0,0,1,.381-.229.531.531,0,0,0,.315-.291l-.166-.092c-.089,0-.138.036-.149.107s-.094.107-.249.107a.8.8,0,0,0-.066-.367.5.5,0,0,1-.066-.153q0-.153.232-.153a.4.4,0,0,1,.116.015.386.386,0,0,0,.116.015h.066q-.033,0-.133-.092a1.643,1.643,0,0,1,.73-.122c.177,0,.353.005.531.015s.353.015.53.015a1.892,1.892,0,0,0,.4-.031.058.058,0,0,1-.017.046.06.06,0,0,0-.017.046.122.122,0,0,0,.1.123.669.669,0,0,0,.2.031,2.513,2.513,0,0,0-.1.26.612.612,0,0,0-.033.168c0,.082.055.122.166.122h.149a.546.546,0,0,0,.216-.061.286.286,0,0,1-.05.184.2.2,0,0,0-.05.123c0,.041.033.061.1.061a.425.425,0,0,1-.4.276.526.526,0,0,1,.066.153.806.806,0,0,1-.116.367,2.534,2.534,0,0,1-.282.413,4.081,4.081,0,0,1-.365.383,1.556,1.556,0,0,1-.4.276,1.679,1.679,0,0,0,.265.291.382.382,0,0,1,.133.23.68.68,0,0,1-.249.505,4.271,4.271,0,0,1-.58.444q-.332.215-.663.413a3.268,3.268,0,0,0-.531.383,1.308,1.308,0,0,0-.8.184,1.916,1.916,0,0,1-.663.306.469.469,0,0,0-.249-.061,2.008,2.008,0,0,1-.265-.015.537.537,0,0,1-.216-.077.231.231,0,0,1-.1-.214.651.651,0,0,1-.4.214q-.166,0-.265-.214-.1.061-.1.122a.123.123,0,0,0,.017.061.2.2,0,0,1,.017.092,1.256,1.256,0,0,1-.017.138c-.011.072-.061.107-.149.107a.233.233,0,0,1-.166-.061c-.045-.041-.078-.061-.1-.061s-.033.072-.033.214a1.39,1.39,0,0,1-.5-.077,1.3,1.3,0,0,0-.464-.077.607.607,0,0,0-.133.015.564.564,0,0,1-.133.015,2.353,2.353,0,0,1-.647-.4,1.565,1.565,0,0,0-.713-.337v-.4q-.1.123-.531.122.132.246.265.276-.1.123-.166.122c-.066,0-.127-.046-.182-.138a.608.608,0,0,1-.083-.321.4.4,0,0,1,.033-.184.652.652,0,0,1-.4.122c0-.2-.033-.306-.1-.306a.086.086,0,0,0-.033.061q-.3-.122-.3-.582A.648.648,0,0,1,350,154.6a.652.652,0,0,0,.017-.138.271.271,0,0,0-.116.153,2.149,2.149,0,0,0-.083.245q-.033.123-.066.23c-.022.072-.055.107-.1.107-.088,0-.133-.02-.133-.061a.256.256,0,0,1,.033-.123.259.259,0,0,0,.033-.122,1.012,1.012,0,0,0-.083-.306c-.055-.143-.122-.291-.2-.444a3.525,3.525,0,0,0-.232-.4c-.078-.112-.127-.168-.149-.168q-.133,0-.166.061c-.022.041-.045.087-.066.138a.589.589,0,0,1-.083.138.276.276,0,0,1-.216.061c0-.143-.039-.219-.116-.23s-.171-.025-.282-.046a4.876,4.876,0,0,0-.481-.72q-.282-.352-.547-.719a4.476,4.476,0,0,1-.448-.766,1.956,1.956,0,0,1-.182-.827,1.184,1.184,0,0,1,.033-.306,1.306,1.306,0,0,1-.5-.6,3.785,3.785,0,0,1-.249-.842q-.083-.459-.149-.919a5.888,5.888,0,0,0-.2-.888,20.739,20.739,0,0,1,.348-4.072,12.787,12.787,0,0,1,1.144-3.276.453.453,0,0,1,.116.077.213.213,0,0,0,.149.046.2.2,0,0,0-.017-.092A.2.2,0,0,1,347,139.7a.692.692,0,0,1,.149-.474,2.275,2.275,0,0,1,.331-.306,3.221,3.221,0,0,0,.348-.306.647.647,0,0,0,.166-.474.679.679,0,0,1,.4.367,1.773,1.773,0,0,0,.348-.276.851.851,0,0,1,.448-.214.682.682,0,0,1-.1-.306.3.3,0,0,1,.083-.23.712.712,0,0,0,.149-.321q-.1,0-.1.092a.321.321,0,0,1-.033.153c-.111-.041-.166-.1-.166-.184a.978.978,0,0,1,.448-.674,5.781,5.781,0,0,1,1.144-.7,9.212,9.212,0,0,1,1.509-.566,6.658,6.658,0,0,1,1.509-.26.121.121,0,0,1-.066.123c-.044.021-.066.072-.066.153a1.907,1.907,0,0,0,.813-.138,1.132,1.132,0,0,1,.381-.138q.265,0,.332.153a.508.508,0,0,0,.232.245.438.438,0,0,0,.232-.168.251.251,0,0,1,.232-.107q.166,0,.182.138c.011.092.038.138.083.138q.166,0,.216-.076c.033-.051.1-.077.215-.077a.464.464,0,0,1,.3.107,1.029,1.029,0,0,0,.3.168,5.4,5.4,0,0,1,1.89,1.1q.762.7,1.625,1.378a4.346,4.346,0,0,0,.448.719l.5.643a6.543,6.543,0,0,1,.464.689A3.609,3.609,0,0,1,362.288,140.9ZM348.26,153.45a.059.059,0,0,1,.017-.046.06.06,0,0,0,.017-.046c0-.081-.056-.153-.166-.214a.6.6,0,0,0-.166-.031.106.106,0,0,0,.1.061c.044,0,.066.051.066.153,0,.143.022.214.066.214.022,0,.033-.01.033-.031A.086.086,0,0,1,348.26,153.45Zm8.357-17.913a.06.06,0,0,1-.017.046.059.059,0,0,0-.016.046.174.174,0,0,0,.166.184.789.789,0,0,1,.265.092.464.464,0,0,0-.066-.291C356.9,135.563,356.794,135.538,356.617,135.538Zm1.492,19.78a.615.615,0,0,1-.182.031.119.119,0,0,0-.116.092.634.634,0,0,1,.182-.031A.119.119,0,0,0,358.109,155.318Zm-.133-.367-.133.122.232-.214Zm1.592-1.255c0-.041.022-.061.066-.061s.066.041.066.122q0,.061-.017.076a.06.06,0,0,0-.017.046l-.033.031C359.59,153.909,359.569,153.838,359.569,153.7Zm.564-2.725q0-.092.1-.092a.393.393,0,0,0,.166-.031q0,.092-.1.092A.4.4,0,0,0,360.132,150.97Zm.929,1.378q.033-.092.066-.092a.139.139,0,0,1,.083.046.166.166,0,0,0,.116.046c-.044.082-.089.123-.133.123C361.1,152.47,361.061,152.43,361.061,152.348Z" transform="translate(-345.275 -134.895)" fill="url(#radial-gradient)"/>
    <path id="Tracé_438" data-name="Tracé 438" d="M450.184,152.975c.044,0,.066-.01.066-.031q0-.061-.166-.168a.625.625,0,0,1-.2-.168,3.382,3.382,0,0,1,1.028-.122q.331,0,.663.015t.663.015a2.944,2.944,0,0,0,.5-.031q.1.092.1.153a.147.147,0,0,1-.1.138.261.261,0,0,0-.133.2.938.938,0,0,1,.265-.031.558.558,0,0,1,.332.077.368.368,0,0,0,.232.077c.044,0,.066-.01.066-.031q0-.092-.1-.092a.342.342,0,0,1,.232-.061.855.855,0,0,1,.149.015.979.979,0,0,0,.182.015,1.5,1.5,0,0,0,.232-.031c.11-.02.166-.061.166-.123,0-.081-.033-.122-.1-.122a.086.086,0,0,0-.033.061q-.133-.03-.133-.092c0-.041.066-.081.2-.123a1.255,1.255,0,0,1,.365-.061.733.733,0,0,1,.315.046.709.709,0,0,1,.133.092.64.64,0,0,1,.083.092c.022.031.077.046.166.046.11,0,.166-.041.166-.123s.055-.122.166-.122q.464,0,.746.015t.581.015h.315a2.985,2.985,0,0,0,.381-.031q0,.95-.033,1.5t-.033,1.164v.49a3.051,3.051,0,0,0,.066.582.537.537,0,0,1-.282.122,2.3,2.3,0,0,1-.381.031c-.155,0-.321,0-.5-.015s-.321-.015-.431-.015a.409.409,0,0,1,.066-.245.409.409,0,0,0,.066-.245.67.67,0,0,1-.431.168q-.266.016-.265.321a.131.131,0,0,1-.1-.138.891.891,0,0,0-.033-.23c-.066,0-.105.021-.116.061a.524.524,0,0,0-.016.138.158.158,0,0,1-.05.122.343.343,0,0,1-.215.046q-.4,0-.4-.184c0-.041.044-.1.133-.184a.358.358,0,0,0-.265.368.339.339,0,0,1-.216-.184l-.1-.245a.731.731,0,0,0-.133-.214.419.419,0,0,0-.315-.092.408.408,0,0,0-.265.061.482.482,0,0,0-.1.123l-.066.122c-.023.041-.078.061-.166.061v-.367c-.089.02-.133.092-.133.214,0,.1.044.153.133.153-.066.082-.111.123-.133.123-.066,0-.128-.046-.183-.138a.272.272,0,0,0-.249-.138.07.07,0,0,0-.05.015.072.072,0,0,1-.05.015.234.234,0,0,0,.149.138c.055.011.083.036.083.077a.306.306,0,0,1-.066.122.231.231,0,0,1-.2.092.179.179,0,0,1-.149-.061.148.148,0,0,0-.116-.061q-.033,0-.464.092a3.844,3.844,0,0,1-.8.092q-.929,0-1.758-.046a14.1,14.1,0,0,1-1.691-.2c0-.142.044-.224.133-.245a.117.117,0,0,1-.033-.092c0-.02-.012-.031-.033-.031q-.067,0-.133.138a.237.237,0,0,1-.232.138.2.2,0,0,1-.182-.077c-.033-.051-.138-.076-.315-.076a9.318,9.318,0,0,1-2.437-1.929,5.9,5.9,0,0,1-1.343-2.939V139.9a6.348,6.348,0,0,1,.282-1.087q.182-.506.382-1.026a.489.489,0,0,0,.2.031,1.412,1.412,0,0,0,.381-.077q.249-.076.249-.138,0-.306-.4-.306.232-.337.431-.658a1.168,1.168,0,0,1,.63-.474.24.24,0,0,1,.066.184c0,.1-.078.2-.232.291a1.242,1.242,0,0,1-.5.169c.221.082.332.184.332.306,0,.082-.066.184-.2.306a.733.733,0,0,0,.564-.352,1.249,1.249,0,0,0,.166-.628,1.762,1.762,0,0,0-.017-.26q-.017-.107-.05-.26a.834.834,0,0,0,.282-.168.5.5,0,0,1,.348-.107.247.247,0,0,1,.1.015.243.243,0,0,0,.1.015q.2,0,.2-.123a.2.2,0,0,0-.017-.092.2.2,0,0,1-.017-.092c0-.041.033-.061.1-.061a2.019,2.019,0,0,1,.68-.4,5.924,5.924,0,0,1,.862-.245q.447-.092.879-.138t.8-.107q1.923.062,3.515.031t3.117.092a2.345,2.345,0,0,1,.664-.107q.4-.015.8-.015a3.717,3.717,0,0,1,.133.75q.033.413.033.842,0,.459-.033.934t-.033.9a2.028,2.028,0,0,0,.017.276,2.1,2.1,0,0,1,.017.276q-.431,0-.846.015t-.879.015a6.917,6.917,0,0,1-.945-.061,3.2,3.2,0,0,1-.813-.214.685.685,0,0,0-.315.168q-.05.077-.58.077-.5,0-.995.015t-.995.015q-.531,0-1.028-.031a7.187,7.187,0,0,1-.962-.122,2.316,2.316,0,0,0-1.84,1.1,4.72,4.72,0,0,0-.514,2.327q0,.245.017.521t.05.551h5.406v3.858h-2.156a.172.172,0,0,0,.066-.123.954.954,0,0,0-.066-.245q-.133,0-.133.138v.23c-.155,0-.293,0-.414-.015s-.249-.015-.381-.015q-.5,0-1.011.015t-1.177.015q-.067.521-.116,1.209t-.05,1.393a7.005,7.005,0,0,0,.166,1.577,1.66,1.66,0,0,0,.663,1.056c0,.184-.044.281-.133.291s-.133.077-.133.2a1.122,1.122,0,0,1,.481.169.734.734,0,0,0,.382.138q.2,0,.232-.306c.088.021.127.067.116.138a.533.533,0,0,0,.017.23q.066-.245.6-.245a.547.547,0,0,1,.348.077.313.313,0,0,1,.1.184c.011.072.022.133.033.184s.061.076.149.076A.2.2,0,0,0,450.184,152.975Zm-6.9-11.452a.359.359,0,0,0-.265-.368A.359.359,0,0,0,443.286,141.523Zm2.288,13.32c.044-.061.088-.117.133-.168a.251.251,0,0,0,.066-.168.34.34,0,0,0-.2-.276.7.7,0,0,0-.1.153.567.567,0,0,0-.066.276Q445.408,154.842,445.574,154.842Zm0-19.045q0,.368.265.368a.118.118,0,0,1-.033-.092q0-.153.249-.184t.249-.092c0-.02-.056-.061-.166-.122a.446.446,0,0,1-.331.214A.331.331,0,0,1,445.574,135.8Zm1.094,19.413a.2.2,0,0,1-.133-.031.1.1,0,0,0-.066-.031c-.045,0-.066.02-.066.061,0,.082.044.123.133.123C446.6,155.332,446.646,155.292,446.669,155.21Zm2.156.643a.269.269,0,0,0-.232-.092c-.111,0-.166.051-.166.153s.066.153.2.153S448.824,156,448.824,155.853Zm.265-12.83c0-.061-.045-.092-.133-.092s-.133.031-.133.092.021.092.066.092a.143.143,0,0,0,.1-.031A.375.375,0,0,1,449.09,143.023Zm2.421,13.075c0,.082.088.123.265.123h.3a.242.242,0,0,0-.232-.123Zm1.89.123-.1-.092.1.092a.493.493,0,0,0,.133.092H453.5Q453.434,156.312,453.4,156.22Z" transform="translate(-422.891 -134.419)" fill="url(#radial-gradient-2)"/>
    <path id="Tracé_439" data-name="Tracé 439" d="M531.8,144.727c0-.061.022-.092.066-.092s.066.021.066.061.044.061.133.061c.11,0,.154-.056.133-.168s.022-.168.132-.168a.073.073,0,0,1,.05.015.135.135,0,0,0,.083.015l.033-.061a.257.257,0,0,0-.1-.184c-.066-.061-.1-.112-.1-.153s.055-.071.166-.092c-.022-.041-.044-.061-.066-.061-.044,0-.066.011-.066.031s-.011.031-.033.031a.316.316,0,0,1-.249-.168q-.116-.168-.182-.168c-.022,0-.045.031-.066.092a.4.4,0,0,1-.132-.306.854.854,0,0,1,.05-.291c.033-.092.061-.178.083-.26a.494.494,0,0,0,.2.031.443.443,0,0,0,.464-.245,1.436,1.436,0,0,1,.265-.429l-.4-.367a.5.5,0,0,0-.232.276,1.644,1.644,0,0,1-.166.337c-.089,0-.133-.041-.133-.123a.074.074,0,0,1,.066-.076.074.074,0,0,0,.066-.077.429.429,0,0,0-.116-.306.358.358,0,0,1-.116-.245c0-.081.077-.133.232-.153a.483.483,0,0,0-.166-.184.3.3,0,0,1-.133-.184,1.471,1.471,0,0,0,.033-.306V140.5c0-.265-.012-.531-.033-.8s-.033-.521-.033-.766a3.7,3.7,0,0,1,.066-.75,1.3,1.3,0,0,1,.265-.566.9.9,0,0,1-.265-.474,2.776,2.776,0,0,1-.066-.628q0-.4.017-.8t.017-.735a.39.39,0,0,0,.166.031.786.786,0,0,0,.332-.061.63.63,0,0,1,.265-.061c.066,0,.133.072.2.214.066,0,.1-.025.1-.076a.5.5,0,0,1,.033-.168.417.417,0,0,1,.249.061.351.351,0,0,0,.216.061q.63,0,1.459-.061t1.758-.061q.928,0,1.824.031t1.658.092c0,.2.066.306.2.306a.81.81,0,0,0,.149-.015,1.006,1.006,0,0,1,.182-.015.809.809,0,0,0-.182.138.311.311,0,0,0-.116.229c0,.082.1.123.3.123a2.476,2.476,0,0,0,.116-.245c.033-.081.083-.214.149-.4a4.746,4.746,0,0,1,1.012.245,7.075,7.075,0,0,1,.945.413,3.43,3.43,0,0,1,.713.49.709.709,0,0,1,.282.475.283.283,0,0,1,.2-.061.45.45,0,0,1,.216.122,3.378,3.378,0,0,1,.282.26l.249.26c.077.082.127.123.149.123a.2.2,0,0,1-.133.184.691.691,0,0,0,.216.138q.116.046.216.092a.491.491,0,0,1,.166.122.4.4,0,0,1,.066.26,1.47,1.47,0,0,1,.448.521,4.1,4.1,0,0,1,.3.7q.116.368.2.7c.055.225.1.409.149.551a.4.4,0,0,1-.149.2.277.277,0,0,0-.116.2v.061h.033c.066,0,.1-.02.1-.061a1.14,1.14,0,0,1,.133.551,2.047,2.047,0,0,1-.066.505,1.919,1.919,0,0,0-.066.475.434.434,0,0,0,.133.337c-.044.1-.1.214-.166.337s-.144.184-.232.184a.34.34,0,0,1-.232-.061.442.442,0,0,0-.2-.092.357.357,0,0,0-.232.306.768.768,0,0,0,.05.26.852.852,0,0,1,.05.291q-.1-.184-.2-.184c-.022,0-.033.031-.033.092a.194.194,0,0,0,.05.123.32.32,0,0,0,.182.092,1.722,1.722,0,0,0-.431.275.778.778,0,0,0-.265.643.485.485,0,0,0,.033.214.5.5,0,0,0-.265-.061.463.463,0,0,0-.414.245.639.639,0,0,1-.414.306.712.712,0,0,1,.215.352c.033.133.149.2.348.2a.07.07,0,0,0,.05-.015.143.143,0,0,1,.083-.015,1.232,1.232,0,0,1-.282.245,1.225,1.225,0,0,0-.282.245h-.1c-.022,0-.033-.01-.033-.031a.129.129,0,0,1,.066-.107c.044-.031.066-.056.066-.077s-.033-.031-.1-.031q-.332,0-.332.582a1.076,1.076,0,0,0,.1.459.366.366,0,0,0,.365.214.316.316,0,0,0,.133-.031.889.889,0,0,1-.066.4c-.045.082-.166.122-.365.122.11.02.171.056.182.107a1.02,1.02,0,0,1,.016.2v.061a.482.482,0,0,0,.066.26q.066.107.431.107.166-.061.166-.122a.306.306,0,0,0-.1-.2.333.333,0,0,1-.1-.23c0-.02,0-.031.017-.031s.016-.01.016-.031a1.032,1.032,0,0,1,.514.582,1.636,1.636,0,0,0,.415.643q-.1.153-.183.291a.739.739,0,0,1-.215.23.317.317,0,0,0,.348.291.551.551,0,0,1,.448.2q-.1.214-.215.413a1.806,1.806,0,0,0-.182.444.505.505,0,0,0,.249.123q.149.031.149.4a.379.379,0,0,0,.266-.4,10.356,10.356,0,0,1,.365,1.1,4.465,4.465,0,0,1,.2,1.164c0-.02-.033-.046-.1-.077a.417.417,0,0,0-.166-.046.293.293,0,0,0,.149.214c.077.041.116.133.116.276,0,.163-.033.245-.1.245-.045,0-.066-.1-.066-.306,0-.1.011-.163.033-.184a.6.6,0,0,0-.431.337,1.411,1.411,0,0,0-.1.536c0,.194.005.383.017.566a.969.969,0,0,1-.05.429c.021.041.05.092.083.153s.072.092.116.092c.176,0,.282-.046.315-.138a1.058,1.058,0,0,0,.049-.352q.265,0,.265.368v.613a1.711,1.711,0,0,0-.315-.031h-.315q-.432,0-.912.031t-.978.03c-.066,0-.182-.005-.348-.015s-.249-.036-.249-.077c0-.122.088-.184.265-.184a.767.767,0,0,1-.166-.138.156.156,0,0,1-.033-.092v-.107a.287.287,0,0,0-.066-.153c-.133.061-.271.118-.415.169a.364.364,0,0,0-.249.321.428.428,0,0,1-.3-.168.488.488,0,0,1-.1-.291.625.625,0,0,1,.265-.551.455.455,0,0,1-.133-.735l-.066-.092c-.044,0-.066.031-.066.092q-.167-.7-.332-1.393a9.758,9.758,0,0,1-.232-1.485.524.524,0,0,1-.381-.214.858.858,0,0,1-.1-.337,2.352,2.352,0,0,1,0-.4.943.943,0,0,0-.05-.4q-.232.062-.232.184c0,.041.033.061.1.061-.044.041-.078.061-.1.061-.088,0-.177-.086-.265-.26a1.824,1.824,0,0,1-.166-.413.261.261,0,0,0,.2-.275.218.218,0,0,1,.2-.245.32.32,0,0,0-.249-.276.4.4,0,0,1-.282-.214c-.066,0-.1.02-.1.061a.553.553,0,0,0,.066.23.67.67,0,0,1,.066.291.322.322,0,0,1-.033.153.779.779,0,0,1-.415-.153,3.175,3.175,0,0,1-.282-.26,3.316,3.316,0,0,0-.282-.26,1.006,1.006,0,0,0-.382-.184.155.155,0,0,1,.166-.123.475.475,0,0,1,.2.046.412.412,0,0,0,.166.046c.044,0,.088-.031.133-.092a.169.169,0,0,0-.149-.184.169.169,0,0,1-.149-.184.122.122,0,0,1,.016-.061.132.132,0,0,0,.017-.061,1.136,1.136,0,0,0-.282.031.755.755,0,0,1-.183.031c-.066,0-.1-.051-.1-.153a.226.226,0,0,1,.017-.076.316.316,0,0,0,.017-.107.566.566,0,0,1-.4.153c0-.123-.044-.194-.132-.214a.165.165,0,0,1-.133-.184,1.531,1.531,0,0,0-.564.092q-.233.092-.448.2a3.332,3.332,0,0,1-.448.184,1.81,1.81,0,0,1-.564.076.573.573,0,0,1-.133-.015.6.6,0,0,0-.132-.015.9.9,0,0,0-.166.612c0,.2.005.4.017.6s.017.373.017.536a.137.137,0,0,1-.083-.015.074.074,0,0,0-.05-.015c-.111,0-.166.072-.166.214v.429a.177.177,0,0,0,.166.107c.088.01.133.067.133.168a.682.682,0,0,1-.149.367.712.712,0,0,0-.149.4q0,.092.149.138c.1.031.149.067.149.107a.284.284,0,0,1-.182.306.388.388,0,0,0-.249.276.135.135,0,0,0,.166.107.791.791,0,0,1,.265.015,2.482,2.482,0,0,1-.033.429c-.022.123-.111.184-.265.184a2.36,2.36,0,0,0,.166.26.453.453,0,0,1,.1.26c0,.143-.089.225-.265.245a.916.916,0,0,1,.216.367,1.525,1.525,0,0,1,.05.4c0,.1-.006.214-.017.337s-.017.256-.017.4a1.438,1.438,0,0,0,.017.229q.016.108.05.26a.532.532,0,0,1-.282-.459,1.3,1.3,0,0,0-.149-.551q-.1.062-.1.306a1.4,1.4,0,0,0,.05.368,1.524,1.524,0,0,1,.05.214.231.231,0,0,1-.2.092.555.555,0,0,1-.332-.123.4.4,0,0,1-.166-.337.319.319,0,0,1,.033-.153q-.133.092-.133.184a.474.474,0,0,0,.05.2.477.477,0,0,1,.05.2.148.148,0,0,1-.133.153.165.165,0,0,0-.132.184c0,.143.1.214.3.214q0,.153-.166.153c-.132,0-.254-.005-.365-.015s-.166-.046-.166-.107a.192.192,0,0,1,.149-.2.191.191,0,0,0,.149-.2,3.623,3.623,0,0,0-.464-.26l-.5-.23q-.1,0-.1.092a.326.326,0,0,1-.033.153c-.089-.143-.166-.214-.233-.214a.3.3,0,0,0-.166.076.992.992,0,0,1-.265.138.215.215,0,0,1,.083-.184,1.04,1.04,0,0,1,.182-.107.7.7,0,0,0,.182-.122.3.3,0,0,0,.083-.23,1.336,1.336,0,0,1-.481-.138.845.845,0,0,0-.448-.107.274.274,0,0,1-.182-.26,1.136,1.136,0,0,0-.083-.352.715.715,0,0,1,.265-.122.722.722,0,0,1,.265.122.292.292,0,0,1,0-.49.8.8,0,0,1-.1-.444,1.844,1.844,0,0,0-.033-.566h.066l.033-.031a.143.143,0,0,0-.05-.107c-.033-.031-.05-.056-.05-.077s.088-.031.265-.031c0-.081-.055-.122-.166-.122a.345.345,0,0,0-.265.107.369.369,0,0,0-.1.26c-.177,0-.265-.061-.265-.184,0-.061.038-.107.116-.138a.766.766,0,0,1,.282-.046.73.73,0,0,1-.033-.245.364.364,0,0,1,.149-.337.363.363,0,0,0,.149-.337c0-.061-.089-.092-.265-.092-.2,0-.288.041-.265.123-.089-.02-.133-.061-.133-.123a.3.3,0,0,1,.133-.23.462.462,0,0,1,.3-.107.332.332,0,0,1,.232.092.751.751,0,0,0-.3-.413c-.155-.112-.232-.209-.232-.291s.011-.122.033-.122c.044,0,.1.036.166.107a.279.279,0,0,0,.2.107.542.542,0,0,0-.066-.306l-.133-.184a1.472,1.472,0,0,1-.133-.23.985.985,0,0,1-.066-.413h.4q-.232-.03-.232-.184a.31.31,0,0,1,.017-.107.318.318,0,0,0,.017-.107c0-.061-.039-.087-.116-.077s-.116-.046-.116-.168a.3.3,0,0,1,.083-.23.3.3,0,0,0,.083-.23.477.477,0,0,1-.1.077.27.27,0,0,0-.067.046.1.1,0,0,1-.066.031c-.022,0-.033-.01-.033-.031a.387.387,0,0,1,.083-.184.481.481,0,0,0,.083-.276c0-.122-.111-.184-.332-.184a1.966,1.966,0,0,1,.2-.26.491.491,0,0,1,.365-.107.656.656,0,0,1,.1.184c0,.041-.011.067-.033.077s-.033.036-.033.077.033.092.1.153a.147.147,0,0,0,.116-.184.941.941,0,0,1,.017-.306.983.983,0,0,1-.5-.383,1.565,1.565,0,0,1-.183-.551,6.45,6.45,0,0,1-.066-.7q-.018-.383-.083-.842a.52.52,0,0,0,.414.061q.182-.061.415.184a.411.411,0,0,0-.066-.245.408.408,0,0,1-.066-.245.752.752,0,0,1-.4.122,1.8,1.8,0,0,0-.016-.26A.11.11,0,0,0,531.8,144.727Zm.133,1.99q.2,0,.249.107a.537.537,0,0,1,.05.229v.23c0,.072.022.107.066.107a.234.234,0,0,0,.166-.061c-.044-.02-.066-.081-.066-.184a1.547,1.547,0,0,1,.1-.475,1.663,1.663,0,0,0,.1-.536.384.384,0,0,0-.4-.429,3.213,3.213,0,0,1-.1.536A4.883,4.883,0,0,1,531.931,146.718Zm.4,6.706c-.089.1-.166.153-.232.153s-.1-.041-.1-.122.033-.123.1-.123A.6.6,0,0,1,532.328,153.423Zm-.132,2.113v-.061h.033c.066,0,.1.021.1.061l-.066.092C532.218,155.628,532.2,155.6,532.2,155.536Zm.8.888c0-.061.044-.092.133-.092s.133.031.133.092l-.067.092a.139.139,0,0,1-.083-.046A.165.165,0,0,0,532.992,156.424Zm1.89-14.453a.287.287,0,0,1,.215.122.259.259,0,0,0,.182.123.682.682,0,0,1-.1-.306.62.62,0,0,1,.05-.26.475.475,0,0,0,.05-.2q0-.183-.265-.337a.979.979,0,0,1-.066.429A.976.976,0,0,0,534.882,141.972Zm.962-3.123a2.541,2.541,0,0,0-.033.49c0,.164.005.327.017.49s.017.327.017.49a3.19,3.19,0,0,1-.067.674,1.051,1.051,0,0,1-.232.49,1.016,1.016,0,0,1,.232.612,1.526,1.526,0,0,1-.232.766.621.621,0,0,0,.182.031.12.12,0,0,1,.116.092.617.617,0,0,0-.166.429,2.055,2.055,0,0,0,.083.566,2.3,2.3,0,0,1,.083.628.748.748,0,0,0,.232.092c.088.02.133.061.133.123,0,.041-.033.092-.1.153a.394.394,0,0,0,.166.03c.133,0,.2-.046.215-.138s.1-.138.282-.138a.318.318,0,0,0-.1.245.357.357,0,0,0,.232.368c.044-.1.088-.153.133-.153a.266.266,0,0,1,.2.138.268.268,0,0,0,.2.138,1.3,1.3,0,0,1,.216-.536.739.739,0,0,1,.614-.2.244.244,0,0,1-.133.169.26.26,0,0,0-.133.2,1.113,1.113,0,0,1,.4-.092.641.641,0,0,1,.381.107,2.527,2.527,0,0,0,.414.23,1.1,1.1,0,0,1,.663-.72q.5-.2.962-.413,0,.214.1.214c.066,0,.121-.051.166-.153a3.026,3.026,0,0,1,.2-.368,4.97,4.97,0,0,1,.3-.429,1.358,1.358,0,0,1,.464-.367.4.4,0,0,1-.033-.184,1.143,1.143,0,0,1,.149-.628,1.587,1.587,0,0,0,.149-.811,3.242,3.242,0,0,0-.381-.919,7.517,7.517,0,0,1-.448-.827q-.2-.122-.464-.276t-.481-.291q-.216-.138-.514-.322c.044,0,.066-.02.066-.061,0-.02-.022-.041-.066-.061a4.512,4.512,0,0,1-.746.123q-.381.031-.779.031-.5,0-1.012-.031t-.978-.031h-.331A1.847,1.847,0,0,0,535.844,138.849Zm2.554,9.492v.122c0,.082-.022.122-.066.122a.529.529,0,0,1-.2-.061c-.089-.041-.133-.071-.133-.092,0-.142.088-.214.265-.214C538.353,148.218,538.4,148.259,538.4,148.341Zm2.819-12.707a.39.39,0,0,1-.166.031c-.066,0-.1.031-.1.092a.4.4,0,0,1,.166-.031C541.183,135.725,541.216,135.695,541.216,135.633Zm.133.368q.265,0,.266-.122c0-.081-.045-.122-.133-.122S541.349,135.838,541.349,136Zm1.89,20.668a.963.963,0,0,1-.464.153c-.066,0-.1-.021-.1-.061,0-.1.088-.153.265-.153C542.963,156.608,543.062,156.629,543.239,156.669Zm1.625-18.678a.4.4,0,0,1-.166.031q-.1,0-.1.092a.4.4,0,0,1,.166-.031Q544.864,138.083,544.865,137.991Zm-.265.368q0,.368.265.367,0-.183.083-.214a.47.47,0,0,0,.183-.153.426.426,0,0,0-.232.046.234.234,0,0,1-.133.046A.491.491,0,0,1,544.6,138.359Zm.531,7.1q0,.245-.116.306a.972.972,0,0,1-.415.061.915.915,0,0,1,.166-.26A.489.489,0,0,1,545.13,145.462Zm-.4,4.593a.238.238,0,0,0,.066-.184.414.414,0,0,0-.2-.307v.322C544.6,150,544.643,150.055,544.732,150.055Zm.265,6.614a.605.605,0,0,1,.033-.23.406.406,0,0,1,.1-.138.225.225,0,0,1-.183-.061.277.277,0,0,0-.215-.061A.523.523,0,0,0,545,156.669Zm1.227-3a.135.135,0,0,1-.132-.061.28.28,0,0,1-.033-.138.536.536,0,0,0-.017-.138c-.011-.041-.049-.061-.116-.061-.111,0-.166.051-.166.153a.368.368,0,0,0,.1.26.278.278,0,0,0,.2.107A.155.155,0,0,0,546.224,153.668Zm-.431-9.461c0-.041.022-.061.066-.061q.1,0,.1.061c-.045.061-.078.092-.1.092C545.815,144.3,545.793,144.268,545.793,144.207Zm.166,10.594c.022-.061.044-.092.066-.092.044,0,.1.056.182.168a.336.336,0,0,0,.282.168.624.624,0,0,0-.133.367.469.469,0,0,1-.282-.168.511.511,0,0,1-.116-.168.148.148,0,0,1,.133-.153C546.092,154.843,546.047,154.8,545.959,154.8Z" transform="translate(-493.428 -134.776)" fill="url(#radial-gradient-3)"/>
    <path id="Tracé_440" data-name="Tracé 440" d="M625.6,152.91a.331.331,0,0,1,.365-.245q.165,0,.166.368a.381.381,0,0,0,.149-.168,1.18,1.18,0,0,1,.116-.2,1.8,1.8,0,0,0,.332.031h.332q.43,0,.862-.015t.863-.015a6.139,6.139,0,0,1,1.177.107,1.476,1.476,0,0,1,.879.505l.133-.245a3.838,3.838,0,0,0,.166-.368,4.387,4.387,0,0,1,.58.031,3.169,3.169,0,0,0,.448.031,2.266,2.266,0,0,0,.265-.015q.132-.015.3-.046c0,.164.044.266.133.306a1.1,1.1,0,0,0,.431.061.4.4,0,0,0-.033.184.808.808,0,0,0,.1.352c.066.133.122.2.166.2.088,0,.144-.025.166-.077s.044-.107.066-.168.044-.117.066-.169a.13.13,0,0,1,.133-.076.45.45,0,0,0-.216-.26.226.226,0,0,1-.149-.2q0-.153.3-.153h.464a1.859,1.859,0,0,1-.116.689.721.721,0,0,1-.415.413.545.545,0,0,0,.249.322.407.407,0,0,1,.183.383.7.7,0,0,1-.066.352.683.683,0,0,1-.166.184.691.691,0,0,0-.166.184.7.7,0,0,0-.066.352.562.562,0,0,0,.249.521.686.686,0,0,1,.315.459,2.683,2.683,0,0,0-.5-.015q-.265.016-.5.015a2.2,2.2,0,0,1-.4-.031c-.111-.02-.166-.051-.166-.092a.171.171,0,0,1,.066-.122,1.614,1.614,0,0,1-.58.2,4.746,4.746,0,0,1-.68.046q-.431,0-.879-.031t-.879-.031a2.554,2.554,0,0,0-.415.031,2.271,2.271,0,0,1-.381.031c-.111,0-.188-.081-.232-.245a1.741,1.741,0,0,1-1.061.276,2.416,2.416,0,0,1-.68-.092.588.588,0,0,1-.415-.337.425.425,0,0,0-.249.092.214.214,0,0,0-.05.138.21.21,0,0,1-.033.123q-.034.046-.2.046c-.022-.163-.045-.245-.066-.245s-.045.046-.066.138a.179.179,0,0,1-.2.138q-.133,0-.182-.337a3.946,3.946,0,0,1-.049-.551c0-.1.011-.153.033-.153q-.266.123-.3.291t-.05.337a.458.458,0,0,1-.116.276q-.1.108-.5.107a.2.2,0,0,1,.017-.092.2.2,0,0,0,.016-.092.49.49,0,0,0-.066-.26.423.423,0,0,1-.066-.23.284.284,0,0,1,.1-.214.969.969,0,0,0-.464-.092c-.111,0-.238.005-.382.015s-.293.015-.448.015a1.214,1.214,0,0,1-.464-.061.79.79,0,0,0-.58.184.845.845,0,0,1-.614.184q-.1-.276-.166-.444a1.547,1.547,0,0,0-.149-.291c-.055-.081-.094-.123-.116-.123l-.066.031h-.033a.205.205,0,0,0,.083.138.209.209,0,0,1,.083.138c0,.041-.078.061-.232.061a.538.538,0,0,1-.381-.092.509.509,0,0,1-.116-.23c-.022-.092-.044-.173-.066-.245a.293.293,0,0,0-.2-.168.672.672,0,0,0,.514-.368,2.549,2.549,0,0,0,.166-.6q.05-.321.116-.6a.687.687,0,0,1,.3-.429,1.8,1.8,0,0,1-.265-.8,1.321,1.321,0,0,1,.265-.7q.1,0,.1.092a.317.317,0,0,0,.033.153.273.273,0,0,0,.265-.306.991.991,0,0,0-.05-.306c-.033-.1-.061-.194-.083-.276a.448.448,0,0,1,.15-.092.772.772,0,0,1,.249-.031.2.2,0,0,1-.066-.153.711.711,0,0,1,.149-.4.976.976,0,0,1,.315-.306,1.4,1.4,0,0,1,.365-.873,1.958,1.958,0,0,0,.464-.75.359.359,0,0,1,.265.367.428.428,0,0,0,.3-.2.737.737,0,0,0,.066-.321,2.216,2.216,0,0,0-.033-.352q-.033-.2-.066-.352a1.019,1.019,0,0,1,.5-.061q.265.031.265-.153a.137.137,0,0,0-.016-.061.119.119,0,0,1-.017-.061c0-.041.11-.061.332-.061a2.325,2.325,0,0,1,.116-.383.473.473,0,0,0,.05-.2.95.95,0,0,0-.166-.4,1.425,1.425,0,0,0,.365-.4.955.955,0,0,0,.1-.46,1.99,1.99,0,0,0-.033-.4,2.415,2.415,0,0,0,.414-.628q.182-.382.365-.781a4.4,4.4,0,0,1,.4-.7.859.859,0,0,1,.58-.367.468.468,0,0,1-.066-.276A1.052,1.052,0,0,1,627.3,141a3.4,3.4,0,0,0,.448-.674,3.478,3.478,0,0,1,.448-.811,4.7,4.7,0,0,0,.481-.811.981.981,0,0,0-.564-.123c-.132,0-.277.005-.431.015s-.3.015-.431.015a1.225,1.225,0,0,1-.414-.168c-.211-.112-.315-.158-.315-.138a.236.236,0,0,1,.05-.153.194.194,0,0,0,.05-.123c0-.02-.028-.041-.083-.061a.447.447,0,0,0-.149-.031c-.111,0-.161.067-.149.2s.017.24.017.322c0,.041-.111.072-.332.092s-.464.036-.729.046-.52.015-.763.015H624a.129.129,0,0,1-.133-.092.53.53,0,0,1-.033-.184,3.547,3.547,0,0,1-1.011.214q-.647.062-1.343.061-.5,0-.962-.015c-.31-.01-.6-.015-.862-.015a.7.7,0,0,0,.116-.306c.011-.1.061-.153.149-.153a.846.846,0,0,1,.265.092.386.386,0,0,0-.066-.092.117.117,0,0,1-.033-.092l.1-.061c-.022-.041-.045-.061-.066-.061a.317.317,0,0,0-.133.031.5.5,0,0,1-.2.031,2.77,2.77,0,0,1-.083-1.041,2.055,2.055,0,0,0,.017-.276q0-.245-.017-.444a2.842,2.842,0,0,0-.05-.352c0-.1.044-.153.133-.153a.57.57,0,0,1,.232.061.843.843,0,0,1,.166.092.129.129,0,0,0-.017-.061.123.123,0,0,1-.017-.061,1.224,1.224,0,0,1,.033-.291,1.146,1.146,0,0,0,.033-.26q0-.306-.166-.337a1.112,1.112,0,0,1,.663-.214.669.669,0,0,1,.249.046.593.593,0,0,0,.216.046,3.527,3.527,0,0,0,.63-.077,3.918,3.918,0,0,1,.73-.076q1.492,0,2.769.076t2.438.077a5.741,5.741,0,0,0,.846-.061,6.022,6.022,0,0,1,.879-.061,1.6,1.6,0,0,1,.4.061,1.681,1.681,0,0,0,.431.061,6.083,6.083,0,0,0,.862-.061,6.364,6.364,0,0,1,.9-.061,2.9,2.9,0,0,1,1.227.245,1.5,1.5,0,0,0-.033.368,1.384,1.384,0,0,0,.083.566.488.488,0,0,0,.2.229.975.975,0,0,0,.3.092,1.531,1.531,0,0,1,.382.123.6.6,0,0,0-.1.337.77.77,0,0,0,.033.23c.022.072.055.107.1.107.022,0,.055-.02.1-.061q.1.062.1.122a.5.5,0,0,1-.133.26.6.6,0,0,0-.133.383.166.166,0,0,0,.033.122,1.364,1.364,0,0,0-.73.735,2.328,2.328,0,0,0-.2.857,8.741,8.741,0,0,0-1.128,1.837,6.471,6.471,0,0,1-1.194,1.776,1.634,1.634,0,0,1-.414.98,2.27,2.27,0,0,0-.514.888,4.248,4.248,0,0,0-.265.459l-.564,1.041q-.332.613-.729,1.317t-.78,1.3q-.381.6-.663.995t-.415.4a.141.141,0,0,1-.1-.031.191.191,0,0,0,.017.092.2.2,0,0,1,.017.092.466.466,0,0,1-.083.291.463.463,0,0,0-.083.291.4.4,0,0,0-.166-.031.183.183,0,0,0-.182.107,1.3,1.3,0,0,0-.083.245,2.265,2.265,0,0,0-.05.291,1.105,1.105,0,0,1-.05.245q-.4.092-.4.429a1.307,1.307,0,0,0,.033.275A1.609,1.609,0,0,0,625.6,152.91Zm-5.14.49c0-.061.044-.092.133-.092s.133.031.133.092-.022.092-.066.092a.139.139,0,0,1-.083-.046A.166.166,0,0,0,620.456,153.4Zm.564,2.235a.179.179,0,0,1,.1.153.368.368,0,0,1-.1.26.344.344,0,0,1-.265.107.393.393,0,0,1-.166-.031.389.389,0,0,1,.216-.245A.389.389,0,0,0,621.02,155.635Zm1.725-5.848a.414.414,0,0,0,.431-.245A.414.414,0,0,0,622.744,149.787Zm1.094-.98a.379.379,0,0,0-.265-.4A.379.379,0,0,0,623.839,148.807Zm.266-10.717a.4.4,0,0,1-.166.031c-.066,0-.1.031-.1.092a.4.4,0,0,1,.166-.031C624.071,138.182,624.1,138.151,624.1,138.09Zm1.094,8.451a.5.5,0,0,1-.05-.153c-.011-.061-.039-.092-.083-.092a.854.854,0,0,0,.017.153A.1.1,0,0,0,625.2,146.541ZM626.392,156a.888.888,0,0,0,.249-.015.71.71,0,0,0,.017-.23.473.473,0,0,0-.232.031C626.4,155.809,626.392,155.88,626.392,156Zm.962.122a1.125,1.125,0,0,1,.232-.214.408.408,0,0,0,.166-.276.773.773,0,0,0-.348.092.276.276,0,0,0-.182.245A.147.147,0,0,0,627.354,156.125Zm3.914-.122c0,.184.038.281.116.291a.844.844,0,0,1,.282.107v-.521a.762.762,0,0,0-.249.031A.438.438,0,0,0,631.267,156Zm1.89-17.055c0-.041-.033-.061-.1-.061-.045,0-.066.021-.066.061,0,.061.022.092.066.092Q633.091,139.04,633.158,138.948Zm0,16.688a.2.2,0,0,0,.133.031c.11,0,.166-.081.166-.245q0-.276-.166-.276c-.045.061-.083.118-.116.168a.361.361,0,0,0-.05.2A.166.166,0,0,0,633.158,155.635Z" transform="translate(-563.449 -134.538)" fill="url(#radial-gradient-4)"/>
    <path id="Tracé_441" data-name="Tracé 441" d="M717.609,147.154q0,.246-.133.23c-.089-.01-.144.036-.166.138q.033.215.066.383a1.677,1.677,0,0,1,.033.321,1.262,1.262,0,0,1-.016.214.756.756,0,0,1-.083.214c.044.1.088.153.133.153a.278.278,0,0,0,.166-.092.376.376,0,0,1,.265-.092.207.207,0,0,1,.133.03q.729,1.9,1.327,3.874t1.227,3.965q-.2,0-.4.015t-.4.015q-.664,0-1.36-.031t-1.26-.031h-.481a2.756,2.756,0,0,0-.414.031,1.174,1.174,0,0,1-.166-.383c-.022-.112-.044-.224-.066-.337a2.79,2.79,0,0,0-.083-.321.983.983,0,0,0-.216-.337,5.375,5.375,0,0,0-.431-1.653q-.365-.857-.8-2.2a12.1,12.1,0,0,1-.332-1.24,3.131,3.131,0,0,0-.464-1.118,1.925,1.925,0,0,0-.249.015,1.869,1.869,0,0,1-.249.015q-.4,0-.829-.031t-.829-.031a3.888,3.888,0,0,0-.8.077,3.138,3.138,0,0,1-.63.076c-.177,0-.288-.061-.332-.184s-.155-.184-.332-.184c-.2,0-.3.051-.3.153a.534.534,0,0,0,.033.184.543.543,0,0,1,.033.184,1.143,1.143,0,0,1-.182.505,7.176,7.176,0,0,1-.415.643q-.233.321-.415.551t-.182.2a.85.85,0,0,0,.05.291.85.85,0,0,1,.05.291.23.23,0,0,1-.232.245.641.641,0,0,1,.066.306,5.921,5.921,0,0,1-.149.781,2.175,2.175,0,0,1-.232.536.439.439,0,0,1-.382.245q.2.092.2.245a2.158,2.158,0,0,1-.1.536q-.1.353-.232.7a4.256,4.256,0,0,1-.282.612c-.1.174-.182.26-.249.26a.2.2,0,0,0-.066.153q0,.092.2.092a2.483,2.483,0,0,1-.564.123,6.463,6.463,0,0,1-.663.031q-.366,0-.763-.031t-.763-.031a2.884,2.884,0,0,0-.432.031,2.379,2.379,0,0,1-.364.031c-.133,0-.211-.046-.232-.138s-.122-.138-.3-.138c-.066,0-.1.01-.1.031s.022.046.066.077a.131.131,0,0,1,.066.107q0,.031-.2.031c-.133,0-.2-.02-.2-.061a4.833,4.833,0,0,1,.166-.6q.166-.535.431-1.378t.614-1.9q.348-1.056.73-2.174t.763-2.2q.381-1.087.68-2.006,0-.245.033-.245a.144.144,0,0,1,.1.031.141.141,0,0,0,.1.031A.2.2,0,0,0,706,145.9q-.232-.122-.232-.276c.044-.2.083-.367.116-.49a.986.986,0,0,1,.149-.321.284.284,0,0,1,.232-.138,1,1,0,0,1-.033-.306,4.029,4.029,0,0,1,.149-1.087,10.55,10.55,0,0,1,.348-1.041q.2-.506.414-1a7.594,7.594,0,0,0,.348-.949,20.164,20.164,0,0,1,.63-2.2q.364-1.041.7-2.143.231-.03.265-.2a.654.654,0,0,1,.133-.291q.465-.305,1.012-.6a2.684,2.684,0,0,1,1.277-.291,2.419,2.419,0,0,1,1.277.352q.58.352,1.045.658a24.536,24.536,0,0,1,.978,2.924,18.524,18.524,0,0,0,1.045,2.924,3.764,3.764,0,0,0,.232,1.286q.232.643.514,1.286t.514,1.3a4.692,4.692,0,0,1,.265,1.332,1.612,1.612,0,0,1-.066.4c0,.041.022.061.066.061a.139.139,0,0,0,.083-.015.14.14,0,0,1,.083-.015C717.586,147.062,717.609,147.093,717.609,147.154Zm-12.436,1.133c-.045,0-.066.02-.066.061,0,.061.044.092.133.092a.235.235,0,0,0,.166-.061.1.1,0,0,0,.033-.123.6.6,0,0,0-.133.015A.579.579,0,0,1,705.173,148.287Zm1.227,6.461c.133.041.2.092.2.153a.815.815,0,0,1-.182.413.884.884,0,0,0-.182.505.367.367,0,0,0,.166.306,1.3,1.3,0,0,0,.431-.9q.032-.535.1-.965c.088,0,.133-.02.133-.061s-.011-.061-.033-.061q-.332,0-.381.229A.645.645,0,0,1,706.4,154.747Zm.962-1.623c0-.041-.033-.061-.1-.061-.044,0-.067.021-.067.061,0,.061.022.092.067.092Q707.295,153.216,707.361,153.124Zm1.061-2.97c0-.061-.045-.092-.133-.092s-.133.031-.133.092.021.092.066.092a.142.142,0,0,0,.1-.031A.386.386,0,0,1,708.422,150.154Zm1.625-14.575a.765.765,0,0,1-.266.015c-.089-.01-.133.026-.133.107a.578.578,0,0,1,.233-.015A.136.136,0,0,0,710.048,135.579Zm.265,9.462h2.155q-.232-.8-.481-1.608a11.461,11.461,0,0,0-.581-1.516,13.461,13.461,0,0,0-.58,1.531Q710.578,144.245,710.313,145.041Zm6.334,10.717c0-.061-.023-.092-.066-.092s-.066.031-.066.092c0,.041.021.061.066.061C716.6,155.819,716.625,155.8,716.647,155.758Zm.663.612V156a.6.6,0,0,1-.265.092.575.575,0,0,1-.133-.015.586.586,0,0,0-.133-.015.136.136,0,0,0-.133.061.779.779,0,0,1,.3.153A.545.545,0,0,0,717.31,156.37Zm.7-7.961q-.067.092-.1.092c-.044,0-.078-.056-.1-.168a1.657,1.657,0,0,1-.033-.321v-.184q.066,0,.1.337a.129.129,0,0,0,.066.107A.157.157,0,0,1,718.007,148.409Zm.4,2.235q0-.214-.016-.413t-.249-.2a.315.315,0,0,1-.017.107.309.309,0,0,0-.017.107C718.106,150.491,718.206,150.624,718.4,150.644Z" transform="translate(-629.096 -134.538)" fill="url(#radial-gradient-5)"/>
    <g id="Groupe_244" data-name="Groupe 244" transform="translate(2.089 25.316)">
      <path id="Tracé_442" data-name="Tracé 442" d="M357.757,259.937a1.28,1.28,0,0,0-.035-.356,1.183,1.183,0,0,0-.137-.343.834.834,0,0,0-.246-.259.644.644,0,0,0-.374-.105.47.47,0,0,0-.277.084.671.671,0,0,0-.193.211,1.14,1.14,0,0,0-.114.268.93.93,0,0,0-.04.246.965.965,0,0,0,.224.585,1.814,1.814,0,0,0,.6.5,4.313,4.313,0,0,1,.8.545,2.651,2.651,0,0,1,.5.58,1.9,1.9,0,0,1,.251.633,2.907,2.907,0,0,1,.048.7,1.663,1.663,0,0,1-.44,1.143,1.46,1.46,0,0,1-1.081.4,1.664,1.664,0,0,1-.721-.154,1.548,1.548,0,0,1-.554-.44,1.978,1.978,0,0,1-.347-.7,3,3,0,0,1-.1-.932h.9a1.934,1.934,0,0,0,.158.989.679.679,0,0,0,.659.382.614.614,0,0,0,.308-.07.66.66,0,0,0,.2-.176.7.7,0,0,0,.114-.228.873.873,0,0,0,.035-.238,1.478,1.478,0,0,0-.277-.905,2.607,2.607,0,0,0-.875-.765,2.16,2.16,0,0,1-1.275-1.9,2.078,2.078,0,0,1,.1-.668,1.467,1.467,0,0,1,.3-.519,1.316,1.316,0,0,1,.488-.339,1.78,1.78,0,0,1,.677-.119,1.541,1.541,0,0,1,.637.132,1.443,1.443,0,0,1,.51.382,1.726,1.726,0,0,1,.33.611,2.548,2.548,0,0,1,.106.818Z" transform="translate(-355.471 -257.994)" fill="#4c3023"/>
      <path id="Tracé_443" data-name="Tracé 443" d="M381.746,264.942h-.853l-.448-2.031h-1.213l-.448,2.031h-.853l1.486-6.69h.844Zm-2.33-2.892h.835l-.413-1.89Z" transform="translate(-373.33 -258.199)" fill="#4c3023"/>
      <path id="Tracé_444" data-name="Tracé 444" d="M406.478,258.3v.861h-1.714v2.329H406.2v.879h-1.433v2.611h-.9V258.3Z" transform="translate(-393.953 -258.234)" fill="#4c3023"/>
      <path id="Tracé_445" data-name="Tracé 445" d="M424.565,264.942h-.853l-.448-2.031h-1.213l-.448,2.031h-.853l1.486-6.69h.844Zm-2.33-2.892h.835l-.413-1.89Z" transform="translate(-407.377 -258.199)" fill="#4c3023"/>
      <path id="Tracé_446" data-name="Tracé 446" d="M446.773,265.01v-6.664q.264-.009.532-.009t.528.013a3.936,3.936,0,0,1,.483.053,2.27,2.27,0,0,1,.391.1,1.6,1.6,0,0,1,.532.316,1.549,1.549,0,0,1,.325.426,1.822,1.822,0,0,1,.167.488,3.384,3.384,0,0,1,.057.51,2.414,2.414,0,0,1-.07.642,2.127,2.127,0,0,1-.246.6,1.8,1.8,0,0,1-.435.488,1.717,1.717,0,0,1-.646.308l1.424,2.725h-.949l-1.3-2.549v2.549Zm2.145-4.765a1.6,1.6,0,0,0-.092-.44.824.824,0,0,0-.238-.343,1.06,1.06,0,0,0-.413-.211,1.81,1.81,0,0,0-.611-.044v2.286a1.626,1.626,0,0,0,.624-.044.983.983,0,0,0,.431-.251,1.009,1.009,0,0,0,.242-.418A1.521,1.521,0,0,0,448.918,260.246Z" transform="translate(-428.069 -258.267)" fill="#4c3023"/>
      <path id="Tracé_447" data-name="Tracé 447" d="M468.8,264.977v-.861h.879v-4.949H468.8v-.87h2.646v.87h-.879v4.949h.879v.861Z" transform="translate(-445.585 -258.234)" fill="#4c3023"/>
      <path id="Tracé_448" data-name="Tracé 448" d="M491.4,259.937a1.276,1.276,0,0,0-.035-.356,1.185,1.185,0,0,0-.136-.343.835.835,0,0,0-.246-.259.645.645,0,0,0-.374-.105.47.47,0,0,0-.277.084.665.665,0,0,0-.193.211,1.132,1.132,0,0,0-.114.268.928.928,0,0,0-.04.246.965.965,0,0,0,.224.585,1.819,1.819,0,0,0,.6.5,4.322,4.322,0,0,1,.8.545,2.648,2.648,0,0,1,.5.58,1.9,1.9,0,0,1,.251.633,2.908,2.908,0,0,1,.049.7,1.666,1.666,0,0,1-.44,1.143,1.461,1.461,0,0,1-1.082.4,1.662,1.662,0,0,1-.721-.154,1.549,1.549,0,0,1-.554-.44,1.978,1.978,0,0,1-.347-.7,2.992,2.992,0,0,1-.1-.932h.9a1.936,1.936,0,0,0,.158.989.679.679,0,0,0,.659.382.613.613,0,0,0,.308-.07.662.662,0,0,0,.2-.176.7.7,0,0,0,.115-.228.877.877,0,0,0,.035-.238,1.479,1.479,0,0,0-.277-.905,2.609,2.609,0,0,0-.875-.765,2.16,2.16,0,0,1-1.275-1.9,2.08,2.08,0,0,1,.1-.668,1.461,1.461,0,0,1,.3-.519,1.314,1.314,0,0,1,.488-.339,1.779,1.779,0,0,1,.677-.119,1.542,1.542,0,0,1,.637.132,1.442,1.442,0,0,1,.51.382,1.724,1.724,0,0,1,.33.611,2.545,2.545,0,0,1,.106.818Z" transform="translate(-461.739 -257.994)" fill="#4c3023"/>
      <path id="Tracé_449" data-name="Tracé 449" d="M526.264,258.3v.861H524.55v2.329h1.433v.879H524.55v1.741l1.714-.009v.879h-2.611V258.3Z" transform="translate(-489.199 -258.234)" fill="#4c3023"/>
      <path id="Tracé_450" data-name="Tracé 450" d="M544.742,259.958v4.984h-.818v-6.69h.914l2.215,4.73v-4.73h.835v6.69h-.835Z" transform="translate(-505.318 -258.199)" fill="#4c3023"/>
      <path id="Tracé_451" data-name="Tracé 451" d="M582.711,259.958v4.984h-.818v-6.69h.914l2.215,4.73v-4.73h.835v6.69h-.835Z" transform="translate(-535.508 -258.199)" fill="#4c3023"/>
      <path id="Tracé_452" data-name="Tracé 452" d="M612.494,261.75a7.554,7.554,0,0,1-.149,1.261,3.754,3.754,0,0,1-.356,1.015,1.884,1.884,0,0,1-.585.673,1.437,1.437,0,0,1-.835.242,1.455,1.455,0,0,1-1.336-.835,5.036,5.036,0,0,1-.422-2.426,7.6,7.6,0,0,1,.115-1.2,4.294,4.294,0,0,1,.334-1.095,2.36,2.36,0,0,1,.6-.8,1.408,1.408,0,0,1,.9-.334,1.186,1.186,0,0,1,.668.167,1.546,1.546,0,0,1,.475.47,2.666,2.666,0,0,1,.312.677,5.919,5.919,0,0,1,.185.774,7.189,7.189,0,0,1,.088.76Q612.5,261.468,612.494,261.75Zm-.906-.035a8.154,8.154,0,0,0-.044-1.033,4.128,4.128,0,0,0-.162-.809,1.641,1.641,0,0,0-.264-.528.417.417,0,0,0-.347-.18.662.662,0,0,0-.523.273,2.059,2.059,0,0,0-.33.65,4.457,4.457,0,0,0-.176.822q-.053.435-.062.778a4.631,4.631,0,0,0,.228,1.723q.246.625.668.633a.62.62,0,0,0,.413-.158,1.217,1.217,0,0,0,.312-.462,3.284,3.284,0,0,0,.2-.734A7.577,7.577,0,0,0,611.588,261.714Z" transform="translate(-556.909 -258.198)" fill="#4c3023"/>
      <path id="Tracé_453" data-name="Tracé 453" d="M634.409,265.01v-6.664q.264-.009.532-.009t.527.013a3.941,3.941,0,0,1,.483.053,2.271,2.271,0,0,1,.391.1,1.6,1.6,0,0,1,.532.316,1.539,1.539,0,0,1,.325.426,1.808,1.808,0,0,1,.167.488,3.36,3.36,0,0,1,.057.51,2.4,2.4,0,0,1-.07.642,2.139,2.139,0,0,1-.246.6,1.814,1.814,0,0,1-.436.488,1.716,1.716,0,0,1-.646.308l1.424,2.725H636.5l-1.3-2.549v2.549Zm2.145-4.765a1.587,1.587,0,0,0-.092-.44.825.825,0,0,0-.237-.343,1.062,1.062,0,0,0-.413-.211,1.809,1.809,0,0,0-.611-.044v2.286a1.627,1.627,0,0,0,.624-.044.984.984,0,0,0,.431-.251,1,1,0,0,0,.241-.418A1.517,1.517,0,0,0,636.554,260.246Z" transform="translate(-577.265 -258.267)" fill="#4c3023"/>
      <path id="Tracé_454" data-name="Tracé 454" d="M657.6,259.817v5.125h-.818v-6.69h.914l1.064,1.776,1.072-1.776h.915v6.69h-.818v-5.125l-.826,1.363h-.677Z" transform="translate(-595.054 -258.199)" fill="#4c3023"/>
      <path id="Tracé_455" data-name="Tracé 455" d="M687.265,264.942h-.853l-.449-2.031h-1.213l-.448,2.031h-.853l1.486-6.69h.844Zm-2.33-2.892h.835l-.413-1.89Z" transform="translate(-616.259 -258.199)" fill="#4c3023"/>
      <path id="Tracé_456" data-name="Tracé 456" d="M710.332,259.958v4.984h-.818v-6.69h.915l2.215,4.73v-4.73h.836v6.69h-.836Z" transform="translate(-636.984 -258.199)" fill="#4c3023"/>
      <path id="Tracé_457" data-name="Tracé 457" d="M737.038,258.338a3.85,3.85,0,0,1,1.213.088,2.257,2.257,0,0,1,.818.387,1.761,1.761,0,0,1,.5.611,3.321,3.321,0,0,1,.264.76,4.88,4.88,0,0,1,.106.831q.017.427.026.822a6.876,6.876,0,0,1-.092,1.244,2.447,2.447,0,0,1-.418,1.033,2.039,2.039,0,0,1-.892.681,3.49,3.49,0,0,1-1.525.189Zm.791,5.749a1.072,1.072,0,0,0,.694-.206,1.266,1.266,0,0,0,.382-.528,2.651,2.651,0,0,0,.167-.712q.039-.391.048-.761,0-.211,0-.492a5.841,5.841,0,0,0-.04-.585,4.163,4.163,0,0,0-.114-.6,1.824,1.824,0,0,0-.224-.519,1.143,1.143,0,0,0-.369-.361.923.923,0,0,0-.54-.119h-.022l.018,0,.022.009c.006,0,0,0-.017,0Z" transform="translate(-658.869 -258.259)" fill="#4c3023"/>
      <path id="Tracé_458" data-name="Tracé 458" d="M758.812,264.977v-.861h.879v-4.949h-.879v-.87h2.646v.87h-.879v4.949h.879v.861Z" transform="translate(-676.183 -258.234)" fill="#4c3023"/>
      <path id="Tracé_459" data-name="Tracé 459" d="M781.61,258.3v.861H779.9v2.329h1.433v.879H779.9v1.741l1.714-.009v.879H779V258.3Z" transform="translate(-692.234 -258.234)" fill="#4c3023"/>
    </g>
  </g>
</svg>
